G04 #@! TF.GenerationSoftware,KiCad,Pcbnew,(6.0.10)*
G04 #@! TF.CreationDate,2023-06-25T11:42:12-04:00*
G04 #@! TF.ProjectId,sd2_node_board,7364325f-6e6f-4646-955f-626f6172642e,rev?*
G04 #@! TF.SameCoordinates,Original*
G04 #@! TF.FileFunction,Copper,L4,Bot*
G04 #@! TF.FilePolarity,Positive*
%FSLAX46Y46*%
G04 Gerber Fmt 4.6, Leading zero omitted, Abs format (unit mm)*
G04 Created by KiCad (PCBNEW (6.0.10)) date 2023-06-25 11:42:12*
%MOMM*%
%LPD*%
G01*
G04 APERTURE LIST*
G04 #@! TA.AperFunction,ComponentPad*
%ADD10O,1.900000X1.050000*%
G04 #@! TD*
G04 #@! TA.AperFunction,ComponentPad*
%ADD11O,2.000000X4.000000*%
G04 #@! TD*
G04 #@! TA.AperFunction,ComponentPad*
%ADD12O,4.000000X2.000000*%
G04 #@! TD*
G04 #@! TA.AperFunction,ComponentPad*
%ADD13R,1.700000X1.700000*%
G04 #@! TD*
G04 #@! TA.AperFunction,ComponentPad*
%ADD14O,1.700000X1.700000*%
G04 #@! TD*
G04 #@! TA.AperFunction,ComponentPad*
%ADD15R,2.600000X2.600000*%
G04 #@! TD*
G04 #@! TA.AperFunction,ComponentPad*
%ADD16C,2.600000*%
G04 #@! TD*
G04 #@! TA.AperFunction,HeatsinkPad*
%ADD17C,0.475000*%
G04 #@! TD*
G04 #@! TA.AperFunction,ViaPad*
%ADD18C,0.800000*%
G04 #@! TD*
G04 #@! TA.AperFunction,ViaPad*
%ADD19C,1.676400*%
G04 #@! TD*
G04 #@! TA.AperFunction,Conductor*
%ADD20C,0.838200*%
G04 #@! TD*
G04 #@! TA.AperFunction,Conductor*
%ADD21C,0.381000*%
G04 #@! TD*
G04 APERTURE END LIST*
D10*
X88716000Y-84055000D03*
X88716000Y-91205000D03*
D11*
X101237500Y-73872000D03*
D12*
X98437500Y-78472000D03*
D11*
X95137500Y-73872000D03*
D13*
X142484000Y-121158000D03*
D14*
X139944000Y-121158000D03*
X137404000Y-121158000D03*
X134864000Y-121158000D03*
D15*
X172669000Y-127508000D03*
D16*
X172669000Y-132588000D03*
X172669000Y-137668000D03*
X172669000Y-142748000D03*
X172669000Y-147828000D03*
D15*
X172731000Y-100004000D03*
D16*
X172731000Y-105084000D03*
X172731000Y-110164000D03*
X172731000Y-115244000D03*
X172731000Y-120324000D03*
D15*
X172710000Y-72644000D03*
D16*
X172710000Y-77724000D03*
X172710000Y-82804000D03*
X172710000Y-87884000D03*
X172710000Y-92964000D03*
D15*
X94823500Y-147299000D03*
D16*
X94823500Y-142219000D03*
X94823500Y-137139000D03*
X94823500Y-132059000D03*
X94823500Y-126979000D03*
D17*
X139671500Y-136215000D03*
X137384000Y-136977500D03*
X138909000Y-135452500D03*
X138146500Y-136215000D03*
X138909000Y-136977500D03*
X137384000Y-135452500D03*
X137384000Y-138502500D03*
X139671500Y-137740000D03*
X138146500Y-137740000D03*
X136621500Y-137740000D03*
X138909000Y-138502500D03*
X136621500Y-136215000D03*
D15*
X94837500Y-120492000D03*
D16*
X94837500Y-115412000D03*
X94837500Y-110332000D03*
X94837500Y-105252000D03*
X94837500Y-100172000D03*
D18*
X120142000Y-102108000D03*
D19*
X102616000Y-81280000D03*
D18*
X120142000Y-100330000D03*
D19*
X166878000Y-147574000D03*
X95504000Y-83820000D03*
X109220000Y-71882000D03*
X106934000Y-83312000D03*
X118364000Y-90424000D03*
X123444000Y-80010000D03*
X128270000Y-98044000D03*
X144018000Y-82550000D03*
X147066000Y-72898000D03*
X101092000Y-149098000D03*
X107950000Y-103632000D03*
D18*
X107899200Y-98399600D03*
X119913400Y-103200200D03*
D19*
X122936000Y-77978000D03*
X147066000Y-75946000D03*
X154686000Y-74676000D03*
X152654000Y-83566000D03*
X102870000Y-142748000D03*
X147828000Y-143510000D03*
X128270000Y-100584000D03*
X133096000Y-88392000D03*
X141224000Y-86360000D03*
D18*
X147066000Y-140970000D03*
X148844000Y-138684000D03*
X147066000Y-138430000D03*
X125984000Y-142240000D03*
X147066000Y-137160000D03*
X124206000Y-133350000D03*
X125984000Y-134366000D03*
X125984000Y-133350000D03*
X125984000Y-128270000D03*
X147066000Y-134620000D03*
X147599400Y-132613400D03*
X125984000Y-143510000D03*
X152044400Y-131902200D03*
X114884200Y-118465600D03*
X150876000Y-140995400D03*
X125984000Y-130810000D03*
X128778000Y-102616000D03*
X128778000Y-103886000D03*
X125984000Y-132080000D03*
X120142000Y-98806000D03*
X125984000Y-139700000D03*
X125984000Y-140970000D03*
X111252000Y-101092000D03*
D20*
X148336000Y-74676000D02*
X147066000Y-75946000D01*
X118830000Y-73872000D02*
X122936000Y-77978000D01*
X101237500Y-73872000D02*
X118830000Y-73872000D01*
X124968000Y-75946000D02*
X122936000Y-77978000D01*
X154686000Y-74676000D02*
X154686000Y-81534000D01*
X154686000Y-81534000D02*
X152654000Y-83566000D01*
X154686000Y-74676000D02*
X148336000Y-74676000D01*
X147066000Y-75946000D02*
X124968000Y-75946000D01*
X106017900Y-145895900D02*
X102870000Y-142748000D01*
X128270000Y-100584000D02*
X133096000Y-95758000D01*
X98044000Y-123698000D02*
X99060000Y-122682000D01*
X93726000Y-123698000D02*
X98044000Y-123698000D01*
X99060000Y-120396000D02*
X96774000Y-118110000D01*
X91694000Y-144018000D02*
X91694000Y-125730000D01*
X91694000Y-125730000D02*
X93726000Y-123698000D01*
X92964000Y-118110000D02*
X91694000Y-116840000D01*
X103903482Y-88392000D02*
X133096000Y-88392000D01*
X91694000Y-100601482D02*
X103903482Y-88392000D01*
X99060000Y-122682000D02*
X99060000Y-120396000D01*
X100838000Y-144780000D02*
X92456000Y-144780000D01*
X91694000Y-116840000D02*
X91694000Y-100601482D01*
X102870000Y-142748000D02*
X100838000Y-144780000D01*
X96774000Y-118110000D02*
X92964000Y-118110000D01*
X147828000Y-143510000D02*
X145442100Y-145895900D01*
X133096000Y-95758000D02*
X133096000Y-88392000D01*
X145442100Y-145895900D02*
X106017900Y-145895900D01*
X92456000Y-144780000D02*
X91694000Y-144018000D01*
X175768000Y-124968000D02*
X175768000Y-103041000D01*
X173228000Y-127508000D02*
X175768000Y-124968000D01*
X175768000Y-103041000D02*
X172731000Y-100004000D01*
X176276000Y-76210000D02*
X172710000Y-72644000D01*
X94837500Y-120492000D02*
X91028000Y-120492000D01*
X89916000Y-120396000D02*
X89916000Y-145288000D01*
X91028000Y-120492000D02*
X90932000Y-120396000D01*
X89916000Y-118872000D02*
X89916000Y-120396000D01*
X172731000Y-100004000D02*
X176276000Y-96459000D01*
X89916000Y-145288000D02*
X91927000Y-147299000D01*
X176276000Y-96459000D02*
X176276000Y-76210000D01*
X172669000Y-127508000D02*
X173228000Y-127508000D01*
X89916000Y-97028000D02*
X100584000Y-86360000D01*
X100584000Y-86360000D02*
X105935482Y-86360000D01*
X91927000Y-147299000D02*
X94823500Y-147299000D01*
X90932000Y-120396000D02*
X89916000Y-120396000D01*
X105935482Y-86360000D02*
X141224000Y-86360000D01*
X89916000Y-118872000D02*
X89916000Y-97028000D01*
D21*
X143735500Y-144300500D02*
X106160145Y-144300500D01*
X147066000Y-140970000D02*
X143735500Y-144300500D01*
X96326500Y-140716000D02*
X94823500Y-142219000D01*
X106160145Y-144300500D02*
X102575645Y-140716000D01*
X102575645Y-140716000D02*
X96326500Y-140716000D01*
X147950000Y-139578000D02*
X127132000Y-139578000D01*
X148844000Y-138684000D02*
X147950000Y-139578000D01*
X127132000Y-139578000D02*
X124693000Y-137139000D01*
X124693000Y-137139000D02*
X94823500Y-137139000D01*
X98908500Y-136144000D02*
X135056000Y-136144000D01*
X135056000Y-136144000D02*
X137400000Y-133800000D01*
X137400000Y-133800000D02*
X142436000Y-133800000D01*
X94823500Y-132059000D02*
X98908500Y-136144000D01*
X142436000Y-133800000D02*
X147066000Y-138430000D01*
X174421500Y-115944229D02*
X174421500Y-111854500D01*
X147066000Y-137160000D02*
X149809200Y-134416800D01*
X160814164Y-122014500D02*
X168351229Y-122014500D01*
X149809200Y-133019464D02*
X160814164Y-122014500D01*
X168351229Y-122014500D02*
X174421500Y-115944229D01*
X174421500Y-111854500D02*
X172731000Y-110164000D01*
X149809200Y-134416800D02*
X149809200Y-133019464D01*
X93147000Y-113721500D02*
X94837500Y-115412000D01*
X94098100Y-103561500D02*
X93147000Y-104512600D01*
X101275500Y-103561500D02*
X94098100Y-103561500D01*
X125984000Y-128270000D02*
X115963700Y-118249700D01*
X115963700Y-118249700D02*
X115519200Y-117805200D01*
X93147000Y-104512600D02*
X93147000Y-113721500D01*
X115519200Y-117805200D02*
X101275500Y-103561500D01*
X135800000Y-133200000D02*
X145646000Y-133200000D01*
X133745000Y-135255000D02*
X135800000Y-133200000D01*
X145646000Y-133200000D02*
X147066000Y-134620000D01*
X94837500Y-110332000D02*
X98927229Y-110332000D01*
X123850229Y-135255000D02*
X133745000Y-135255000D01*
X98927229Y-110332000D02*
X123850229Y-135255000D01*
X143735500Y-130019500D02*
X119605000Y-130019500D01*
X147599400Y-132613400D02*
X146329400Y-132613400D01*
X146329400Y-132613400D02*
X143735500Y-130019500D01*
X119605000Y-130019500D02*
X94837500Y-105252000D01*
X174359500Y-134278500D02*
X174359500Y-138368229D01*
X172669000Y-132588000D02*
X174359500Y-134278500D01*
X129335000Y-140159000D02*
X125984000Y-143510000D01*
X174359500Y-138368229D02*
X172568729Y-140159000D01*
X172568729Y-140159000D02*
X129335000Y-140159000D01*
X152044400Y-131902200D02*
X166903200Y-131902200D01*
X166903200Y-131902200D02*
X172669000Y-137668000D01*
M02*
