G04 #@! TF.GenerationSoftware,KiCad,Pcbnew,(6.0.10)*
G04 #@! TF.CreationDate,2023-06-25T11:42:12-04:00*
G04 #@! TF.ProjectId,sd2_node_board,7364325f-6e6f-4646-955f-626f6172642e,rev?*
G04 #@! TF.SameCoordinates,Original*
G04 #@! TF.FileFunction,Copper,L2,Inr*
G04 #@! TF.FilePolarity,Positive*
%FSLAX46Y46*%
G04 Gerber Fmt 4.6, Leading zero omitted, Abs format (unit mm)*
G04 Created by KiCad (PCBNEW (6.0.10)) date 2023-06-25 11:42:12*
%MOMM*%
%LPD*%
G01*
G04 APERTURE LIST*
G04 #@! TA.AperFunction,ComponentPad*
%ADD10O,1.900000X1.050000*%
G04 #@! TD*
G04 #@! TA.AperFunction,ComponentPad*
%ADD11O,2.000000X4.000000*%
G04 #@! TD*
G04 #@! TA.AperFunction,ComponentPad*
%ADD12O,4.000000X2.000000*%
G04 #@! TD*
G04 #@! TA.AperFunction,ComponentPad*
%ADD13R,1.700000X1.700000*%
G04 #@! TD*
G04 #@! TA.AperFunction,ComponentPad*
%ADD14O,1.700000X1.700000*%
G04 #@! TD*
G04 #@! TA.AperFunction,ComponentPad*
%ADD15R,2.600000X2.600000*%
G04 #@! TD*
G04 #@! TA.AperFunction,ComponentPad*
%ADD16C,2.600000*%
G04 #@! TD*
G04 #@! TA.AperFunction,HeatsinkPad*
%ADD17C,0.475000*%
G04 #@! TD*
G04 #@! TA.AperFunction,ViaPad*
%ADD18C,0.800000*%
G04 #@! TD*
G04 #@! TA.AperFunction,ViaPad*
%ADD19C,1.676400*%
G04 #@! TD*
G04 #@! TA.AperFunction,Conductor*
%ADD20C,0.381000*%
G04 #@! TD*
G04 #@! TA.AperFunction,Conductor*
%ADD21C,0.838200*%
G04 #@! TD*
G04 APERTURE END LIST*
D10*
X88716000Y-84055000D03*
X88716000Y-91205000D03*
D11*
X101237500Y-73872000D03*
D12*
X98437500Y-78472000D03*
D11*
X95137500Y-73872000D03*
D13*
X142484000Y-121158000D03*
D14*
X139944000Y-121158000D03*
X137404000Y-121158000D03*
X134864000Y-121158000D03*
D15*
X172669000Y-127508000D03*
D16*
X172669000Y-132588000D03*
X172669000Y-137668000D03*
X172669000Y-142748000D03*
X172669000Y-147828000D03*
D15*
X172731000Y-100004000D03*
D16*
X172731000Y-105084000D03*
X172731000Y-110164000D03*
X172731000Y-115244000D03*
X172731000Y-120324000D03*
D15*
X172710000Y-72644000D03*
D16*
X172710000Y-77724000D03*
X172710000Y-82804000D03*
X172710000Y-87884000D03*
X172710000Y-92964000D03*
D15*
X94823500Y-147299000D03*
D16*
X94823500Y-142219000D03*
X94823500Y-137139000D03*
X94823500Y-132059000D03*
X94823500Y-126979000D03*
D17*
X139671500Y-136215000D03*
X137384000Y-136977500D03*
X138909000Y-135452500D03*
X138146500Y-136215000D03*
X138909000Y-136977500D03*
X137384000Y-135452500D03*
X137384000Y-138502500D03*
X139671500Y-137740000D03*
X138146500Y-137740000D03*
X136621500Y-137740000D03*
X138909000Y-138502500D03*
X136621500Y-136215000D03*
D15*
X94837500Y-120492000D03*
D16*
X94837500Y-115412000D03*
X94837500Y-110332000D03*
X94837500Y-105252000D03*
X94837500Y-100172000D03*
D18*
X120142000Y-102108000D03*
D19*
X102616000Y-81280000D03*
D18*
X120142000Y-100330000D03*
D19*
X166878000Y-147574000D03*
X95504000Y-83820000D03*
X109220000Y-71882000D03*
X106934000Y-83312000D03*
X118364000Y-90424000D03*
X123444000Y-80010000D03*
X128270000Y-98044000D03*
X144018000Y-82550000D03*
X147066000Y-72898000D03*
X101092000Y-149098000D03*
X107950000Y-103632000D03*
D18*
X107899200Y-98399600D03*
X119913400Y-103200200D03*
D19*
X122936000Y-77978000D03*
X147066000Y-75946000D03*
X154686000Y-74676000D03*
X152654000Y-83566000D03*
X102870000Y-142748000D03*
X147828000Y-143510000D03*
X128270000Y-100584000D03*
X133096000Y-88392000D03*
X141224000Y-86360000D03*
D18*
X147066000Y-140970000D03*
X148844000Y-138684000D03*
X147066000Y-138430000D03*
X125984000Y-142240000D03*
X147066000Y-137160000D03*
X124206000Y-133350000D03*
X125984000Y-134366000D03*
X125984000Y-133350000D03*
X125984000Y-128270000D03*
X147066000Y-134620000D03*
X147599400Y-132613400D03*
X125984000Y-143510000D03*
X152044400Y-131902200D03*
X114884200Y-118465600D03*
X150876000Y-140995400D03*
X125984000Y-130810000D03*
X128778000Y-102616000D03*
X128778000Y-103886000D03*
X125984000Y-132080000D03*
X120142000Y-98806000D03*
X125984000Y-139700000D03*
X125984000Y-140970000D03*
X111252000Y-101092000D03*
D20*
X102616000Y-81280000D02*
X102616000Y-84582000D01*
X102616000Y-84582000D02*
X120142000Y-102108000D01*
D21*
X95504000Y-91186000D02*
X107950000Y-103632000D01*
X95504000Y-83820000D02*
X95504000Y-91186000D01*
D20*
X115112800Y-98399600D02*
X119913400Y-103200200D01*
X107899200Y-98399600D02*
X115112800Y-98399600D01*
X126774500Y-137436300D02*
X128527100Y-137436300D01*
X126774500Y-141449500D02*
X126774500Y-137436300D01*
X125984000Y-142240000D02*
X126774500Y-141449500D01*
X160879400Y-105084000D02*
X172731000Y-105084000D01*
X128527100Y-137436300D02*
X160879400Y-105084000D01*
X125476000Y-135661400D02*
X124206000Y-134391400D01*
X127457200Y-135661400D02*
X125476000Y-135661400D01*
X133604000Y-116830000D02*
X133604000Y-129514600D01*
X172710000Y-77724000D02*
X133604000Y-116830000D01*
X133604000Y-129514600D02*
X127457200Y-135661400D01*
X124206000Y-134391400D02*
X124206000Y-133350000D01*
X132207000Y-114833400D02*
X132207000Y-129514600D01*
X173761400Y-75031600D02*
X172008800Y-75031600D01*
X175336200Y-80177800D02*
X175336200Y-76606400D01*
X132207000Y-129514600D02*
X127355600Y-134366000D01*
X175336200Y-76606400D02*
X173761400Y-75031600D01*
X172008800Y-75031600D02*
X132207000Y-114833400D01*
X172710000Y-82804000D02*
X175336200Y-80177800D01*
X127355600Y-134366000D02*
X125984000Y-134366000D01*
X131626000Y-127708000D02*
X131626000Y-110347000D01*
X176936400Y-73489400D02*
X176936400Y-83657600D01*
X125984000Y-133350000D02*
X131626000Y-127708000D01*
X174363800Y-70916800D02*
X176936400Y-73489400D01*
X131626000Y-110347000D02*
X171056200Y-70916800D01*
X171056200Y-70916800D02*
X174363800Y-70916800D01*
X176936400Y-83657600D02*
X172710000Y-87884000D01*
X121386600Y-120929400D02*
X121386600Y-140030536D01*
X150876000Y-142199645D02*
X150876000Y-140995400D01*
X148041645Y-145034000D02*
X150876000Y-142199645D01*
X118922800Y-118465600D02*
X121386600Y-120929400D01*
X121386600Y-140030536D02*
X126390064Y-145034000D01*
X126390064Y-145034000D02*
X148041645Y-145034000D01*
X114884200Y-118465600D02*
X118922800Y-118465600D01*
X123850400Y-128676400D02*
X125984000Y-130810000D01*
X128778000Y-102616000D02*
X123850400Y-107543600D01*
X123850400Y-107543600D02*
X123850400Y-128676400D01*
X128778000Y-103886000D02*
X128778000Y-129286000D01*
X128778000Y-129286000D02*
X125984000Y-132080000D01*
X123266200Y-138176000D02*
X124790200Y-139700000D01*
X123266200Y-101930200D02*
X123266200Y-138176000D01*
X124790200Y-139700000D02*
X125984000Y-139700000D01*
X120142000Y-98806000D02*
X123266200Y-101930200D01*
X122453400Y-107264200D02*
X122453400Y-140233400D01*
X111252000Y-101092000D02*
X116281200Y-101092000D01*
X122453400Y-140233400D02*
X123190000Y-140970000D01*
X116281200Y-101092000D02*
X122453400Y-107264200D01*
X123190000Y-140970000D02*
X125984000Y-140970000D01*
M02*
