G04 #@! TF.GenerationSoftware,KiCad,Pcbnew,(6.0.10)*
G04 #@! TF.CreationDate,2023-06-25T11:42:12-04:00*
G04 #@! TF.ProjectId,sd2_node_board,7364325f-6e6f-4646-955f-626f6172642e,rev?*
G04 #@! TF.SameCoordinates,Original*
G04 #@! TF.FileFunction,Copper,L3,Inr*
G04 #@! TF.FilePolarity,Positive*
%FSLAX46Y46*%
G04 Gerber Fmt 4.6, Leading zero omitted, Abs format (unit mm)*
G04 Created by KiCad (PCBNEW (6.0.10)) date 2023-06-25 11:42:12*
%MOMM*%
%LPD*%
G01*
G04 APERTURE LIST*
G04 #@! TA.AperFunction,ComponentPad*
%ADD10O,1.900000X1.050000*%
G04 #@! TD*
G04 #@! TA.AperFunction,ComponentPad*
%ADD11O,2.000000X4.000000*%
G04 #@! TD*
G04 #@! TA.AperFunction,ComponentPad*
%ADD12O,4.000000X2.000000*%
G04 #@! TD*
G04 #@! TA.AperFunction,ComponentPad*
%ADD13R,1.700000X1.700000*%
G04 #@! TD*
G04 #@! TA.AperFunction,ComponentPad*
%ADD14O,1.700000X1.700000*%
G04 #@! TD*
G04 #@! TA.AperFunction,ComponentPad*
%ADD15R,2.600000X2.600000*%
G04 #@! TD*
G04 #@! TA.AperFunction,ComponentPad*
%ADD16C,2.600000*%
G04 #@! TD*
G04 #@! TA.AperFunction,HeatsinkPad*
%ADD17C,0.475000*%
G04 #@! TD*
G04 #@! TA.AperFunction,ViaPad*
%ADD18C,0.800000*%
G04 #@! TD*
G04 #@! TA.AperFunction,ViaPad*
%ADD19C,1.676400*%
G04 #@! TD*
G04 APERTURE END LIST*
D10*
X88716000Y-84055000D03*
X88716000Y-91205000D03*
D11*
X101237500Y-73872000D03*
D12*
X98437500Y-78472000D03*
D11*
X95137500Y-73872000D03*
D13*
X142484000Y-121158000D03*
D14*
X139944000Y-121158000D03*
X137404000Y-121158000D03*
X134864000Y-121158000D03*
D15*
X172669000Y-127508000D03*
D16*
X172669000Y-132588000D03*
X172669000Y-137668000D03*
X172669000Y-142748000D03*
X172669000Y-147828000D03*
D15*
X172731000Y-100004000D03*
D16*
X172731000Y-105084000D03*
X172731000Y-110164000D03*
X172731000Y-115244000D03*
X172731000Y-120324000D03*
D15*
X172710000Y-72644000D03*
D16*
X172710000Y-77724000D03*
X172710000Y-82804000D03*
X172710000Y-87884000D03*
X172710000Y-92964000D03*
D15*
X94823500Y-147299000D03*
D16*
X94823500Y-142219000D03*
X94823500Y-137139000D03*
X94823500Y-132059000D03*
X94823500Y-126979000D03*
D17*
X139671500Y-136215000D03*
X137384000Y-136977500D03*
X138909000Y-135452500D03*
X138146500Y-136215000D03*
X138909000Y-136977500D03*
X137384000Y-135452500D03*
X137384000Y-138502500D03*
X139671500Y-137740000D03*
X138146500Y-137740000D03*
X136621500Y-137740000D03*
X138909000Y-138502500D03*
X136621500Y-136215000D03*
D15*
X94837500Y-120492000D03*
D16*
X94837500Y-115412000D03*
X94837500Y-110332000D03*
X94837500Y-105252000D03*
X94837500Y-100172000D03*
D18*
X120142000Y-102108000D03*
D19*
X102616000Y-81280000D03*
D18*
X120142000Y-100330000D03*
D19*
X166878000Y-147574000D03*
X95504000Y-83820000D03*
X109220000Y-71882000D03*
X106934000Y-83312000D03*
X118364000Y-90424000D03*
X123444000Y-80010000D03*
X128270000Y-98044000D03*
X144018000Y-82550000D03*
X147066000Y-72898000D03*
X101092000Y-149098000D03*
X107950000Y-103632000D03*
D18*
X107899200Y-98399600D03*
X119913400Y-103200200D03*
D19*
X122936000Y-77978000D03*
X147066000Y-75946000D03*
X154686000Y-74676000D03*
X152654000Y-83566000D03*
X102870000Y-142748000D03*
X147828000Y-143510000D03*
X128270000Y-100584000D03*
X133096000Y-88392000D03*
X141224000Y-86360000D03*
D18*
X147066000Y-140970000D03*
X148844000Y-138684000D03*
X147066000Y-138430000D03*
X125984000Y-142240000D03*
X147066000Y-137160000D03*
X124206000Y-133350000D03*
X125984000Y-134366000D03*
X125984000Y-133350000D03*
X125984000Y-128270000D03*
X147066000Y-134620000D03*
X147599400Y-132613400D03*
X125984000Y-143510000D03*
X152044400Y-131902200D03*
X114884200Y-118465600D03*
X150876000Y-140995400D03*
X125984000Y-130810000D03*
X128778000Y-102616000D03*
X128778000Y-103886000D03*
X125984000Y-132080000D03*
X120142000Y-98806000D03*
X125984000Y-139700000D03*
X125984000Y-140970000D03*
X111252000Y-101092000D03*
G04 #@! TA.AperFunction,Conductor*
G36*
X179892621Y-69237502D02*
G01*
X179939114Y-69291158D01*
X179950500Y-69343500D01*
X179950500Y-151939500D01*
X179930498Y-152007621D01*
X179876842Y-152054114D01*
X179824500Y-152065500D01*
X87830500Y-152065500D01*
X87762379Y-152045498D01*
X87715886Y-151991842D01*
X87704500Y-151939500D01*
X87704500Y-149272906D01*
X171588839Y-149272906D01*
X171597553Y-149284427D01*
X171704452Y-149362809D01*
X171712351Y-149367745D01*
X171941905Y-149488519D01*
X171950454Y-149492236D01*
X172195327Y-149577749D01*
X172204336Y-149580163D01*
X172459166Y-149628544D01*
X172468423Y-149629598D01*
X172727607Y-149639783D01*
X172736921Y-149639457D01*
X172994753Y-149611220D01*
X173003930Y-149609519D01*
X173254758Y-149543481D01*
X173263574Y-149540445D01*
X173501880Y-149438062D01*
X173510167Y-149433748D01*
X173730718Y-149297266D01*
X173738268Y-149291780D01*
X173743559Y-149287301D01*
X173751997Y-149274497D01*
X173745935Y-149264145D01*
X172681812Y-148200022D01*
X172667868Y-148192408D01*
X172666035Y-148192539D01*
X172659420Y-148196790D01*
X171595497Y-149260713D01*
X171588839Y-149272906D01*
X87704500Y-149272906D01*
X87704500Y-148647134D01*
X93015000Y-148647134D01*
X93021755Y-148709316D01*
X93072885Y-148845705D01*
X93160239Y-148962261D01*
X93276795Y-149049615D01*
X93413184Y-149100745D01*
X93475366Y-149107500D01*
X96171634Y-149107500D01*
X96233816Y-149100745D01*
X96370205Y-149049615D01*
X96486761Y-148962261D01*
X96574115Y-148845705D01*
X96625245Y-148709316D01*
X96632000Y-148647134D01*
X96632000Y-147785211D01*
X170856775Y-147785211D01*
X170869220Y-148044288D01*
X170870356Y-148053543D01*
X170920961Y-148307945D01*
X170923449Y-148316917D01*
X171011095Y-148561033D01*
X171014895Y-148569568D01*
X171137658Y-148798042D01*
X171142666Y-148805904D01*
X171212720Y-148899716D01*
X171223979Y-148908165D01*
X171236397Y-148901393D01*
X172296978Y-147840812D01*
X172303356Y-147829132D01*
X173033408Y-147829132D01*
X173033539Y-147830965D01*
X173037790Y-147837580D01*
X174105094Y-148904884D01*
X174117474Y-148911644D01*
X174125815Y-148905400D01*
X174259832Y-148697048D01*
X174264275Y-148688864D01*
X174370807Y-148452370D01*
X174373997Y-148443605D01*
X174444402Y-148193972D01*
X174446262Y-148184830D01*
X174479187Y-147926019D01*
X174479668Y-147919733D01*
X174481987Y-147831160D01*
X174481836Y-147824851D01*
X174462501Y-147564663D01*
X174461125Y-147555457D01*
X174403878Y-147302467D01*
X174401154Y-147293556D01*
X174307143Y-147051806D01*
X174303132Y-147043397D01*
X174174422Y-146818202D01*
X174169211Y-146810476D01*
X174125996Y-146755658D01*
X174114071Y-146747187D01*
X174102537Y-146753673D01*
X173041022Y-147815188D01*
X173033408Y-147829132D01*
X172303356Y-147829132D01*
X172304592Y-147826868D01*
X172304461Y-147825035D01*
X172300210Y-147818420D01*
X171234816Y-146753026D01*
X171221507Y-146745758D01*
X171211472Y-146752878D01*
X171195937Y-146771556D01*
X171190531Y-146779135D01*
X171055965Y-147000891D01*
X171051736Y-147009192D01*
X170951432Y-147248389D01*
X170948471Y-147257239D01*
X170884628Y-147508625D01*
X170883006Y-147517822D01*
X170857020Y-147775885D01*
X170856775Y-147785211D01*
X96632000Y-147785211D01*
X96632000Y-146380689D01*
X171586102Y-146380689D01*
X171590675Y-146390465D01*
X172656188Y-147455978D01*
X172670132Y-147463592D01*
X172671965Y-147463461D01*
X172678580Y-147459210D01*
X173743349Y-146394441D01*
X173749733Y-146382751D01*
X173740321Y-146370641D01*
X173593045Y-146268471D01*
X173585010Y-146263738D01*
X173352376Y-146149016D01*
X173343743Y-146145528D01*
X173096703Y-146066450D01*
X173087643Y-146064274D01*
X172831630Y-146022580D01*
X172822343Y-146021768D01*
X172562992Y-146018373D01*
X172553681Y-146018943D01*
X172296682Y-146053919D01*
X172287546Y-146055860D01*
X172038543Y-146128439D01*
X172029800Y-146131707D01*
X171794252Y-146240296D01*
X171786097Y-146244816D01*
X171595240Y-146369947D01*
X171586102Y-146380689D01*
X96632000Y-146380689D01*
X96632000Y-145950866D01*
X96625245Y-145888684D01*
X96574115Y-145752295D01*
X96486761Y-145635739D01*
X96370205Y-145548385D01*
X96233816Y-145497255D01*
X96171634Y-145490500D01*
X93475366Y-145490500D01*
X93413184Y-145497255D01*
X93276795Y-145548385D01*
X93160239Y-145635739D01*
X93072885Y-145752295D01*
X93021755Y-145888684D01*
X93015000Y-145950866D01*
X93015000Y-148647134D01*
X87704500Y-148647134D01*
X87704500Y-142171526D01*
X93010550Y-142171526D01*
X93010774Y-142176192D01*
X93010774Y-142176197D01*
X93016287Y-142290952D01*
X93023447Y-142440019D01*
X93075888Y-142703656D01*
X93166720Y-142956646D01*
X93168932Y-142960762D01*
X93168933Y-142960765D01*
X93183599Y-142988060D01*
X93293950Y-143193431D01*
X93296741Y-143197168D01*
X93296745Y-143197175D01*
X93359143Y-143280735D01*
X93454781Y-143408810D01*
X93458090Y-143412090D01*
X93458095Y-143412096D01*
X93642363Y-143594762D01*
X93645680Y-143598050D01*
X93649442Y-143600808D01*
X93649445Y-143600811D01*
X93820421Y-143726175D01*
X93862454Y-143756995D01*
X93866589Y-143759171D01*
X93866593Y-143759173D01*
X94096198Y-143879975D01*
X94100340Y-143882154D01*
X94354113Y-143970775D01*
X94358706Y-143971647D01*
X94613609Y-144020042D01*
X94613612Y-144020042D01*
X94618198Y-144020913D01*
X94745870Y-144025929D01*
X94882125Y-144031283D01*
X94882130Y-144031283D01*
X94886793Y-144031466D01*
X94991107Y-144020042D01*
X95149344Y-144002713D01*
X95149350Y-144002712D01*
X95153997Y-144002203D01*
X95248433Y-143977340D01*
X95409418Y-143934956D01*
X95409420Y-143934955D01*
X95413941Y-143933765D01*
X95522140Y-143887279D01*
X95656620Y-143829502D01*
X95656622Y-143829501D01*
X95660914Y-143827657D01*
X95779571Y-143754230D01*
X95885517Y-143688669D01*
X95885521Y-143688666D01*
X95889490Y-143686210D01*
X96094649Y-143512530D01*
X96271882Y-143310434D01*
X96321911Y-143232656D01*
X96401083Y-143109568D01*
X96417297Y-143084361D01*
X96527699Y-142839278D01*
X96553442Y-142748000D01*
X101518156Y-142748000D01*
X101538694Y-142982745D01*
X101540118Y-142988059D01*
X101540118Y-142988060D01*
X101596150Y-143197175D01*
X101599682Y-143210358D01*
X101602004Y-143215338D01*
X101602005Y-143215340D01*
X101673322Y-143368278D01*
X101699269Y-143423922D01*
X101834427Y-143616949D01*
X102001051Y-143783573D01*
X102194078Y-143918731D01*
X102199056Y-143921052D01*
X102199059Y-143921054D01*
X102370529Y-144001012D01*
X102407642Y-144018318D01*
X102412950Y-144019740D01*
X102412952Y-144019741D01*
X102629940Y-144077882D01*
X102635255Y-144079306D01*
X102870000Y-144099844D01*
X103104745Y-144079306D01*
X103110060Y-144077882D01*
X103327048Y-144019741D01*
X103327050Y-144019740D01*
X103332358Y-144018318D01*
X103369471Y-144001012D01*
X103540941Y-143921054D01*
X103540944Y-143921052D01*
X103545922Y-143918731D01*
X103738949Y-143783573D01*
X103905573Y-143616949D01*
X103980459Y-143510000D01*
X125070496Y-143510000D01*
X125071186Y-143516565D01*
X125089275Y-143688669D01*
X125090458Y-143699928D01*
X125149473Y-143881556D01*
X125152776Y-143887278D01*
X125152777Y-143887279D01*
X125186686Y-143946010D01*
X125244960Y-144046944D01*
X125372747Y-144188866D01*
X125527248Y-144301118D01*
X125533276Y-144303802D01*
X125533278Y-144303803D01*
X125646461Y-144354195D01*
X125701712Y-144378794D01*
X125795113Y-144398647D01*
X125882056Y-144417128D01*
X125882061Y-144417128D01*
X125888513Y-144418500D01*
X126079487Y-144418500D01*
X126085939Y-144417128D01*
X126085944Y-144417128D01*
X126172887Y-144398647D01*
X126266288Y-144378794D01*
X126321539Y-144354195D01*
X126434722Y-144303803D01*
X126434724Y-144303802D01*
X126440752Y-144301118D01*
X126595253Y-144188866D01*
X126723040Y-144046944D01*
X126781314Y-143946010D01*
X126815223Y-143887279D01*
X126815224Y-143887278D01*
X126818527Y-143881556D01*
X126877542Y-143699928D01*
X126878726Y-143688669D01*
X126896814Y-143516565D01*
X126897504Y-143510000D01*
X146476156Y-143510000D01*
X146496694Y-143744745D01*
X146498118Y-143750059D01*
X146498118Y-143750060D01*
X146546847Y-143931919D01*
X146557682Y-143972358D01*
X146560004Y-143977338D01*
X146560005Y-143977340D01*
X146616907Y-144099365D01*
X146657269Y-144185922D01*
X146792427Y-144378949D01*
X146959051Y-144545573D01*
X147152078Y-144680731D01*
X147157056Y-144683052D01*
X147157059Y-144683054D01*
X147360660Y-144777995D01*
X147365642Y-144780318D01*
X147370950Y-144781740D01*
X147370952Y-144781741D01*
X147587940Y-144839882D01*
X147593255Y-144841306D01*
X147828000Y-144861844D01*
X148062745Y-144841306D01*
X148068060Y-144839882D01*
X148285048Y-144781741D01*
X148285050Y-144781740D01*
X148290358Y-144780318D01*
X148295340Y-144777995D01*
X148498941Y-144683054D01*
X148498944Y-144683052D01*
X148503922Y-144680731D01*
X148696949Y-144545573D01*
X148863573Y-144378949D01*
X148998731Y-144185922D01*
X149039094Y-144099365D01*
X149095995Y-143977340D01*
X149095996Y-143977338D01*
X149098318Y-143972358D01*
X149109154Y-143931919D01*
X149157882Y-143750060D01*
X149157882Y-143750059D01*
X149159306Y-143744745D01*
X149179844Y-143510000D01*
X149159306Y-143275255D01*
X149157882Y-143269940D01*
X149099741Y-143052952D01*
X149099740Y-143052950D01*
X149098318Y-143047642D01*
X149095995Y-143042660D01*
X149001054Y-142839059D01*
X149001052Y-142839056D01*
X148998731Y-142834078D01*
X148905218Y-142700526D01*
X170856050Y-142700526D01*
X170868947Y-142969019D01*
X170921388Y-143232656D01*
X171012220Y-143485646D01*
X171014432Y-143489762D01*
X171014433Y-143489765D01*
X171072617Y-143598050D01*
X171139450Y-143722431D01*
X171142241Y-143726168D01*
X171142245Y-143726175D01*
X171223887Y-143835506D01*
X171300281Y-143937810D01*
X171303590Y-143941090D01*
X171303595Y-143941096D01*
X171463252Y-144099365D01*
X171491180Y-144127050D01*
X171494942Y-144129808D01*
X171494945Y-144129811D01*
X171577615Y-144190427D01*
X171707954Y-144285995D01*
X171712089Y-144288171D01*
X171712093Y-144288173D01*
X171886942Y-144380166D01*
X171945840Y-144411154D01*
X172199613Y-144499775D01*
X172204206Y-144500647D01*
X172459109Y-144549042D01*
X172459112Y-144549042D01*
X172463698Y-144549913D01*
X172591370Y-144554929D01*
X172727625Y-144560283D01*
X172727630Y-144560283D01*
X172732293Y-144560466D01*
X172839438Y-144548732D01*
X172994844Y-144531713D01*
X172994850Y-144531712D01*
X172999497Y-144531203D01*
X173004021Y-144530012D01*
X173254918Y-144463956D01*
X173254920Y-144463955D01*
X173259441Y-144462765D01*
X173365664Y-144417128D01*
X173502120Y-144358502D01*
X173502122Y-144358501D01*
X173506414Y-144356657D01*
X173625071Y-144283230D01*
X173731017Y-144217669D01*
X173731021Y-144217666D01*
X173734990Y-144215210D01*
X173940149Y-144041530D01*
X174117382Y-143839434D01*
X174123771Y-143829502D01*
X174260269Y-143617291D01*
X174262797Y-143613361D01*
X174373199Y-143368278D01*
X174410209Y-143237051D01*
X174444893Y-143114072D01*
X174444894Y-143114069D01*
X174446163Y-143109568D01*
X174464154Y-142968153D01*
X174479688Y-142846045D01*
X174479688Y-142846041D01*
X174480086Y-142842915D01*
X174480182Y-142839278D01*
X174481963Y-142771226D01*
X174482571Y-142748000D01*
X174462650Y-142479937D01*
X174461619Y-142475379D01*
X174404361Y-142222331D01*
X174404360Y-142222326D01*
X174403327Y-142217763D01*
X174305902Y-141967238D01*
X174172518Y-141733864D01*
X174137396Y-141689311D01*
X174049069Y-141577269D01*
X174006105Y-141522769D01*
X173810317Y-141338591D01*
X173612263Y-141201195D01*
X173593299Y-141188039D01*
X173593296Y-141188037D01*
X173589457Y-141185374D01*
X173585264Y-141183306D01*
X173352564Y-141068551D01*
X173352561Y-141068550D01*
X173348376Y-141066486D01*
X173300745Y-141051239D01*
X173146812Y-141001965D01*
X173092370Y-140984538D01*
X173087763Y-140983788D01*
X173087760Y-140983787D01*
X172831674Y-140942081D01*
X172831675Y-140942081D01*
X172827063Y-140941330D01*
X172696719Y-140939624D01*
X172562961Y-140937873D01*
X172562958Y-140937873D01*
X172558284Y-140937812D01*
X172291937Y-140974060D01*
X172287451Y-140975368D01*
X172287449Y-140975368D01*
X172258565Y-140983787D01*
X172033874Y-141049278D01*
X171789763Y-141161815D01*
X171783066Y-141166206D01*
X171568881Y-141306631D01*
X171568876Y-141306635D01*
X171564968Y-141309197D01*
X171364426Y-141488188D01*
X171192544Y-141694854D01*
X171053096Y-141924656D01*
X171051287Y-141928970D01*
X171051285Y-141928974D01*
X171000505Y-142050072D01*
X170949148Y-142172545D01*
X170882981Y-142433077D01*
X170856050Y-142700526D01*
X148905218Y-142700526D01*
X148863573Y-142641051D01*
X148696949Y-142474427D01*
X148503922Y-142339269D01*
X148498944Y-142336948D01*
X148498941Y-142336946D01*
X148295340Y-142242005D01*
X148295338Y-142242004D01*
X148290358Y-142239682D01*
X148285050Y-142238260D01*
X148285048Y-142238259D01*
X148068060Y-142180118D01*
X148068059Y-142180118D01*
X148062745Y-142178694D01*
X147828000Y-142158156D01*
X147593255Y-142178694D01*
X147587941Y-142180118D01*
X147587940Y-142180118D01*
X147370952Y-142238259D01*
X147370950Y-142238260D01*
X147365642Y-142239682D01*
X147360662Y-142242004D01*
X147360660Y-142242005D01*
X147157059Y-142336946D01*
X147157056Y-142336948D01*
X147152078Y-142339269D01*
X146959051Y-142474427D01*
X146792427Y-142641051D01*
X146657269Y-142834078D01*
X146654948Y-142839056D01*
X146654946Y-142839059D01*
X146560005Y-143042660D01*
X146557682Y-143047642D01*
X146556260Y-143052950D01*
X146556259Y-143052952D01*
X146498118Y-143269940D01*
X146496694Y-143275255D01*
X146476156Y-143510000D01*
X126897504Y-143510000D01*
X126894481Y-143481242D01*
X126878232Y-143326635D01*
X126878232Y-143326633D01*
X126877542Y-143320072D01*
X126818527Y-143138444D01*
X126801856Y-143109568D01*
X126763226Y-143042660D01*
X126723040Y-142973056D01*
X126710662Y-142959309D01*
X126679946Y-142895303D01*
X126688710Y-142824850D01*
X126710661Y-142790693D01*
X126723040Y-142776944D01*
X126818527Y-142611556D01*
X126877542Y-142429928D01*
X126897504Y-142240000D01*
X126888902Y-142158156D01*
X126878232Y-142056635D01*
X126878232Y-142056633D01*
X126877542Y-142050072D01*
X126818527Y-141868444D01*
X126723040Y-141703056D01*
X126710662Y-141689309D01*
X126679946Y-141625303D01*
X126688710Y-141554850D01*
X126710661Y-141520693D01*
X126723040Y-141506944D01*
X126818527Y-141341556D01*
X126877542Y-141159928D01*
X126889310Y-141047967D01*
X126896814Y-140976565D01*
X126897504Y-140970000D01*
X146152496Y-140970000D01*
X146153186Y-140976565D01*
X146160691Y-141047967D01*
X146172458Y-141159928D01*
X146231473Y-141341556D01*
X146326960Y-141506944D01*
X146331375Y-141511847D01*
X146331379Y-141511852D01*
X146449956Y-141643545D01*
X146454747Y-141648866D01*
X146523540Y-141698847D01*
X146577322Y-141737922D01*
X146609248Y-141761118D01*
X146615276Y-141763802D01*
X146615278Y-141763803D01*
X146672328Y-141789203D01*
X146783712Y-141838794D01*
X146877112Y-141858647D01*
X146964056Y-141877128D01*
X146964061Y-141877128D01*
X146970513Y-141878500D01*
X147161487Y-141878500D01*
X147167939Y-141877128D01*
X147167944Y-141877128D01*
X147254888Y-141858647D01*
X147348288Y-141838794D01*
X147459672Y-141789203D01*
X147516722Y-141763803D01*
X147516724Y-141763802D01*
X147522752Y-141761118D01*
X147554679Y-141737922D01*
X147608460Y-141698847D01*
X147677253Y-141648866D01*
X147682044Y-141643545D01*
X147800621Y-141511852D01*
X147800625Y-141511847D01*
X147805040Y-141506944D01*
X147900527Y-141341556D01*
X147959542Y-141159928D01*
X147971310Y-141047967D01*
X147976835Y-140995400D01*
X149962496Y-140995400D01*
X149963186Y-141001965D01*
X149979099Y-141153365D01*
X149982458Y-141185328D01*
X150041473Y-141366956D01*
X150136960Y-141532344D01*
X150141378Y-141537251D01*
X150141379Y-141537252D01*
X150233201Y-141639231D01*
X150264747Y-141674266D01*
X150290988Y-141693331D01*
X150387984Y-141763803D01*
X150419248Y-141786518D01*
X150425276Y-141789202D01*
X150425278Y-141789203D01*
X150536662Y-141838794D01*
X150593712Y-141864194D01*
X150687112Y-141884047D01*
X150774056Y-141902528D01*
X150774061Y-141902528D01*
X150780513Y-141903900D01*
X150971487Y-141903900D01*
X150977939Y-141902528D01*
X150977944Y-141902528D01*
X151064888Y-141884047D01*
X151158288Y-141864194D01*
X151215338Y-141838794D01*
X151326722Y-141789203D01*
X151326724Y-141789202D01*
X151332752Y-141786518D01*
X151364017Y-141763803D01*
X151461012Y-141693331D01*
X151487253Y-141674266D01*
X151518799Y-141639231D01*
X151610621Y-141537252D01*
X151610622Y-141537251D01*
X151615040Y-141532344D01*
X151710527Y-141366956D01*
X151769542Y-141185328D01*
X151772902Y-141153365D01*
X151788814Y-141001965D01*
X151789504Y-140995400D01*
X151769542Y-140805472D01*
X151710527Y-140623844D01*
X151615040Y-140458456D01*
X151570341Y-140408812D01*
X151491675Y-140321445D01*
X151491674Y-140321444D01*
X151487253Y-140316534D01*
X151332752Y-140204282D01*
X151326724Y-140201598D01*
X151326722Y-140201597D01*
X151164319Y-140129291D01*
X151164318Y-140129291D01*
X151158288Y-140126606D01*
X151051423Y-140103891D01*
X150977944Y-140088272D01*
X150977939Y-140088272D01*
X150971487Y-140086900D01*
X150780513Y-140086900D01*
X150774061Y-140088272D01*
X150774056Y-140088272D01*
X150700577Y-140103891D01*
X150593712Y-140126606D01*
X150587682Y-140129291D01*
X150587681Y-140129291D01*
X150425278Y-140201597D01*
X150425276Y-140201598D01*
X150419248Y-140204282D01*
X150264747Y-140316534D01*
X150260326Y-140321444D01*
X150260325Y-140321445D01*
X150181660Y-140408812D01*
X150136960Y-140458456D01*
X150041473Y-140623844D01*
X149982458Y-140805472D01*
X149962496Y-140995400D01*
X147976835Y-140995400D01*
X147978814Y-140976565D01*
X147979504Y-140970000D01*
X147976121Y-140937812D01*
X147960232Y-140786635D01*
X147960232Y-140786633D01*
X147959542Y-140780072D01*
X147900527Y-140598444D01*
X147805040Y-140433056D01*
X147787055Y-140413081D01*
X147681675Y-140296045D01*
X147681674Y-140296044D01*
X147677253Y-140291134D01*
X147557712Y-140204282D01*
X147528094Y-140182763D01*
X147528093Y-140182762D01*
X147522752Y-140178882D01*
X147516724Y-140176198D01*
X147516722Y-140176197D01*
X147354319Y-140103891D01*
X147354318Y-140103891D01*
X147348288Y-140101206D01*
X147235721Y-140077279D01*
X147167944Y-140062872D01*
X147167939Y-140062872D01*
X147161487Y-140061500D01*
X146970513Y-140061500D01*
X146964061Y-140062872D01*
X146964056Y-140062872D01*
X146896279Y-140077279D01*
X146783712Y-140101206D01*
X146777682Y-140103891D01*
X146777681Y-140103891D01*
X146615278Y-140176197D01*
X146615276Y-140176198D01*
X146609248Y-140178882D01*
X146603907Y-140182762D01*
X146603906Y-140182763D01*
X146574288Y-140204282D01*
X146454747Y-140291134D01*
X146450326Y-140296044D01*
X146450325Y-140296045D01*
X146344946Y-140413081D01*
X146326960Y-140433056D01*
X146231473Y-140598444D01*
X146172458Y-140780072D01*
X146171768Y-140786633D01*
X146171768Y-140786635D01*
X146155879Y-140937812D01*
X146152496Y-140970000D01*
X126897504Y-140970000D01*
X126894121Y-140937812D01*
X126878232Y-140786635D01*
X126878232Y-140786633D01*
X126877542Y-140780072D01*
X126818527Y-140598444D01*
X126723040Y-140433056D01*
X126710662Y-140419309D01*
X126679946Y-140355303D01*
X126688710Y-140284850D01*
X126710661Y-140250693D01*
X126723040Y-140236944D01*
X126818527Y-140071556D01*
X126877542Y-139889928D01*
X126897504Y-139700000D01*
X126896814Y-139693435D01*
X126878232Y-139516635D01*
X126878232Y-139516633D01*
X126877542Y-139510072D01*
X126818527Y-139328444D01*
X126728735Y-139172920D01*
X137055075Y-139172920D01*
X137057858Y-139176638D01*
X137195900Y-139227975D01*
X137209491Y-139231364D01*
X137361308Y-139251621D01*
X137375304Y-139251914D01*
X137527831Y-139238033D01*
X137541555Y-139235216D01*
X137687219Y-139187887D01*
X137699969Y-139182103D01*
X137701799Y-139181012D01*
X137709302Y-139172920D01*
X138580075Y-139172920D01*
X138582858Y-139176638D01*
X138720900Y-139227975D01*
X138734491Y-139231364D01*
X138886308Y-139251621D01*
X138900304Y-139251914D01*
X139052831Y-139238033D01*
X139066555Y-139235216D01*
X139212219Y-139187887D01*
X139224969Y-139182103D01*
X139226799Y-139181012D01*
X139236387Y-139170671D01*
X139232881Y-139162257D01*
X138921812Y-138851188D01*
X138907868Y-138843574D01*
X138906033Y-138843705D01*
X138899423Y-138847953D01*
X138586834Y-139160541D01*
X138580075Y-139172920D01*
X137709302Y-139172920D01*
X137711387Y-139170671D01*
X137707881Y-139162257D01*
X137396812Y-138851188D01*
X137382868Y-138843574D01*
X137381033Y-138843705D01*
X137374423Y-138847953D01*
X137061834Y-139160541D01*
X137055075Y-139172920D01*
X126728735Y-139172920D01*
X126723040Y-139163056D01*
X126700182Y-139137669D01*
X126599675Y-139026045D01*
X126599674Y-139026044D01*
X126595253Y-139021134D01*
X126459087Y-138922203D01*
X126446094Y-138912763D01*
X126446093Y-138912762D01*
X126440752Y-138908882D01*
X126434724Y-138906198D01*
X126434722Y-138906197D01*
X126272319Y-138833891D01*
X126272318Y-138833891D01*
X126266288Y-138831206D01*
X126153721Y-138807279D01*
X126085944Y-138792872D01*
X126085939Y-138792872D01*
X126079487Y-138791500D01*
X125888513Y-138791500D01*
X125882061Y-138792872D01*
X125882056Y-138792872D01*
X125814279Y-138807279D01*
X125701712Y-138831206D01*
X125695682Y-138833891D01*
X125695681Y-138833891D01*
X125533278Y-138906197D01*
X125533276Y-138906198D01*
X125527248Y-138908882D01*
X125521907Y-138912762D01*
X125521906Y-138912763D01*
X125508913Y-138922203D01*
X125372747Y-139021134D01*
X125368326Y-139026044D01*
X125368325Y-139026045D01*
X125267819Y-139137669D01*
X125244960Y-139163056D01*
X125149473Y-139328444D01*
X125090458Y-139510072D01*
X125089768Y-139516633D01*
X125089768Y-139516635D01*
X125071186Y-139693435D01*
X125070496Y-139700000D01*
X125090458Y-139889928D01*
X125149473Y-140071556D01*
X125244960Y-140236944D01*
X125257338Y-140250691D01*
X125288054Y-140314697D01*
X125279290Y-140385150D01*
X125257339Y-140419307D01*
X125244960Y-140433056D01*
X125149473Y-140598444D01*
X125090458Y-140780072D01*
X125089768Y-140786633D01*
X125089768Y-140786635D01*
X125073879Y-140937812D01*
X125070496Y-140970000D01*
X125071186Y-140976565D01*
X125078691Y-141047967D01*
X125090458Y-141159928D01*
X125149473Y-141341556D01*
X125244960Y-141506944D01*
X125257338Y-141520691D01*
X125288054Y-141584697D01*
X125279290Y-141655150D01*
X125257339Y-141689307D01*
X125244960Y-141703056D01*
X125149473Y-141868444D01*
X125090458Y-142050072D01*
X125089768Y-142056633D01*
X125089768Y-142056635D01*
X125079098Y-142158156D01*
X125070496Y-142240000D01*
X125090458Y-142429928D01*
X125149473Y-142611556D01*
X125244960Y-142776944D01*
X125257338Y-142790691D01*
X125288054Y-142854697D01*
X125279290Y-142925150D01*
X125257339Y-142959307D01*
X125244960Y-142973056D01*
X125204774Y-143042660D01*
X125166145Y-143109568D01*
X125149473Y-143138444D01*
X125090458Y-143320072D01*
X125089768Y-143326633D01*
X125089768Y-143326635D01*
X125073519Y-143481242D01*
X125070496Y-143510000D01*
X103980459Y-143510000D01*
X104040731Y-143423922D01*
X104066679Y-143368278D01*
X104137995Y-143215340D01*
X104137996Y-143215338D01*
X104140318Y-143210358D01*
X104143851Y-143197175D01*
X104199882Y-142988060D01*
X104199882Y-142988059D01*
X104201306Y-142982745D01*
X104221844Y-142748000D01*
X104201306Y-142513255D01*
X104180661Y-142436206D01*
X104141741Y-142290952D01*
X104141740Y-142290950D01*
X104140318Y-142285642D01*
X104119035Y-142240000D01*
X104043054Y-142077059D01*
X104043052Y-142077056D01*
X104040731Y-142072078D01*
X103905573Y-141879051D01*
X103738949Y-141712427D01*
X103545922Y-141577269D01*
X103540944Y-141574948D01*
X103540941Y-141574946D01*
X103337340Y-141480005D01*
X103337338Y-141480004D01*
X103332358Y-141477682D01*
X103327050Y-141476260D01*
X103327048Y-141476259D01*
X103110060Y-141418118D01*
X103110059Y-141418118D01*
X103104745Y-141416694D01*
X102870000Y-141396156D01*
X102635255Y-141416694D01*
X102629941Y-141418118D01*
X102629940Y-141418118D01*
X102412952Y-141476259D01*
X102412950Y-141476260D01*
X102407642Y-141477682D01*
X102402662Y-141480004D01*
X102402660Y-141480005D01*
X102199059Y-141574946D01*
X102199056Y-141574948D01*
X102194078Y-141577269D01*
X102001051Y-141712427D01*
X101834427Y-141879051D01*
X101699269Y-142072078D01*
X101696948Y-142077056D01*
X101696946Y-142077059D01*
X101620965Y-142240000D01*
X101599682Y-142285642D01*
X101598260Y-142290950D01*
X101598259Y-142290952D01*
X101559339Y-142436206D01*
X101538694Y-142513255D01*
X101518156Y-142748000D01*
X96553442Y-142748000D01*
X96565514Y-142705197D01*
X96599393Y-142585072D01*
X96599394Y-142585069D01*
X96600663Y-142580568D01*
X96619028Y-142436206D01*
X96634188Y-142317045D01*
X96634188Y-142317041D01*
X96634586Y-142313915D01*
X96637071Y-142219000D01*
X96636655Y-142213402D01*
X96617496Y-141955592D01*
X96617496Y-141955591D01*
X96617150Y-141950937D01*
X96616119Y-141946379D01*
X96558861Y-141693331D01*
X96558860Y-141693326D01*
X96557827Y-141688763D01*
X96460402Y-141438238D01*
X96327018Y-141204864D01*
X96316567Y-141191606D01*
X96205910Y-141051239D01*
X96160605Y-140993769D01*
X95964817Y-140809591D01*
X95743957Y-140656374D01*
X95739764Y-140654306D01*
X95507064Y-140539551D01*
X95507061Y-140539550D01*
X95502876Y-140537486D01*
X95455245Y-140522239D01*
X95401121Y-140504914D01*
X95246870Y-140455538D01*
X95242263Y-140454788D01*
X95242260Y-140454787D01*
X94986174Y-140413081D01*
X94986175Y-140413081D01*
X94981563Y-140412330D01*
X94851219Y-140410624D01*
X94717461Y-140408873D01*
X94717458Y-140408873D01*
X94712784Y-140408812D01*
X94446437Y-140445060D01*
X94188374Y-140520278D01*
X93944263Y-140632815D01*
X93940354Y-140635378D01*
X93723381Y-140777631D01*
X93723376Y-140777635D01*
X93719468Y-140780197D01*
X93715976Y-140783314D01*
X93538093Y-140942081D01*
X93518926Y-140959188D01*
X93347044Y-141165854D01*
X93344621Y-141169847D01*
X93228826Y-141360671D01*
X93207596Y-141395656D01*
X93205787Y-141399970D01*
X93205785Y-141399974D01*
X93154293Y-141522769D01*
X93103648Y-141643545D01*
X93037481Y-141904077D01*
X93010550Y-142171526D01*
X87704500Y-142171526D01*
X87704500Y-137091526D01*
X93010550Y-137091526D01*
X93010774Y-137096192D01*
X93010774Y-137096197D01*
X93012679Y-137135851D01*
X93023447Y-137360019D01*
X93075888Y-137623656D01*
X93166720Y-137876646D01*
X93168932Y-137880762D01*
X93168933Y-137880765D01*
X93237456Y-138008291D01*
X93293950Y-138113431D01*
X93296741Y-138117168D01*
X93296745Y-138117175D01*
X93378387Y-138226506D01*
X93454781Y-138328810D01*
X93458090Y-138332090D01*
X93458095Y-138332096D01*
X93642363Y-138514762D01*
X93645680Y-138518050D01*
X93649442Y-138520808D01*
X93649445Y-138520811D01*
X93858683Y-138674230D01*
X93862454Y-138676995D01*
X93866589Y-138679171D01*
X93866593Y-138679173D01*
X94096198Y-138799975D01*
X94100340Y-138802154D01*
X94354113Y-138890775D01*
X94358706Y-138891647D01*
X94613609Y-138940042D01*
X94613612Y-138940042D01*
X94618198Y-138940913D01*
X94745870Y-138945929D01*
X94882125Y-138951283D01*
X94882130Y-138951283D01*
X94886793Y-138951466D01*
X94991107Y-138940042D01*
X95149344Y-138922713D01*
X95149350Y-138922712D01*
X95153997Y-138922203D01*
X95158521Y-138921012D01*
X95409418Y-138854956D01*
X95409420Y-138854955D01*
X95413941Y-138853765D01*
X95427469Y-138847953D01*
X95656620Y-138749502D01*
X95656622Y-138749501D01*
X95660914Y-138747657D01*
X95763783Y-138684000D01*
X95885517Y-138608669D01*
X95885521Y-138608666D01*
X95889490Y-138606210D01*
X96094649Y-138432530D01*
X96114039Y-138410420D01*
X136292575Y-138410420D01*
X136295358Y-138414138D01*
X136433400Y-138465475D01*
X136446991Y-138468864D01*
X136535042Y-138480612D01*
X136599919Y-138509447D01*
X136638907Y-138568780D01*
X136643777Y-138593209D01*
X136649490Y-138651471D01*
X136652401Y-138665164D01*
X136700746Y-138810493D01*
X136705713Y-138821243D01*
X136715488Y-138830180D01*
X136724107Y-138826518D01*
X137035316Y-138515308D01*
X137041693Y-138503629D01*
X137725074Y-138503629D01*
X137725205Y-138505467D01*
X137729455Y-138512079D01*
X138041622Y-138824247D01*
X138054001Y-138831006D01*
X138073506Y-138816405D01*
X138140027Y-138791594D01*
X138209401Y-138806686D01*
X138234033Y-138824279D01*
X138240488Y-138830180D01*
X138249107Y-138826518D01*
X138560316Y-138515308D01*
X138566693Y-138503629D01*
X139250074Y-138503629D01*
X139250205Y-138505467D01*
X139254455Y-138512079D01*
X139566622Y-138824247D01*
X139579001Y-138831006D01*
X139582817Y-138828149D01*
X139633146Y-138695657D01*
X139636628Y-138682096D01*
X139649821Y-138588224D01*
X139679109Y-138523550D01*
X139738713Y-138484977D01*
X139763176Y-138480278D01*
X139815340Y-138475531D01*
X139829055Y-138472716D01*
X139960522Y-138430000D01*
X146152496Y-138430000D01*
X146153186Y-138436565D01*
X146171275Y-138608669D01*
X146172458Y-138619928D01*
X146231473Y-138801556D01*
X146234776Y-138807278D01*
X146234777Y-138807279D01*
X146268686Y-138866010D01*
X146326960Y-138966944D01*
X146331378Y-138971851D01*
X146331379Y-138971852D01*
X146450325Y-139103955D01*
X146454747Y-139108866D01*
X146609248Y-139221118D01*
X146615276Y-139223802D01*
X146615278Y-139223803D01*
X146677759Y-139251621D01*
X146783712Y-139298794D01*
X146877112Y-139318647D01*
X146964056Y-139337128D01*
X146964061Y-139337128D01*
X146970513Y-139338500D01*
X147161487Y-139338500D01*
X147167939Y-139337128D01*
X147167944Y-139337128D01*
X147254888Y-139318647D01*
X147348288Y-139298794D01*
X147454241Y-139251621D01*
X147516722Y-139223803D01*
X147516724Y-139223802D01*
X147522752Y-139221118D01*
X147677253Y-139108866D01*
X147788078Y-138985783D01*
X147848523Y-138948544D01*
X147919507Y-138949896D01*
X147978491Y-138989410D01*
X148001545Y-139031156D01*
X148009473Y-139055556D01*
X148012776Y-139061278D01*
X148012777Y-139061279D01*
X148040252Y-139108866D01*
X148104960Y-139220944D01*
X148109378Y-139225851D01*
X148109379Y-139225852D01*
X148132845Y-139251914D01*
X148232747Y-139362866D01*
X148387248Y-139475118D01*
X148393276Y-139477802D01*
X148393278Y-139477803D01*
X148465756Y-139510072D01*
X148561712Y-139552794D01*
X148655113Y-139572647D01*
X148742056Y-139591128D01*
X148742061Y-139591128D01*
X148748513Y-139592500D01*
X148939487Y-139592500D01*
X148945939Y-139591128D01*
X148945944Y-139591128D01*
X149032887Y-139572647D01*
X149126288Y-139552794D01*
X149222244Y-139510072D01*
X149294722Y-139477803D01*
X149294724Y-139477802D01*
X149300752Y-139475118D01*
X149455253Y-139362866D01*
X149555155Y-139251914D01*
X149578621Y-139225852D01*
X149578622Y-139225851D01*
X149583040Y-139220944D01*
X149647748Y-139108866D01*
X149675223Y-139061279D01*
X149675224Y-139061278D01*
X149678527Y-139055556D01*
X149737542Y-138873928D01*
X149742177Y-138829834D01*
X149756814Y-138690565D01*
X149757504Y-138684000D01*
X149754085Y-138651471D01*
X149738232Y-138500635D01*
X149738232Y-138500633D01*
X149737542Y-138494072D01*
X149678527Y-138312444D01*
X149583040Y-138147056D01*
X149554180Y-138115003D01*
X149459675Y-138010045D01*
X149459671Y-138010041D01*
X149455253Y-138005134D01*
X149300752Y-137892882D01*
X149294724Y-137890198D01*
X149294722Y-137890197D01*
X149132319Y-137817891D01*
X149132318Y-137817891D01*
X149126288Y-137815206D01*
X149031227Y-137795000D01*
X148945944Y-137776872D01*
X148945939Y-137776872D01*
X148939487Y-137775500D01*
X148748513Y-137775500D01*
X148742061Y-137776872D01*
X148742056Y-137776872D01*
X148656773Y-137795000D01*
X148561712Y-137815206D01*
X148555682Y-137817891D01*
X148555681Y-137817891D01*
X148393278Y-137890197D01*
X148393276Y-137890198D01*
X148387248Y-137892882D01*
X148232747Y-138005134D01*
X148121923Y-138128217D01*
X148061477Y-138165456D01*
X147990493Y-138164104D01*
X147931509Y-138124590D01*
X147908455Y-138082844D01*
X147900527Y-138058444D01*
X147883856Y-138029568D01*
X147808341Y-137898774D01*
X147805040Y-137893056D01*
X147792662Y-137879309D01*
X147761946Y-137815303D01*
X147770710Y-137744850D01*
X147792661Y-137710693D01*
X147805040Y-137696944D01*
X147849160Y-137620526D01*
X170856050Y-137620526D01*
X170856274Y-137625192D01*
X170856274Y-137625197D01*
X170861646Y-137737033D01*
X170868947Y-137889019D01*
X170921388Y-138152656D01*
X171012220Y-138405646D01*
X171014432Y-138409762D01*
X171014433Y-138409765D01*
X171078555Y-138529100D01*
X171139450Y-138642431D01*
X171142241Y-138646168D01*
X171142245Y-138646175D01*
X171223887Y-138755506D01*
X171300281Y-138857810D01*
X171303590Y-138861090D01*
X171303595Y-138861096D01*
X171487863Y-139043762D01*
X171491180Y-139047050D01*
X171494942Y-139049808D01*
X171494945Y-139049811D01*
X171580782Y-139112749D01*
X171707954Y-139205995D01*
X171712089Y-139208171D01*
X171712093Y-139208173D01*
X171940689Y-139328444D01*
X171945840Y-139331154D01*
X172199613Y-139419775D01*
X172204206Y-139420647D01*
X172459109Y-139469042D01*
X172459112Y-139469042D01*
X172463698Y-139469913D01*
X172591370Y-139474929D01*
X172727625Y-139480283D01*
X172727630Y-139480283D01*
X172732293Y-139480466D01*
X172836607Y-139469042D01*
X172994844Y-139451713D01*
X172994850Y-139451712D01*
X172999497Y-139451203D01*
X173004021Y-139450012D01*
X173254918Y-139383956D01*
X173254920Y-139383955D01*
X173259441Y-139382765D01*
X173263738Y-139380919D01*
X173502120Y-139278502D01*
X173502122Y-139278501D01*
X173506414Y-139276657D01*
X173668043Y-139176638D01*
X173731017Y-139137669D01*
X173731021Y-139137666D01*
X173734990Y-139135210D01*
X173940149Y-138961530D01*
X174117382Y-138759434D01*
X174123771Y-138749502D01*
X174260269Y-138537291D01*
X174262797Y-138533361D01*
X174373199Y-138288278D01*
X174390621Y-138226506D01*
X174444893Y-138034072D01*
X174444894Y-138034069D01*
X174446163Y-138029568D01*
X174460153Y-137919596D01*
X174479688Y-137766045D01*
X174479688Y-137766041D01*
X174480086Y-137762915D01*
X174480182Y-137759278D01*
X174482488Y-137671160D01*
X174482571Y-137668000D01*
X174462650Y-137399937D01*
X174461619Y-137395379D01*
X174404361Y-137142331D01*
X174404360Y-137142326D01*
X174403327Y-137137763D01*
X174305902Y-136887238D01*
X174172518Y-136653864D01*
X174136964Y-136608763D01*
X174069348Y-136522993D01*
X174006105Y-136442769D01*
X173810317Y-136258591D01*
X173589457Y-136105374D01*
X173585264Y-136103306D01*
X173352564Y-135988551D01*
X173352561Y-135988550D01*
X173348376Y-135986486D01*
X173300745Y-135971239D01*
X173246621Y-135953914D01*
X173092370Y-135904538D01*
X173087763Y-135903788D01*
X173087760Y-135903787D01*
X172857672Y-135866315D01*
X172827063Y-135861330D01*
X172696719Y-135859624D01*
X172562961Y-135857873D01*
X172562958Y-135857873D01*
X172558284Y-135857812D01*
X172291937Y-135894060D01*
X172287451Y-135895368D01*
X172287449Y-135895368D01*
X172258565Y-135903787D01*
X172033874Y-135969278D01*
X171789763Y-136081815D01*
X171777512Y-136089847D01*
X171568881Y-136226631D01*
X171568876Y-136226635D01*
X171564968Y-136229197D01*
X171537035Y-136254128D01*
X171379655Y-136394596D01*
X171364426Y-136408188D01*
X171192544Y-136614854D01*
X171053096Y-136844656D01*
X171051287Y-136848970D01*
X171051285Y-136848974D01*
X170967020Y-137049925D01*
X170949148Y-137092545D01*
X170882981Y-137353077D01*
X170856050Y-137620526D01*
X147849160Y-137620526D01*
X147879984Y-137567137D01*
X147897223Y-137537279D01*
X147897224Y-137537278D01*
X147900527Y-137531556D01*
X147959542Y-137349928D01*
X147962038Y-137326185D01*
X147978814Y-137166565D01*
X147979504Y-137160000D01*
X147966934Y-137040399D01*
X147960232Y-136976635D01*
X147960232Y-136976633D01*
X147959542Y-136970072D01*
X147900527Y-136788444D01*
X147805040Y-136623056D01*
X147730841Y-136540649D01*
X147681675Y-136486045D01*
X147681674Y-136486044D01*
X147677253Y-136481134D01*
X147558144Y-136394596D01*
X147528094Y-136372763D01*
X147528093Y-136372762D01*
X147522752Y-136368882D01*
X147516724Y-136366198D01*
X147516722Y-136366197D01*
X147354319Y-136293891D01*
X147354318Y-136293891D01*
X147348288Y-136291206D01*
X147254888Y-136271353D01*
X147167944Y-136252872D01*
X147167939Y-136252872D01*
X147161487Y-136251500D01*
X146970513Y-136251500D01*
X146964061Y-136252872D01*
X146964056Y-136252872D01*
X146877112Y-136271353D01*
X146783712Y-136291206D01*
X146777682Y-136293891D01*
X146777681Y-136293891D01*
X146615278Y-136366197D01*
X146615276Y-136366198D01*
X146609248Y-136368882D01*
X146603907Y-136372762D01*
X146603906Y-136372763D01*
X146573856Y-136394596D01*
X146454747Y-136481134D01*
X146450326Y-136486044D01*
X146450325Y-136486045D01*
X146401160Y-136540649D01*
X146326960Y-136623056D01*
X146231473Y-136788444D01*
X146172458Y-136970072D01*
X146171768Y-136976633D01*
X146171768Y-136976635D01*
X146165066Y-137040399D01*
X146152496Y-137160000D01*
X146153186Y-137166565D01*
X146169963Y-137326185D01*
X146172458Y-137349928D01*
X146231473Y-137531556D01*
X146234776Y-137537278D01*
X146234777Y-137537279D01*
X146252016Y-137567137D01*
X146326960Y-137696944D01*
X146339338Y-137710691D01*
X146370054Y-137774697D01*
X146361290Y-137845150D01*
X146339339Y-137879307D01*
X146326960Y-137893056D01*
X146323659Y-137898774D01*
X146248145Y-138029568D01*
X146231473Y-138058444D01*
X146172458Y-138240072D01*
X146152496Y-138430000D01*
X139960522Y-138430000D01*
X139974719Y-138425387D01*
X139987469Y-138419603D01*
X139989299Y-138418512D01*
X139998887Y-138408171D01*
X139995381Y-138399757D01*
X139684312Y-138088688D01*
X139670368Y-138081074D01*
X139668533Y-138081205D01*
X139661923Y-138085453D01*
X139284005Y-138463370D01*
X139284003Y-138463372D01*
X139257685Y-138489691D01*
X139250074Y-138503629D01*
X138566693Y-138503629D01*
X138567927Y-138501370D01*
X138567795Y-138499534D01*
X138563546Y-138492922D01*
X138185630Y-138115005D01*
X138185628Y-138115003D01*
X138159309Y-138088685D01*
X138145371Y-138081074D01*
X138143533Y-138081205D01*
X138136921Y-138085455D01*
X137759005Y-138463370D01*
X137759003Y-138463372D01*
X137732685Y-138489691D01*
X137725074Y-138503629D01*
X137041693Y-138503629D01*
X137042927Y-138501370D01*
X137042795Y-138499534D01*
X137038546Y-138492922D01*
X136660630Y-138115005D01*
X136660628Y-138115003D01*
X136634309Y-138088685D01*
X136620371Y-138081074D01*
X136618533Y-138081205D01*
X136611921Y-138085455D01*
X136299334Y-138398041D01*
X136292575Y-138410420D01*
X96114039Y-138410420D01*
X96271882Y-138230434D01*
X96313678Y-138165456D01*
X96401083Y-138029568D01*
X96417297Y-138004361D01*
X96527699Y-137759278D01*
X96532299Y-137742968D01*
X96534113Y-137736537D01*
X135872044Y-137736537D01*
X135886990Y-137888970D01*
X135889901Y-137902664D01*
X135938246Y-138047993D01*
X135943213Y-138058743D01*
X135952988Y-138067680D01*
X135961607Y-138064018D01*
X136272816Y-137752808D01*
X136279193Y-137741129D01*
X136962574Y-137741129D01*
X136962705Y-137742968D01*
X136966953Y-137749577D01*
X136996505Y-137779130D01*
X136996504Y-137779130D01*
X136996505Y-137779131D01*
X137371190Y-138153815D01*
X137385130Y-138161427D01*
X137386966Y-138161295D01*
X137393578Y-138157046D01*
X137771495Y-137779130D01*
X137771497Y-137779128D01*
X137797815Y-137752809D01*
X137804193Y-137741129D01*
X138487574Y-137741129D01*
X138487705Y-137742968D01*
X138491953Y-137749577D01*
X138521505Y-137779130D01*
X138521504Y-137779130D01*
X138521505Y-137779131D01*
X138896190Y-138153815D01*
X138910130Y-138161427D01*
X138911966Y-138161295D01*
X138918578Y-138157046D01*
X139296495Y-137779130D01*
X139296497Y-137779128D01*
X139322815Y-137752809D01*
X139329192Y-137741130D01*
X140012573Y-137741130D01*
X140012705Y-137742966D01*
X140016954Y-137749578D01*
X140329122Y-138061747D01*
X140341501Y-138068506D01*
X140345317Y-138065649D01*
X140395646Y-137933157D01*
X140399128Y-137919596D01*
X140420874Y-137764869D01*
X140421480Y-137756987D01*
X140421662Y-137743947D01*
X140421277Y-137736077D01*
X140403859Y-137580790D01*
X140400757Y-137567137D01*
X140350389Y-137422500D01*
X140348476Y-137418509D01*
X140340771Y-137411659D01*
X140331720Y-137415655D01*
X140020184Y-137727192D01*
X140012573Y-137741130D01*
X139329192Y-137741130D01*
X139330426Y-137738871D01*
X139330295Y-137737033D01*
X139326045Y-137730421D01*
X138948130Y-137352505D01*
X138948128Y-137352503D01*
X138921809Y-137326185D01*
X138907871Y-137318574D01*
X138906033Y-137318705D01*
X138899421Y-137322955D01*
X138521505Y-137700870D01*
X138521503Y-137700872D01*
X138495185Y-137727191D01*
X138487574Y-137741129D01*
X137804193Y-137741129D01*
X137805426Y-137738871D01*
X137805295Y-137737033D01*
X137801045Y-137730421D01*
X137423130Y-137352505D01*
X137423128Y-137352503D01*
X137396809Y-137326185D01*
X137382871Y-137318574D01*
X137381033Y-137318705D01*
X137374421Y-137322955D01*
X136996505Y-137700870D01*
X136996503Y-137700872D01*
X136970185Y-137727191D01*
X136962574Y-137741129D01*
X136279193Y-137741129D01*
X136280427Y-137738870D01*
X136280295Y-137737034D01*
X136276046Y-137730422D01*
X135963325Y-137417701D01*
X135950945Y-137410941D01*
X135946731Y-137414096D01*
X135894727Y-137556973D01*
X135891435Y-137570581D01*
X135872240Y-137722531D01*
X135872044Y-137736537D01*
X96534113Y-137736537D01*
X96599393Y-137505072D01*
X96599394Y-137505069D01*
X96600663Y-137500568D01*
X96619028Y-137356206D01*
X96634188Y-137237045D01*
X96634188Y-137237041D01*
X96634586Y-137233915D01*
X96637071Y-137139000D01*
X96618685Y-136891592D01*
X96618226Y-136885420D01*
X136292575Y-136885420D01*
X136306862Y-136904505D01*
X136331673Y-136971025D01*
X136316582Y-137040399D01*
X136299575Y-137064386D01*
X136293503Y-137071121D01*
X136297327Y-137079951D01*
X136608688Y-137391312D01*
X136622632Y-137398926D01*
X136624467Y-137398795D01*
X136631077Y-137394547D01*
X137008995Y-137016630D01*
X137008997Y-137016628D01*
X137035315Y-136990309D01*
X137041693Y-136978629D01*
X137725074Y-136978629D01*
X137725205Y-136980468D01*
X137729453Y-136987077D01*
X137759005Y-137016630D01*
X137759004Y-137016630D01*
X137759005Y-137016631D01*
X138133690Y-137391315D01*
X138147630Y-137398927D01*
X138149466Y-137398795D01*
X138156078Y-137394546D01*
X138533995Y-137016630D01*
X138533997Y-137016628D01*
X138560315Y-136990309D01*
X138566693Y-136978629D01*
X139250074Y-136978629D01*
X139250205Y-136980468D01*
X139254453Y-136987077D01*
X139284005Y-137016630D01*
X139284004Y-137016630D01*
X139284005Y-137016631D01*
X139658690Y-137391315D01*
X139672630Y-137398927D01*
X139674466Y-137398795D01*
X139681078Y-137394546D01*
X139993400Y-137082225D01*
X140000159Y-137069847D01*
X139985245Y-137049925D01*
X139960434Y-136983405D01*
X139975525Y-136914030D01*
X139993718Y-136888746D01*
X139998887Y-136883171D01*
X139995381Y-136874757D01*
X139684312Y-136563688D01*
X139670368Y-136556074D01*
X139668533Y-136556205D01*
X139661923Y-136560453D01*
X139284005Y-136938370D01*
X139284003Y-136938372D01*
X139257685Y-136964691D01*
X139250074Y-136978629D01*
X138566693Y-136978629D01*
X138567926Y-136976371D01*
X138567795Y-136974533D01*
X138563545Y-136967921D01*
X138185630Y-136590005D01*
X138185628Y-136590003D01*
X138159309Y-136563685D01*
X138145371Y-136556074D01*
X138143533Y-136556205D01*
X138136921Y-136560455D01*
X137759005Y-136938370D01*
X137759003Y-136938372D01*
X137732685Y-136964691D01*
X137725074Y-136978629D01*
X137041693Y-136978629D01*
X137042926Y-136976371D01*
X137042795Y-136974533D01*
X137038545Y-136967921D01*
X136660630Y-136590005D01*
X136660628Y-136590003D01*
X136634309Y-136563685D01*
X136620371Y-136556074D01*
X136618533Y-136556205D01*
X136611921Y-136560455D01*
X136299334Y-136873041D01*
X136292575Y-136885420D01*
X96618226Y-136885420D01*
X96617496Y-136875592D01*
X96617496Y-136875591D01*
X96617150Y-136870937D01*
X96616119Y-136866379D01*
X96558861Y-136613331D01*
X96558860Y-136613326D01*
X96557827Y-136608763D01*
X96460402Y-136358238D01*
X96376556Y-136211537D01*
X135872044Y-136211537D01*
X135886990Y-136363970D01*
X135889901Y-136377664D01*
X135938246Y-136522993D01*
X135943213Y-136533743D01*
X135952988Y-136542680D01*
X135961607Y-136539018D01*
X136272816Y-136227808D01*
X136279193Y-136216129D01*
X136962574Y-136216129D01*
X136962705Y-136217968D01*
X136966953Y-136224577D01*
X136996505Y-136254130D01*
X136996504Y-136254130D01*
X136996505Y-136254131D01*
X137371190Y-136628815D01*
X137385130Y-136636427D01*
X137386966Y-136636295D01*
X137393578Y-136632046D01*
X137771495Y-136254130D01*
X137771497Y-136254128D01*
X137797815Y-136227809D01*
X137804193Y-136216129D01*
X138487574Y-136216129D01*
X138487705Y-136217968D01*
X138491953Y-136224577D01*
X138521505Y-136254130D01*
X138521504Y-136254130D01*
X138521505Y-136254131D01*
X138896190Y-136628815D01*
X138910130Y-136636427D01*
X138911966Y-136636295D01*
X138918578Y-136632046D01*
X139296495Y-136254130D01*
X139296497Y-136254128D01*
X139322815Y-136227809D01*
X139329192Y-136216130D01*
X140012573Y-136216130D01*
X140012705Y-136217966D01*
X140016954Y-136224578D01*
X140329122Y-136536747D01*
X140341501Y-136543506D01*
X140345317Y-136540649D01*
X140395646Y-136408157D01*
X140399128Y-136394596D01*
X140420874Y-136239869D01*
X140421480Y-136231987D01*
X140421662Y-136218947D01*
X140421277Y-136211077D01*
X140403859Y-136055790D01*
X140400757Y-136042137D01*
X140350389Y-135897500D01*
X140348476Y-135893509D01*
X140340771Y-135886659D01*
X140331720Y-135890655D01*
X140020184Y-136202192D01*
X140012573Y-136216130D01*
X139329192Y-136216130D01*
X139330426Y-136213871D01*
X139330295Y-136212033D01*
X139326045Y-136205421D01*
X138948130Y-135827505D01*
X138948128Y-135827503D01*
X138921809Y-135801185D01*
X138907871Y-135793574D01*
X138906033Y-135793705D01*
X138899421Y-135797955D01*
X138521505Y-136175870D01*
X138521503Y-136175872D01*
X138495185Y-136202191D01*
X138487574Y-136216129D01*
X137804193Y-136216129D01*
X137805426Y-136213871D01*
X137805295Y-136212033D01*
X137801045Y-136205421D01*
X137423130Y-135827505D01*
X137423128Y-135827503D01*
X137396809Y-135801185D01*
X137382871Y-135793574D01*
X137381033Y-135793705D01*
X137374421Y-135797955D01*
X136996505Y-136175870D01*
X136996503Y-136175872D01*
X136970185Y-136202191D01*
X136962574Y-136216129D01*
X136279193Y-136216129D01*
X136280427Y-136213870D01*
X136280295Y-136212034D01*
X136276046Y-136205422D01*
X135963325Y-135892701D01*
X135950945Y-135885941D01*
X135946731Y-135889096D01*
X135894727Y-136031973D01*
X135891435Y-136045581D01*
X135872240Y-136197531D01*
X135872044Y-136211537D01*
X96376556Y-136211537D01*
X96327018Y-136124864D01*
X96313755Y-136108039D01*
X96205910Y-135971239D01*
X96160605Y-135913769D01*
X95964817Y-135729591D01*
X95743957Y-135576374D01*
X95705127Y-135557225D01*
X95682610Y-135546121D01*
X136293503Y-135546121D01*
X136297327Y-135554951D01*
X136608688Y-135866312D01*
X136622632Y-135873926D01*
X136624467Y-135873795D01*
X136631077Y-135869547D01*
X137008995Y-135491630D01*
X137008997Y-135491628D01*
X137035315Y-135465309D01*
X137041692Y-135453630D01*
X137725073Y-135453630D01*
X137725205Y-135455466D01*
X137729454Y-135462078D01*
X137759005Y-135491630D01*
X137759004Y-135491630D01*
X137759005Y-135491631D01*
X138133690Y-135866315D01*
X138147630Y-135873927D01*
X138149466Y-135873795D01*
X138156078Y-135869546D01*
X138533995Y-135491630D01*
X138533997Y-135491628D01*
X138560315Y-135465309D01*
X138566692Y-135453630D01*
X139250073Y-135453630D01*
X139250205Y-135455466D01*
X139254454Y-135462078D01*
X139284005Y-135491630D01*
X139284004Y-135491630D01*
X139284005Y-135491631D01*
X139658690Y-135866315D01*
X139672630Y-135873927D01*
X139674466Y-135873795D01*
X139681078Y-135869546D01*
X139993400Y-135557225D01*
X140000159Y-135544846D01*
X139996189Y-135539543D01*
X139993732Y-135538344D01*
X139849448Y-135486967D01*
X139835823Y-135483772D01*
X139759541Y-135474675D01*
X139694268Y-135446747D01*
X139654456Y-135387964D01*
X139649246Y-135363606D01*
X139641359Y-135293290D01*
X139638257Y-135279637D01*
X139587889Y-135135000D01*
X139585976Y-135131009D01*
X139578271Y-135124159D01*
X139569220Y-135128155D01*
X139257684Y-135439692D01*
X139250073Y-135453630D01*
X138566692Y-135453630D01*
X138567926Y-135451371D01*
X138567795Y-135449534D01*
X138563544Y-135442920D01*
X138250825Y-135130201D01*
X138238445Y-135123441D01*
X138219829Y-135137377D01*
X138153309Y-135162188D01*
X138083935Y-135147097D01*
X138060610Y-135130683D01*
X138053271Y-135124159D01*
X138044220Y-135128155D01*
X137732684Y-135439692D01*
X137725073Y-135453630D01*
X137041692Y-135453630D01*
X137042926Y-135451371D01*
X137042795Y-135449534D01*
X137038544Y-135442920D01*
X136725825Y-135130201D01*
X136713445Y-135123441D01*
X136709231Y-135126596D01*
X136657227Y-135269473D01*
X136653935Y-135283082D01*
X136643552Y-135365270D01*
X136615170Y-135430347D01*
X136556110Y-135469748D01*
X136531717Y-135474788D01*
X136467402Y-135481548D01*
X136453738Y-135484553D01*
X136308743Y-135533912D01*
X136301389Y-135537373D01*
X136293503Y-135546121D01*
X95682610Y-135546121D01*
X95507064Y-135459551D01*
X95507061Y-135459550D01*
X95502876Y-135457486D01*
X95469328Y-135446747D01*
X95345898Y-135407237D01*
X95246870Y-135375538D01*
X95242263Y-135374788D01*
X95242260Y-135374787D01*
X94986174Y-135333081D01*
X94986175Y-135333081D01*
X94981563Y-135332330D01*
X94851219Y-135330624D01*
X94717461Y-135328873D01*
X94717458Y-135328873D01*
X94712784Y-135328812D01*
X94446437Y-135365060D01*
X94188374Y-135440278D01*
X94184121Y-135442238D01*
X94184120Y-135442239D01*
X94168296Y-135449534D01*
X93944263Y-135552815D01*
X93940354Y-135555378D01*
X93723381Y-135697631D01*
X93723376Y-135697635D01*
X93719468Y-135700197D01*
X93715976Y-135703314D01*
X93524822Y-135873926D01*
X93518926Y-135879188D01*
X93347044Y-136085854D01*
X93207596Y-136315656D01*
X93205787Y-136319970D01*
X93205785Y-136319974D01*
X93183649Y-136372763D01*
X93103648Y-136563545D01*
X93037481Y-136824077D01*
X93010550Y-137091526D01*
X87704500Y-137091526D01*
X87704500Y-132011526D01*
X93010550Y-132011526D01*
X93010774Y-132016192D01*
X93010774Y-132016197D01*
X93014106Y-132085565D01*
X93023447Y-132280019D01*
X93075888Y-132543656D01*
X93166720Y-132796646D01*
X93168932Y-132800762D01*
X93168933Y-132800765D01*
X93175537Y-132813056D01*
X93293950Y-133033431D01*
X93296741Y-133037168D01*
X93296745Y-133037175D01*
X93378387Y-133146506D01*
X93454781Y-133248810D01*
X93458090Y-133252090D01*
X93458095Y-133252096D01*
X93642363Y-133434762D01*
X93645680Y-133438050D01*
X93649442Y-133440808D01*
X93649445Y-133440811D01*
X93820421Y-133566175D01*
X93862454Y-133596995D01*
X93866589Y-133599171D01*
X93866593Y-133599173D01*
X94096198Y-133719975D01*
X94100340Y-133722154D01*
X94354113Y-133810775D01*
X94358706Y-133811647D01*
X94613609Y-133860042D01*
X94613612Y-133860042D01*
X94618198Y-133860913D01*
X94745870Y-133865929D01*
X94882125Y-133871283D01*
X94882130Y-133871283D01*
X94886793Y-133871466D01*
X94991107Y-133860042D01*
X95149344Y-133842713D01*
X95149350Y-133842712D01*
X95153997Y-133842203D01*
X95158521Y-133841012D01*
X95409418Y-133774956D01*
X95409420Y-133774955D01*
X95413941Y-133773765D01*
X95460199Y-133753891D01*
X95656620Y-133669502D01*
X95656622Y-133669501D01*
X95660914Y-133667657D01*
X95779571Y-133594230D01*
X95885517Y-133528669D01*
X95885521Y-133528666D01*
X95889490Y-133526210D01*
X96094649Y-133352530D01*
X96096868Y-133350000D01*
X123292496Y-133350000D01*
X123293186Y-133356565D01*
X123311275Y-133528669D01*
X123312458Y-133539928D01*
X123371473Y-133721556D01*
X123374776Y-133727278D01*
X123374777Y-133727279D01*
X123408686Y-133786010D01*
X123466960Y-133886944D01*
X123471378Y-133891851D01*
X123471379Y-133891852D01*
X123515753Y-133941134D01*
X123594747Y-134028866D01*
X123749248Y-134141118D01*
X123755276Y-134143802D01*
X123755278Y-134143803D01*
X123827756Y-134176072D01*
X123923712Y-134218794D01*
X124017112Y-134238647D01*
X124104056Y-134257128D01*
X124104061Y-134257128D01*
X124110513Y-134258500D01*
X124301487Y-134258500D01*
X124307939Y-134257128D01*
X124307944Y-134257128D01*
X124394888Y-134238647D01*
X124488288Y-134218794D01*
X124584244Y-134176072D01*
X124656722Y-134143803D01*
X124656724Y-134143802D01*
X124662752Y-134141118D01*
X124817253Y-134028866D01*
X124922898Y-133911536D01*
X124983343Y-133874296D01*
X125054326Y-133875648D01*
X125113311Y-133915161D01*
X125141569Y-133980292D01*
X125136366Y-134034782D01*
X125090458Y-134176072D01*
X125089768Y-134182633D01*
X125089768Y-134182635D01*
X125077336Y-134300919D01*
X125070496Y-134366000D01*
X125090458Y-134555928D01*
X125149473Y-134737556D01*
X125244960Y-134902944D01*
X125249378Y-134907851D01*
X125249379Y-134907852D01*
X125368325Y-135039955D01*
X125372747Y-135044866D01*
X125527248Y-135157118D01*
X125533276Y-135159802D01*
X125533278Y-135159803D01*
X125538635Y-135162188D01*
X125701712Y-135234794D01*
X125795112Y-135254647D01*
X125882056Y-135273128D01*
X125882061Y-135273128D01*
X125888513Y-135274500D01*
X126079487Y-135274500D01*
X126085939Y-135273128D01*
X126085944Y-135273128D01*
X126172888Y-135254647D01*
X126266288Y-135234794D01*
X126429365Y-135162188D01*
X126434722Y-135159803D01*
X126434724Y-135159802D01*
X126440752Y-135157118D01*
X126595253Y-135044866D01*
X126599675Y-135039955D01*
X126718621Y-134907852D01*
X126718622Y-134907851D01*
X126723040Y-134902944D01*
X126791931Y-134783621D01*
X137056003Y-134783621D01*
X137059827Y-134792451D01*
X137371188Y-135103812D01*
X137385132Y-135111426D01*
X137386967Y-135111295D01*
X137393577Y-135107047D01*
X137705900Y-134794725D01*
X137711963Y-134783621D01*
X138581003Y-134783621D01*
X138584827Y-134792451D01*
X138896188Y-135103812D01*
X138910132Y-135111426D01*
X138911967Y-135111295D01*
X138918577Y-135107047D01*
X139230900Y-134794725D01*
X139237659Y-134782346D01*
X139233689Y-134777043D01*
X139231232Y-134775844D01*
X139086948Y-134724467D01*
X139073322Y-134721271D01*
X138921229Y-134703135D01*
X138907233Y-134703037D01*
X138754902Y-134719048D01*
X138741238Y-134722053D01*
X138596243Y-134771412D01*
X138588889Y-134774873D01*
X138581003Y-134783621D01*
X137711963Y-134783621D01*
X137712659Y-134782346D01*
X137708689Y-134777043D01*
X137706232Y-134775844D01*
X137561948Y-134724467D01*
X137548322Y-134721271D01*
X137396229Y-134703135D01*
X137382233Y-134703037D01*
X137229902Y-134719048D01*
X137216238Y-134722053D01*
X137071243Y-134771412D01*
X137063889Y-134774873D01*
X137056003Y-134783621D01*
X126791931Y-134783621D01*
X126818527Y-134737556D01*
X126856724Y-134620000D01*
X146152496Y-134620000D01*
X146153186Y-134626565D01*
X146168876Y-134775844D01*
X146172458Y-134809928D01*
X146231473Y-134991556D01*
X146326960Y-135156944D01*
X146454747Y-135298866D01*
X146500722Y-135332269D01*
X146560277Y-135375538D01*
X146609248Y-135411118D01*
X146615276Y-135413802D01*
X146615278Y-135413803D01*
X146777681Y-135486109D01*
X146783712Y-135488794D01*
X146877112Y-135508647D01*
X146964056Y-135527128D01*
X146964061Y-135527128D01*
X146970513Y-135528500D01*
X147161487Y-135528500D01*
X147167939Y-135527128D01*
X147167944Y-135527128D01*
X147254888Y-135508647D01*
X147348288Y-135488794D01*
X147354319Y-135486109D01*
X147516722Y-135413803D01*
X147516724Y-135413802D01*
X147522752Y-135411118D01*
X147571724Y-135375538D01*
X147631278Y-135332269D01*
X147677253Y-135298866D01*
X147805040Y-135156944D01*
X147900527Y-134991556D01*
X147959542Y-134809928D01*
X147963125Y-134775844D01*
X147978814Y-134626565D01*
X147979504Y-134620000D01*
X147959542Y-134430072D01*
X147900527Y-134248444D01*
X147805040Y-134083056D01*
X147782182Y-134057669D01*
X147681675Y-133946045D01*
X147681674Y-133946044D01*
X147677253Y-133941134D01*
X147541087Y-133842203D01*
X147528094Y-133832763D01*
X147528093Y-133832762D01*
X147522752Y-133828882D01*
X147516724Y-133826198D01*
X147516722Y-133826197D01*
X147354319Y-133753891D01*
X147354318Y-133753891D01*
X147348288Y-133751206D01*
X147235721Y-133727279D01*
X147167944Y-133712872D01*
X147167939Y-133712872D01*
X147161487Y-133711500D01*
X146970513Y-133711500D01*
X146964061Y-133712872D01*
X146964056Y-133712872D01*
X146896279Y-133727279D01*
X146783712Y-133751206D01*
X146777682Y-133753891D01*
X146777681Y-133753891D01*
X146615278Y-133826197D01*
X146615276Y-133826198D01*
X146609248Y-133828882D01*
X146603907Y-133832762D01*
X146603906Y-133832763D01*
X146590913Y-133842203D01*
X146454747Y-133941134D01*
X146450326Y-133946044D01*
X146450325Y-133946045D01*
X146349819Y-134057669D01*
X146326960Y-134083056D01*
X146231473Y-134248444D01*
X146172458Y-134430072D01*
X146152496Y-134620000D01*
X126856724Y-134620000D01*
X126877542Y-134555928D01*
X126897504Y-134366000D01*
X126890664Y-134300919D01*
X126878232Y-134182635D01*
X126878232Y-134182633D01*
X126877542Y-134176072D01*
X126818527Y-133994444D01*
X126776124Y-133921000D01*
X126759386Y-133852005D01*
X126776124Y-133795000D01*
X126815223Y-133727279D01*
X126815224Y-133727278D01*
X126818527Y-133721556D01*
X126877542Y-133539928D01*
X126878726Y-133528669D01*
X126896814Y-133356565D01*
X126897504Y-133350000D01*
X126877542Y-133160072D01*
X126818527Y-132978444D01*
X126801856Y-132949568D01*
X126726341Y-132818774D01*
X126723040Y-132813056D01*
X126710662Y-132799309D01*
X126679946Y-132735303D01*
X126688710Y-132664850D01*
X126710661Y-132630693D01*
X126723040Y-132616944D01*
X126725086Y-132613400D01*
X146685896Y-132613400D01*
X146686586Y-132619965D01*
X146705156Y-132796646D01*
X146705858Y-132803328D01*
X146764873Y-132984956D01*
X146860360Y-133150344D01*
X146988147Y-133292266D01*
X147142648Y-133404518D01*
X147148676Y-133407202D01*
X147148678Y-133407203D01*
X147311081Y-133479509D01*
X147317112Y-133482194D01*
X147410513Y-133502047D01*
X147497456Y-133520528D01*
X147497461Y-133520528D01*
X147503913Y-133521900D01*
X147694887Y-133521900D01*
X147701339Y-133520528D01*
X147701344Y-133520528D01*
X147788287Y-133502047D01*
X147881688Y-133482194D01*
X147887719Y-133479509D01*
X148050122Y-133407203D01*
X148050124Y-133407202D01*
X148056152Y-133404518D01*
X148210653Y-133292266D01*
X148338440Y-133150344D01*
X148433927Y-132984956D01*
X148492942Y-132803328D01*
X148493645Y-132796646D01*
X148512214Y-132619965D01*
X148512904Y-132613400D01*
X148492942Y-132423472D01*
X148433927Y-132241844D01*
X148338440Y-132076456D01*
X148275787Y-132006872D01*
X148215075Y-131939445D01*
X148215074Y-131939444D01*
X148210653Y-131934534D01*
X148166149Y-131902200D01*
X151130896Y-131902200D01*
X151131586Y-131908765D01*
X151142494Y-132012545D01*
X151150858Y-132092128D01*
X151209873Y-132273756D01*
X151305360Y-132439144D01*
X151433147Y-132581066D01*
X151468615Y-132606835D01*
X151577638Y-132686045D01*
X151587648Y-132693318D01*
X151593676Y-132696002D01*
X151593678Y-132696003D01*
X151681948Y-132735303D01*
X151762112Y-132770994D01*
X151855513Y-132790847D01*
X151942456Y-132809328D01*
X151942461Y-132809328D01*
X151948913Y-132810700D01*
X152139887Y-132810700D01*
X152146339Y-132809328D01*
X152146344Y-132809328D01*
X152233287Y-132790847D01*
X152326688Y-132770994D01*
X152406852Y-132735303D01*
X152495122Y-132696003D01*
X152495124Y-132696002D01*
X152501152Y-132693318D01*
X152511163Y-132686045D01*
X152620185Y-132606835D01*
X152655653Y-132581066D01*
X152692155Y-132540526D01*
X170856050Y-132540526D01*
X170856274Y-132545192D01*
X170856274Y-132545197D01*
X170857118Y-132562763D01*
X170868947Y-132809019D01*
X170921388Y-133072656D01*
X171012220Y-133325646D01*
X171014432Y-133329762D01*
X171014433Y-133329765D01*
X171072617Y-133438050D01*
X171139450Y-133562431D01*
X171142241Y-133566168D01*
X171142245Y-133566175D01*
X171223887Y-133675506D01*
X171300281Y-133777810D01*
X171303590Y-133781090D01*
X171303595Y-133781096D01*
X171465037Y-133941134D01*
X171491180Y-133967050D01*
X171494942Y-133969808D01*
X171494945Y-133969811D01*
X171580782Y-134032749D01*
X171707954Y-134125995D01*
X171712089Y-134128171D01*
X171712093Y-134128173D01*
X171940689Y-134248444D01*
X171945840Y-134251154D01*
X172199613Y-134339775D01*
X172204206Y-134340647D01*
X172459109Y-134389042D01*
X172459112Y-134389042D01*
X172463698Y-134389913D01*
X172591370Y-134394929D01*
X172727625Y-134400283D01*
X172727630Y-134400283D01*
X172732293Y-134400466D01*
X172836607Y-134389042D01*
X172994844Y-134371713D01*
X172994850Y-134371712D01*
X172999497Y-134371203D01*
X173004021Y-134370012D01*
X173254918Y-134303956D01*
X173254920Y-134303955D01*
X173259441Y-134302765D01*
X173371248Y-134254729D01*
X173502120Y-134198502D01*
X173502122Y-134198501D01*
X173506414Y-134196657D01*
X173625071Y-134123230D01*
X173731017Y-134057669D01*
X173731021Y-134057666D01*
X173734990Y-134055210D01*
X173940149Y-133881530D01*
X174117382Y-133679434D01*
X174123771Y-133669502D01*
X174260269Y-133457291D01*
X174262797Y-133453361D01*
X174373199Y-133208278D01*
X174410209Y-133077051D01*
X174444893Y-132954072D01*
X174444894Y-132954069D01*
X174446163Y-132949568D01*
X174451964Y-132903969D01*
X174479688Y-132686045D01*
X174479688Y-132686041D01*
X174480086Y-132682915D01*
X174480182Y-132679278D01*
X174482488Y-132591160D01*
X174482571Y-132588000D01*
X174462650Y-132319937D01*
X174453618Y-132280019D01*
X174404361Y-132062331D01*
X174404360Y-132062326D01*
X174403327Y-132057763D01*
X174305902Y-131807238D01*
X174172518Y-131573864D01*
X174137396Y-131529311D01*
X174012573Y-131370974D01*
X174006105Y-131362769D01*
X173810317Y-131178591D01*
X173612263Y-131041195D01*
X173593299Y-131028039D01*
X173593296Y-131028037D01*
X173589457Y-131025374D01*
X173585264Y-131023306D01*
X173352564Y-130908551D01*
X173352561Y-130908550D01*
X173348376Y-130906486D01*
X173300745Y-130891239D01*
X173246621Y-130873914D01*
X173092370Y-130824538D01*
X173087763Y-130823788D01*
X173087760Y-130823787D01*
X172831674Y-130782081D01*
X172831675Y-130782081D01*
X172827063Y-130781330D01*
X172696719Y-130779624D01*
X172562961Y-130777873D01*
X172562958Y-130777873D01*
X172558284Y-130777812D01*
X172291937Y-130814060D01*
X172287451Y-130815368D01*
X172287449Y-130815368D01*
X172258565Y-130823787D01*
X172033874Y-130889278D01*
X171789763Y-131001815D01*
X171783066Y-131006206D01*
X171568881Y-131146631D01*
X171568876Y-131146635D01*
X171564968Y-131149197D01*
X171364426Y-131328188D01*
X171192544Y-131534854D01*
X171053096Y-131764656D01*
X171051287Y-131768970D01*
X171051285Y-131768974D01*
X170979801Y-131939445D01*
X170949148Y-132012545D01*
X170882981Y-132273077D01*
X170856050Y-132540526D01*
X152692155Y-132540526D01*
X152783440Y-132439144D01*
X152878927Y-132273756D01*
X152937942Y-132092128D01*
X152946307Y-132012545D01*
X152957214Y-131908765D01*
X152957904Y-131902200D01*
X152943028Y-131760658D01*
X152938632Y-131718835D01*
X152938632Y-131718833D01*
X152937942Y-131712272D01*
X152878927Y-131530644D01*
X152858435Y-131495150D01*
X152786741Y-131370974D01*
X152783440Y-131365256D01*
X152778320Y-131359569D01*
X152660075Y-131228245D01*
X152660074Y-131228244D01*
X152655653Y-131223334D01*
X152501152Y-131111082D01*
X152495124Y-131108398D01*
X152495122Y-131108397D01*
X152332719Y-131036091D01*
X152332718Y-131036091D01*
X152326688Y-131033406D01*
X152233288Y-131013553D01*
X152146344Y-130995072D01*
X152146339Y-130995072D01*
X152139887Y-130993700D01*
X151948913Y-130993700D01*
X151942461Y-130995072D01*
X151942456Y-130995072D01*
X151855512Y-131013553D01*
X151762112Y-131033406D01*
X151756082Y-131036091D01*
X151756081Y-131036091D01*
X151593678Y-131108397D01*
X151593676Y-131108398D01*
X151587648Y-131111082D01*
X151433147Y-131223334D01*
X151428726Y-131228244D01*
X151428725Y-131228245D01*
X151310481Y-131359569D01*
X151305360Y-131365256D01*
X151302059Y-131370974D01*
X151230366Y-131495150D01*
X151209873Y-131530644D01*
X151150858Y-131712272D01*
X151150168Y-131718833D01*
X151150168Y-131718835D01*
X151145772Y-131760658D01*
X151130896Y-131902200D01*
X148166149Y-131902200D01*
X148056152Y-131822282D01*
X148050124Y-131819598D01*
X148050122Y-131819597D01*
X147887719Y-131747291D01*
X147887718Y-131747291D01*
X147881688Y-131744606D01*
X147760446Y-131718835D01*
X147701344Y-131706272D01*
X147701339Y-131706272D01*
X147694887Y-131704900D01*
X147503913Y-131704900D01*
X147497461Y-131706272D01*
X147497456Y-131706272D01*
X147438354Y-131718835D01*
X147317112Y-131744606D01*
X147311082Y-131747291D01*
X147311081Y-131747291D01*
X147148678Y-131819597D01*
X147148676Y-131819598D01*
X147142648Y-131822282D01*
X146988147Y-131934534D01*
X146983726Y-131939444D01*
X146983725Y-131939445D01*
X146923014Y-132006872D01*
X146860360Y-132076456D01*
X146764873Y-132241844D01*
X146705858Y-132423472D01*
X146685896Y-132613400D01*
X126725086Y-132613400D01*
X126818527Y-132451556D01*
X126877542Y-132269928D01*
X126897504Y-132080000D01*
X126877542Y-131890072D01*
X126818527Y-131708444D01*
X126723040Y-131543056D01*
X126710662Y-131529309D01*
X126679946Y-131465303D01*
X126688710Y-131394850D01*
X126710661Y-131360693D01*
X126723040Y-131346944D01*
X126818527Y-131181556D01*
X126877542Y-130999928D01*
X126889310Y-130887967D01*
X126896814Y-130816565D01*
X126897504Y-130810000D01*
X126894121Y-130777812D01*
X126878232Y-130626635D01*
X126878232Y-130626633D01*
X126877542Y-130620072D01*
X126818527Y-130438444D01*
X126723040Y-130273056D01*
X126705055Y-130253081D01*
X126599675Y-130136045D01*
X126599674Y-130136044D01*
X126595253Y-130131134D01*
X126440752Y-130018882D01*
X126434724Y-130016198D01*
X126434722Y-130016197D01*
X126272319Y-129943891D01*
X126272318Y-129943891D01*
X126266288Y-129941206D01*
X126172888Y-129921353D01*
X126085944Y-129902872D01*
X126085939Y-129902872D01*
X126079487Y-129901500D01*
X125888513Y-129901500D01*
X125882061Y-129902872D01*
X125882056Y-129902872D01*
X125795112Y-129921353D01*
X125701712Y-129941206D01*
X125695682Y-129943891D01*
X125695681Y-129943891D01*
X125533278Y-130016197D01*
X125533276Y-130016198D01*
X125527248Y-130018882D01*
X125372747Y-130131134D01*
X125368326Y-130136044D01*
X125368325Y-130136045D01*
X125262946Y-130253081D01*
X125244960Y-130273056D01*
X125149473Y-130438444D01*
X125090458Y-130620072D01*
X125089768Y-130626633D01*
X125089768Y-130626635D01*
X125073879Y-130777812D01*
X125070496Y-130810000D01*
X125071186Y-130816565D01*
X125078691Y-130887967D01*
X125090458Y-130999928D01*
X125149473Y-131181556D01*
X125244960Y-131346944D01*
X125257338Y-131360691D01*
X125288054Y-131424697D01*
X125279290Y-131495150D01*
X125257339Y-131529307D01*
X125244960Y-131543056D01*
X125149473Y-131708444D01*
X125090458Y-131890072D01*
X125070496Y-132080000D01*
X125090458Y-132269928D01*
X125149473Y-132451556D01*
X125244960Y-132616944D01*
X125257338Y-132630691D01*
X125288054Y-132694697D01*
X125279290Y-132765150D01*
X125257339Y-132799307D01*
X125244960Y-132813056D01*
X125241659Y-132818774D01*
X125204119Y-132883795D01*
X125152737Y-132932788D01*
X125083023Y-132946224D01*
X125017112Y-132919838D01*
X124985881Y-132883795D01*
X124948341Y-132818774D01*
X124945040Y-132813056D01*
X124930265Y-132796646D01*
X124821675Y-132676045D01*
X124821674Y-132676044D01*
X124817253Y-132671134D01*
X124662752Y-132558882D01*
X124656724Y-132556198D01*
X124656722Y-132556197D01*
X124494319Y-132483891D01*
X124494318Y-132483891D01*
X124488288Y-132481206D01*
X124375721Y-132457279D01*
X124307944Y-132442872D01*
X124307939Y-132442872D01*
X124301487Y-132441500D01*
X124110513Y-132441500D01*
X124104061Y-132442872D01*
X124104056Y-132442872D01*
X124036279Y-132457279D01*
X123923712Y-132481206D01*
X123917682Y-132483891D01*
X123917681Y-132483891D01*
X123755278Y-132556197D01*
X123755276Y-132556198D01*
X123749248Y-132558882D01*
X123594747Y-132671134D01*
X123590326Y-132676044D01*
X123590325Y-132676045D01*
X123481736Y-132796646D01*
X123466960Y-132813056D01*
X123463659Y-132818774D01*
X123388145Y-132949568D01*
X123371473Y-132978444D01*
X123312458Y-133160072D01*
X123292496Y-133350000D01*
X96096868Y-133350000D01*
X96271882Y-133150434D01*
X96274675Y-133146093D01*
X96403234Y-132946224D01*
X96417297Y-132924361D01*
X96527699Y-132679278D01*
X96565514Y-132545197D01*
X96599393Y-132425072D01*
X96599394Y-132425069D01*
X96600663Y-132420568D01*
X96619028Y-132276206D01*
X96634188Y-132157045D01*
X96634188Y-132157041D01*
X96634586Y-132153915D01*
X96637071Y-132059000D01*
X96625906Y-131908765D01*
X96617496Y-131795592D01*
X96617496Y-131795591D01*
X96617150Y-131790937D01*
X96616119Y-131786379D01*
X96558861Y-131533331D01*
X96558860Y-131533326D01*
X96557827Y-131528763D01*
X96460402Y-131278238D01*
X96327018Y-131044864D01*
X96317986Y-131033406D01*
X96205910Y-130891239D01*
X96160605Y-130833769D01*
X95964817Y-130649591D01*
X95743957Y-130496374D01*
X95739764Y-130494306D01*
X95507064Y-130379551D01*
X95507061Y-130379550D01*
X95502876Y-130377486D01*
X95455245Y-130362239D01*
X95401121Y-130344914D01*
X95246870Y-130295538D01*
X95242263Y-130294788D01*
X95242260Y-130294787D01*
X94986174Y-130253081D01*
X94986175Y-130253081D01*
X94981563Y-130252330D01*
X94851219Y-130250624D01*
X94717461Y-130248873D01*
X94717458Y-130248873D01*
X94712784Y-130248812D01*
X94446437Y-130285060D01*
X94188374Y-130360278D01*
X93944263Y-130472815D01*
X93940354Y-130475378D01*
X93723381Y-130617631D01*
X93723376Y-130617635D01*
X93719468Y-130620197D01*
X93715976Y-130623314D01*
X93538093Y-130782081D01*
X93518926Y-130799188D01*
X93347044Y-131005854D01*
X93207596Y-131235656D01*
X93205787Y-131239970D01*
X93205785Y-131239974D01*
X93154293Y-131362769D01*
X93103648Y-131483545D01*
X93037481Y-131744077D01*
X93010550Y-132011526D01*
X87704500Y-132011526D01*
X87704500Y-128423906D01*
X93743339Y-128423906D01*
X93752053Y-128435427D01*
X93858952Y-128513809D01*
X93866851Y-128518745D01*
X94096405Y-128639519D01*
X94104954Y-128643236D01*
X94349827Y-128728749D01*
X94358836Y-128731163D01*
X94613666Y-128779544D01*
X94622923Y-128780598D01*
X94882107Y-128790783D01*
X94891421Y-128790457D01*
X95149253Y-128762220D01*
X95158430Y-128760519D01*
X95409258Y-128694481D01*
X95418074Y-128691445D01*
X95656380Y-128589062D01*
X95664667Y-128584748D01*
X95885218Y-128448266D01*
X95892768Y-128442780D01*
X95898059Y-128438301D01*
X95906497Y-128425497D01*
X95900435Y-128415145D01*
X95755290Y-128270000D01*
X125070496Y-128270000D01*
X125071186Y-128276565D01*
X125088656Y-128442780D01*
X125090458Y-128459928D01*
X125149473Y-128641556D01*
X125244960Y-128806944D01*
X125372747Y-128948866D01*
X125527248Y-129061118D01*
X125533276Y-129063802D01*
X125533278Y-129063803D01*
X125695681Y-129136109D01*
X125701712Y-129138794D01*
X125795113Y-129158647D01*
X125882056Y-129177128D01*
X125882061Y-129177128D01*
X125888513Y-129178500D01*
X126079487Y-129178500D01*
X126085939Y-129177128D01*
X126085944Y-129177128D01*
X126172887Y-129158647D01*
X126266288Y-129138794D01*
X126272319Y-129136109D01*
X126434722Y-129063803D01*
X126434724Y-129063802D01*
X126440752Y-129061118D01*
X126595253Y-128948866D01*
X126678749Y-128856134D01*
X170860500Y-128856134D01*
X170867255Y-128918316D01*
X170918385Y-129054705D01*
X171005739Y-129171261D01*
X171122295Y-129258615D01*
X171258684Y-129309745D01*
X171320866Y-129316500D01*
X174017134Y-129316500D01*
X174079316Y-129309745D01*
X174215705Y-129258615D01*
X174332261Y-129171261D01*
X174419615Y-129054705D01*
X174470745Y-128918316D01*
X174477500Y-128856134D01*
X174477500Y-126159866D01*
X174470745Y-126097684D01*
X174419615Y-125961295D01*
X174332261Y-125844739D01*
X174215705Y-125757385D01*
X174079316Y-125706255D01*
X174017134Y-125699500D01*
X171320866Y-125699500D01*
X171258684Y-125706255D01*
X171122295Y-125757385D01*
X171005739Y-125844739D01*
X170918385Y-125961295D01*
X170867255Y-126097684D01*
X170860500Y-126159866D01*
X170860500Y-128856134D01*
X126678749Y-128856134D01*
X126723040Y-128806944D01*
X126818527Y-128641556D01*
X126877542Y-128459928D01*
X126879345Y-128442780D01*
X126896814Y-128276565D01*
X126897504Y-128270000D01*
X126877542Y-128080072D01*
X126818527Y-127898444D01*
X126723040Y-127733056D01*
X126595253Y-127591134D01*
X126440752Y-127478882D01*
X126434724Y-127476198D01*
X126434722Y-127476197D01*
X126272319Y-127403891D01*
X126272318Y-127403891D01*
X126266288Y-127401206D01*
X126172887Y-127381353D01*
X126085944Y-127362872D01*
X126085939Y-127362872D01*
X126079487Y-127361500D01*
X125888513Y-127361500D01*
X125882061Y-127362872D01*
X125882056Y-127362872D01*
X125795113Y-127381353D01*
X125701712Y-127401206D01*
X125695682Y-127403891D01*
X125695681Y-127403891D01*
X125533278Y-127476197D01*
X125533276Y-127476198D01*
X125527248Y-127478882D01*
X125372747Y-127591134D01*
X125244960Y-127733056D01*
X125149473Y-127898444D01*
X125090458Y-128080072D01*
X125070496Y-128270000D01*
X95755290Y-128270000D01*
X94836312Y-127351022D01*
X94822368Y-127343408D01*
X94820535Y-127343539D01*
X94813920Y-127347790D01*
X93749997Y-128411713D01*
X93743339Y-128423906D01*
X87704500Y-128423906D01*
X87704500Y-126936211D01*
X93011275Y-126936211D01*
X93023720Y-127195288D01*
X93024856Y-127204543D01*
X93075461Y-127458945D01*
X93077949Y-127467917D01*
X93165595Y-127712033D01*
X93169395Y-127720568D01*
X93292158Y-127949042D01*
X93297166Y-127956904D01*
X93367220Y-128050716D01*
X93378479Y-128059165D01*
X93390897Y-128052393D01*
X94451478Y-126991812D01*
X94457856Y-126980132D01*
X95187908Y-126980132D01*
X95188039Y-126981965D01*
X95192290Y-126988580D01*
X96259594Y-128055884D01*
X96271974Y-128062644D01*
X96280315Y-128056400D01*
X96414332Y-127848048D01*
X96418775Y-127839864D01*
X96525307Y-127603370D01*
X96528497Y-127594605D01*
X96598902Y-127344972D01*
X96600762Y-127335830D01*
X96633687Y-127077019D01*
X96634168Y-127070733D01*
X96636487Y-126982160D01*
X96636336Y-126975851D01*
X96617001Y-126715663D01*
X96615625Y-126706457D01*
X96558378Y-126453467D01*
X96555654Y-126444556D01*
X96461643Y-126202806D01*
X96457632Y-126194397D01*
X96328922Y-125969202D01*
X96323711Y-125961476D01*
X96280496Y-125906658D01*
X96268571Y-125898187D01*
X96257037Y-125904673D01*
X95195522Y-126966188D01*
X95187908Y-126980132D01*
X94457856Y-126980132D01*
X94459092Y-126977868D01*
X94458961Y-126976035D01*
X94454710Y-126969420D01*
X93389316Y-125904026D01*
X93376007Y-125896758D01*
X93365972Y-125903878D01*
X93350437Y-125922556D01*
X93345031Y-125930135D01*
X93210465Y-126151891D01*
X93206236Y-126160192D01*
X93105932Y-126399389D01*
X93102971Y-126408239D01*
X93039128Y-126659625D01*
X93037506Y-126668822D01*
X93011520Y-126926885D01*
X93011275Y-126936211D01*
X87704500Y-126936211D01*
X87704500Y-125531689D01*
X93740602Y-125531689D01*
X93745175Y-125541465D01*
X94810688Y-126606978D01*
X94824632Y-126614592D01*
X94826465Y-126614461D01*
X94833080Y-126610210D01*
X95897849Y-125545441D01*
X95904233Y-125533751D01*
X95894821Y-125521641D01*
X95747545Y-125419471D01*
X95739510Y-125414738D01*
X95506876Y-125300016D01*
X95498243Y-125296528D01*
X95251203Y-125217450D01*
X95242143Y-125215274D01*
X94986130Y-125173580D01*
X94976843Y-125172768D01*
X94717492Y-125169373D01*
X94708181Y-125169943D01*
X94451182Y-125204919D01*
X94442046Y-125206860D01*
X94193043Y-125279439D01*
X94184300Y-125282707D01*
X93948752Y-125391296D01*
X93940597Y-125395816D01*
X93749740Y-125520947D01*
X93740602Y-125531689D01*
X87704500Y-125531689D01*
X87704500Y-121840134D01*
X93029000Y-121840134D01*
X93035755Y-121902316D01*
X93086885Y-122038705D01*
X93174239Y-122155261D01*
X93290795Y-122242615D01*
X93427184Y-122293745D01*
X93489366Y-122300500D01*
X96185634Y-122300500D01*
X96247816Y-122293745D01*
X96384205Y-122242615D01*
X96500761Y-122155261D01*
X96588115Y-122038705D01*
X96639245Y-121902316D01*
X96646000Y-121840134D01*
X96646000Y-121124695D01*
X133501251Y-121124695D01*
X133514110Y-121347715D01*
X133515247Y-121352761D01*
X133515248Y-121352767D01*
X133527616Y-121407644D01*
X133563222Y-121565639D01*
X133595723Y-121645680D01*
X133640809Y-121756713D01*
X133647266Y-121772616D01*
X133684685Y-121833678D01*
X133761291Y-121958688D01*
X133763987Y-121963088D01*
X133910250Y-122131938D01*
X134082126Y-122274632D01*
X134275000Y-122387338D01*
X134483692Y-122467030D01*
X134488760Y-122468061D01*
X134488763Y-122468062D01*
X134596017Y-122489883D01*
X134702597Y-122511567D01*
X134707772Y-122511757D01*
X134707774Y-122511757D01*
X134920673Y-122519564D01*
X134920677Y-122519564D01*
X134925837Y-122519753D01*
X134930957Y-122519097D01*
X134930959Y-122519097D01*
X135142288Y-122492025D01*
X135142289Y-122492025D01*
X135147416Y-122491368D01*
X135152366Y-122489883D01*
X135356429Y-122428661D01*
X135356434Y-122428659D01*
X135361384Y-122427174D01*
X135561994Y-122328896D01*
X135743860Y-122199173D01*
X135902096Y-122041489D01*
X135905721Y-122036445D01*
X136032453Y-121860077D01*
X136033776Y-121861028D01*
X136080645Y-121817857D01*
X136150580Y-121805625D01*
X136216026Y-121833144D01*
X136243875Y-121864994D01*
X136303987Y-121963088D01*
X136450250Y-122131938D01*
X136622126Y-122274632D01*
X136815000Y-122387338D01*
X137023692Y-122467030D01*
X137028760Y-122468061D01*
X137028763Y-122468062D01*
X137136017Y-122489883D01*
X137242597Y-122511567D01*
X137247772Y-122511757D01*
X137247774Y-122511757D01*
X137460673Y-122519564D01*
X137460677Y-122519564D01*
X137465837Y-122519753D01*
X137470957Y-122519097D01*
X137470959Y-122519097D01*
X137682288Y-122492025D01*
X137682289Y-122492025D01*
X137687416Y-122491368D01*
X137692366Y-122489883D01*
X137896429Y-122428661D01*
X137896434Y-122428659D01*
X137901384Y-122427174D01*
X138101994Y-122328896D01*
X138283860Y-122199173D01*
X138442096Y-122041489D01*
X138445721Y-122036445D01*
X138572453Y-121860077D01*
X138573776Y-121861028D01*
X138620645Y-121817857D01*
X138690580Y-121805625D01*
X138756026Y-121833144D01*
X138783875Y-121864994D01*
X138843987Y-121963088D01*
X138990250Y-122131938D01*
X139162126Y-122274632D01*
X139355000Y-122387338D01*
X139563692Y-122467030D01*
X139568760Y-122468061D01*
X139568763Y-122468062D01*
X139676017Y-122489883D01*
X139782597Y-122511567D01*
X139787772Y-122511757D01*
X139787774Y-122511757D01*
X140000673Y-122519564D01*
X140000677Y-122519564D01*
X140005837Y-122519753D01*
X140010957Y-122519097D01*
X140010959Y-122519097D01*
X140222288Y-122492025D01*
X140222289Y-122492025D01*
X140227416Y-122491368D01*
X140232366Y-122489883D01*
X140436429Y-122428661D01*
X140436434Y-122428659D01*
X140441384Y-122427174D01*
X140641994Y-122328896D01*
X140823860Y-122199173D01*
X140932091Y-122091319D01*
X140994462Y-122057404D01*
X141065268Y-122062592D01*
X141122030Y-122105238D01*
X141139012Y-122136341D01*
X141183385Y-122254705D01*
X141270739Y-122371261D01*
X141387295Y-122458615D01*
X141523684Y-122509745D01*
X141585866Y-122516500D01*
X143382134Y-122516500D01*
X143444316Y-122509745D01*
X143580705Y-122458615D01*
X143697261Y-122371261D01*
X143784615Y-122254705D01*
X143835745Y-122118316D01*
X143842500Y-122056134D01*
X143842500Y-121768906D01*
X171650839Y-121768906D01*
X171659553Y-121780427D01*
X171766452Y-121858809D01*
X171774351Y-121863745D01*
X172003905Y-121984519D01*
X172012454Y-121988236D01*
X172257327Y-122073749D01*
X172266336Y-122076163D01*
X172521166Y-122124544D01*
X172530423Y-122125598D01*
X172789607Y-122135783D01*
X172798921Y-122135457D01*
X173056753Y-122107220D01*
X173065930Y-122105519D01*
X173316758Y-122039481D01*
X173325574Y-122036445D01*
X173563880Y-121934062D01*
X173572167Y-121929748D01*
X173792718Y-121793266D01*
X173800268Y-121787780D01*
X173805559Y-121783301D01*
X173813997Y-121770497D01*
X173807935Y-121760145D01*
X172743812Y-120696022D01*
X172729868Y-120688408D01*
X172728035Y-120688539D01*
X172721420Y-120692790D01*
X171657497Y-121756713D01*
X171650839Y-121768906D01*
X143842500Y-121768906D01*
X143842500Y-120281211D01*
X170918775Y-120281211D01*
X170931220Y-120540288D01*
X170932356Y-120549543D01*
X170982961Y-120803945D01*
X170985449Y-120812917D01*
X171073095Y-121057033D01*
X171076895Y-121065568D01*
X171199658Y-121294042D01*
X171204666Y-121301904D01*
X171274720Y-121395716D01*
X171285979Y-121404165D01*
X171298397Y-121397393D01*
X172358978Y-120336812D01*
X172365356Y-120325132D01*
X173095408Y-120325132D01*
X173095539Y-120326965D01*
X173099790Y-120333580D01*
X174167094Y-121400884D01*
X174179474Y-121407644D01*
X174187815Y-121401400D01*
X174321832Y-121193048D01*
X174326275Y-121184864D01*
X174432807Y-120948370D01*
X174435997Y-120939605D01*
X174506402Y-120689972D01*
X174508262Y-120680830D01*
X174541187Y-120422019D01*
X174541668Y-120415733D01*
X174543987Y-120327160D01*
X174543836Y-120320851D01*
X174524501Y-120060663D01*
X174523125Y-120051457D01*
X174465878Y-119798467D01*
X174463154Y-119789556D01*
X174369143Y-119547806D01*
X174365132Y-119539397D01*
X174236422Y-119314202D01*
X174231211Y-119306476D01*
X174187996Y-119251658D01*
X174176071Y-119243187D01*
X174164537Y-119249673D01*
X173103022Y-120311188D01*
X173095408Y-120325132D01*
X172365356Y-120325132D01*
X172366592Y-120322868D01*
X172366461Y-120321035D01*
X172362210Y-120314420D01*
X171296816Y-119249026D01*
X171283507Y-119241758D01*
X171273472Y-119248878D01*
X171257937Y-119267556D01*
X171252531Y-119275135D01*
X171117965Y-119496891D01*
X171113736Y-119505192D01*
X171013432Y-119744389D01*
X171010471Y-119753239D01*
X170946628Y-120004625D01*
X170945006Y-120013822D01*
X170919020Y-120271885D01*
X170918775Y-120281211D01*
X143842500Y-120281211D01*
X143842500Y-120259866D01*
X143835745Y-120197684D01*
X143784615Y-120061295D01*
X143697261Y-119944739D01*
X143580705Y-119857385D01*
X143444316Y-119806255D01*
X143382134Y-119799500D01*
X141585866Y-119799500D01*
X141523684Y-119806255D01*
X141387295Y-119857385D01*
X141270739Y-119944739D01*
X141183385Y-120061295D01*
X141180233Y-120069703D01*
X141138919Y-120179907D01*
X141096277Y-120236671D01*
X141029716Y-120261371D01*
X140960367Y-120246163D01*
X140927743Y-120220476D01*
X140877151Y-120164875D01*
X140877142Y-120164866D01*
X140873670Y-120161051D01*
X140869619Y-120157852D01*
X140869615Y-120157848D01*
X140702414Y-120025800D01*
X140702410Y-120025798D01*
X140698359Y-120022598D01*
X140502789Y-119914638D01*
X140497920Y-119912914D01*
X140497916Y-119912912D01*
X140297087Y-119841795D01*
X140297083Y-119841794D01*
X140292212Y-119840069D01*
X140287119Y-119839162D01*
X140287116Y-119839161D01*
X140077373Y-119801800D01*
X140077367Y-119801799D01*
X140072284Y-119800894D01*
X139998452Y-119799992D01*
X139854081Y-119798228D01*
X139854079Y-119798228D01*
X139848911Y-119798165D01*
X139628091Y-119831955D01*
X139415756Y-119901357D01*
X139385443Y-119917137D01*
X139312306Y-119955210D01*
X139217607Y-120004507D01*
X139213474Y-120007610D01*
X139213471Y-120007612D01*
X139043100Y-120135530D01*
X139038965Y-120138635D01*
X138999525Y-120179907D01*
X138945280Y-120236671D01*
X138884629Y-120300138D01*
X138777201Y-120457621D01*
X138722293Y-120502621D01*
X138651768Y-120510792D01*
X138588021Y-120479538D01*
X138567324Y-120455054D01*
X138486822Y-120330617D01*
X138486820Y-120330614D01*
X138484014Y-120326277D01*
X138333670Y-120161051D01*
X138329619Y-120157852D01*
X138329615Y-120157848D01*
X138162414Y-120025800D01*
X138162410Y-120025798D01*
X138158359Y-120022598D01*
X137962789Y-119914638D01*
X137957920Y-119912914D01*
X137957916Y-119912912D01*
X137757087Y-119841795D01*
X137757083Y-119841794D01*
X137752212Y-119840069D01*
X137747119Y-119839162D01*
X137747116Y-119839161D01*
X137537373Y-119801800D01*
X137537367Y-119801799D01*
X137532284Y-119800894D01*
X137458452Y-119799992D01*
X137314081Y-119798228D01*
X137314079Y-119798228D01*
X137308911Y-119798165D01*
X137088091Y-119831955D01*
X136875756Y-119901357D01*
X136845443Y-119917137D01*
X136772306Y-119955210D01*
X136677607Y-120004507D01*
X136673474Y-120007610D01*
X136673471Y-120007612D01*
X136503100Y-120135530D01*
X136498965Y-120138635D01*
X136459525Y-120179907D01*
X136405280Y-120236671D01*
X136344629Y-120300138D01*
X136237201Y-120457621D01*
X136182293Y-120502621D01*
X136111768Y-120510792D01*
X136048021Y-120479538D01*
X136027324Y-120455054D01*
X135946822Y-120330617D01*
X135946820Y-120330614D01*
X135944014Y-120326277D01*
X135793670Y-120161051D01*
X135789619Y-120157852D01*
X135789615Y-120157848D01*
X135622414Y-120025800D01*
X135622410Y-120025798D01*
X135618359Y-120022598D01*
X135422789Y-119914638D01*
X135417920Y-119912914D01*
X135417916Y-119912912D01*
X135217087Y-119841795D01*
X135217083Y-119841794D01*
X135212212Y-119840069D01*
X135207119Y-119839162D01*
X135207116Y-119839161D01*
X134997373Y-119801800D01*
X134997367Y-119801799D01*
X134992284Y-119800894D01*
X134918452Y-119799992D01*
X134774081Y-119798228D01*
X134774079Y-119798228D01*
X134768911Y-119798165D01*
X134548091Y-119831955D01*
X134335756Y-119901357D01*
X134305443Y-119917137D01*
X134232306Y-119955210D01*
X134137607Y-120004507D01*
X134133474Y-120007610D01*
X134133471Y-120007612D01*
X133963100Y-120135530D01*
X133958965Y-120138635D01*
X133919525Y-120179907D01*
X133865280Y-120236671D01*
X133804629Y-120300138D01*
X133801720Y-120304403D01*
X133801714Y-120304411D01*
X133790374Y-120321035D01*
X133678743Y-120484680D01*
X133652931Y-120540288D01*
X133587694Y-120680830D01*
X133584688Y-120687305D01*
X133524989Y-120902570D01*
X133501251Y-121124695D01*
X96646000Y-121124695D01*
X96646000Y-119143866D01*
X96639245Y-119081684D01*
X96588115Y-118945295D01*
X96500761Y-118828739D01*
X96384205Y-118741385D01*
X96247816Y-118690255D01*
X96185634Y-118683500D01*
X93489366Y-118683500D01*
X93427184Y-118690255D01*
X93290795Y-118741385D01*
X93174239Y-118828739D01*
X93086885Y-118945295D01*
X93035755Y-119081684D01*
X93029000Y-119143866D01*
X93029000Y-121840134D01*
X87704500Y-121840134D01*
X87704500Y-118465600D01*
X113970696Y-118465600D01*
X113971386Y-118472165D01*
X113989187Y-118641528D01*
X113990658Y-118655528D01*
X114049673Y-118837156D01*
X114052976Y-118842878D01*
X114052977Y-118842879D01*
X114066696Y-118866641D01*
X114145160Y-119002544D01*
X114272947Y-119144466D01*
X114372043Y-119216464D01*
X114420484Y-119251658D01*
X114427448Y-119256718D01*
X114433476Y-119259402D01*
X114433478Y-119259403D01*
X114595881Y-119331709D01*
X114601912Y-119334394D01*
X114695312Y-119354247D01*
X114782256Y-119372728D01*
X114782261Y-119372728D01*
X114788713Y-119374100D01*
X114979687Y-119374100D01*
X114986139Y-119372728D01*
X114986144Y-119372728D01*
X115073088Y-119354247D01*
X115166488Y-119334394D01*
X115172519Y-119331709D01*
X115334922Y-119259403D01*
X115334924Y-119259402D01*
X115340952Y-119256718D01*
X115347917Y-119251658D01*
X115396357Y-119216464D01*
X115495453Y-119144466D01*
X115623240Y-119002544D01*
X115695903Y-118876689D01*
X171648102Y-118876689D01*
X171652675Y-118886465D01*
X172718188Y-119951978D01*
X172732132Y-119959592D01*
X172733965Y-119959461D01*
X172740580Y-119955210D01*
X173805349Y-118890441D01*
X173811733Y-118878751D01*
X173802321Y-118866641D01*
X173655045Y-118764471D01*
X173647010Y-118759738D01*
X173414376Y-118645016D01*
X173405743Y-118641528D01*
X173158703Y-118562450D01*
X173149643Y-118560274D01*
X172893630Y-118518580D01*
X172884343Y-118517768D01*
X172624992Y-118514373D01*
X172615681Y-118514943D01*
X172358682Y-118549919D01*
X172349546Y-118551860D01*
X172100543Y-118624439D01*
X172091800Y-118627707D01*
X171856252Y-118736296D01*
X171848097Y-118740816D01*
X171657240Y-118865947D01*
X171648102Y-118876689D01*
X115695903Y-118876689D01*
X115701704Y-118866641D01*
X115715423Y-118842879D01*
X115715424Y-118842878D01*
X115718727Y-118837156D01*
X115777742Y-118655528D01*
X115779214Y-118641528D01*
X115797014Y-118472165D01*
X115797704Y-118465600D01*
X115777742Y-118275672D01*
X115718727Y-118094044D01*
X115623240Y-117928656D01*
X115495453Y-117786734D01*
X115340952Y-117674482D01*
X115334924Y-117671798D01*
X115334922Y-117671797D01*
X115172519Y-117599491D01*
X115172518Y-117599491D01*
X115166488Y-117596806D01*
X115073088Y-117576953D01*
X114986144Y-117558472D01*
X114986139Y-117558472D01*
X114979687Y-117557100D01*
X114788713Y-117557100D01*
X114782261Y-117558472D01*
X114782256Y-117558472D01*
X114695312Y-117576953D01*
X114601912Y-117596806D01*
X114595882Y-117599491D01*
X114595881Y-117599491D01*
X114433478Y-117671797D01*
X114433476Y-117671798D01*
X114427448Y-117674482D01*
X114272947Y-117786734D01*
X114145160Y-117928656D01*
X114049673Y-118094044D01*
X113990658Y-118275672D01*
X113970696Y-118465600D01*
X87704500Y-118465600D01*
X87704500Y-115364526D01*
X93024550Y-115364526D01*
X93037447Y-115633019D01*
X93089888Y-115896656D01*
X93180720Y-116149646D01*
X93307950Y-116386431D01*
X93310741Y-116390168D01*
X93310745Y-116390175D01*
X93345783Y-116437096D01*
X93468781Y-116601810D01*
X93472090Y-116605090D01*
X93472095Y-116605096D01*
X93652743Y-116784173D01*
X93659680Y-116791050D01*
X93663442Y-116793808D01*
X93663445Y-116793811D01*
X93872683Y-116947230D01*
X93876454Y-116949995D01*
X93880589Y-116952171D01*
X93880593Y-116952173D01*
X94078472Y-117056283D01*
X94114340Y-117075154D01*
X94368113Y-117163775D01*
X94372706Y-117164647D01*
X94627609Y-117213042D01*
X94627612Y-117213042D01*
X94632198Y-117213913D01*
X94759870Y-117218929D01*
X94896125Y-117224283D01*
X94896130Y-117224283D01*
X94900793Y-117224466D01*
X95005107Y-117213042D01*
X95163344Y-117195713D01*
X95163350Y-117195712D01*
X95167997Y-117195203D01*
X95172521Y-117194012D01*
X95423418Y-117127956D01*
X95423420Y-117127955D01*
X95427941Y-117126765D01*
X95432238Y-117124919D01*
X95670620Y-117022502D01*
X95670622Y-117022501D01*
X95674914Y-117020657D01*
X95793571Y-116947230D01*
X95899517Y-116881669D01*
X95899521Y-116881666D01*
X95903490Y-116879210D01*
X96108649Y-116705530D01*
X96285882Y-116503434D01*
X96431297Y-116277361D01*
X96541699Y-116032278D01*
X96578709Y-115901051D01*
X96613393Y-115778072D01*
X96613394Y-115778069D01*
X96614663Y-115773568D01*
X96632543Y-115633019D01*
X96648188Y-115510045D01*
X96648188Y-115510041D01*
X96648586Y-115506915D01*
X96651071Y-115412000D01*
X96635058Y-115196526D01*
X170918050Y-115196526D01*
X170930947Y-115465019D01*
X170983388Y-115728656D01*
X171074220Y-115981646D01*
X171201450Y-116218431D01*
X171204241Y-116222168D01*
X171204245Y-116222175D01*
X171285887Y-116331506D01*
X171362281Y-116433810D01*
X171365590Y-116437090D01*
X171365595Y-116437096D01*
X171549863Y-116619762D01*
X171553180Y-116623050D01*
X171556942Y-116625808D01*
X171556945Y-116625811D01*
X171669299Y-116708192D01*
X171769954Y-116781995D01*
X171774089Y-116784171D01*
X171774093Y-116784173D01*
X171959401Y-116881669D01*
X172007840Y-116907154D01*
X172261613Y-116995775D01*
X172266206Y-116996647D01*
X172521109Y-117045042D01*
X172521112Y-117045042D01*
X172525698Y-117045913D01*
X172653370Y-117050929D01*
X172789625Y-117056283D01*
X172789630Y-117056283D01*
X172794293Y-117056466D01*
X172898607Y-117045042D01*
X173056844Y-117027713D01*
X173056850Y-117027712D01*
X173061497Y-117027203D01*
X173079353Y-117022502D01*
X173316918Y-116959956D01*
X173316920Y-116959955D01*
X173321441Y-116958765D01*
X173325738Y-116956919D01*
X173564120Y-116854502D01*
X173564122Y-116854501D01*
X173568414Y-116852657D01*
X173687071Y-116779230D01*
X173793017Y-116713669D01*
X173793021Y-116713666D01*
X173796990Y-116711210D01*
X174002149Y-116537530D01*
X174179382Y-116335434D01*
X174324797Y-116109361D01*
X174435199Y-115864278D01*
X174472209Y-115733051D01*
X174506893Y-115610072D01*
X174506894Y-115610069D01*
X174508163Y-115605568D01*
X174526043Y-115465019D01*
X174541688Y-115342045D01*
X174541688Y-115342041D01*
X174542086Y-115338915D01*
X174544571Y-115244000D01*
X174533999Y-115101735D01*
X174524996Y-114980592D01*
X174524996Y-114980591D01*
X174524650Y-114975937D01*
X174503341Y-114881763D01*
X174466361Y-114718331D01*
X174466360Y-114718326D01*
X174465327Y-114713763D01*
X174367902Y-114463238D01*
X174234518Y-114229864D01*
X174203437Y-114190437D01*
X174168416Y-114146014D01*
X174068105Y-114018769D01*
X173872317Y-113834591D01*
X173651457Y-113681374D01*
X173647264Y-113679306D01*
X173414564Y-113564551D01*
X173414561Y-113564550D01*
X173410376Y-113562486D01*
X173362745Y-113547239D01*
X173308621Y-113529914D01*
X173154370Y-113480538D01*
X173149763Y-113479788D01*
X173149760Y-113479787D01*
X172893674Y-113438081D01*
X172893675Y-113438081D01*
X172889063Y-113437330D01*
X172758719Y-113435624D01*
X172624961Y-113433873D01*
X172624958Y-113433873D01*
X172620284Y-113433812D01*
X172353937Y-113470060D01*
X172095874Y-113545278D01*
X171851763Y-113657815D01*
X171847854Y-113660378D01*
X171630881Y-113802631D01*
X171630876Y-113802635D01*
X171626968Y-113805197D01*
X171426426Y-113984188D01*
X171254544Y-114190854D01*
X171115096Y-114420656D01*
X171113287Y-114424970D01*
X171113285Y-114424974D01*
X171044648Y-114588656D01*
X171011148Y-114668545D01*
X170944981Y-114929077D01*
X170918050Y-115196526D01*
X96635058Y-115196526D01*
X96631150Y-115143937D01*
X96619520Y-115092538D01*
X96572861Y-114886331D01*
X96572860Y-114886326D01*
X96571827Y-114881763D01*
X96474402Y-114631238D01*
X96341018Y-114397864D01*
X96174605Y-114186769D01*
X95978817Y-114002591D01*
X95757957Y-113849374D01*
X95753764Y-113847306D01*
X95521064Y-113732551D01*
X95521061Y-113732550D01*
X95516876Y-113730486D01*
X95469245Y-113715239D01*
X95289851Y-113657815D01*
X95260870Y-113648538D01*
X95256263Y-113647788D01*
X95256260Y-113647787D01*
X95000174Y-113606081D01*
X95000175Y-113606081D01*
X94995563Y-113605330D01*
X94865219Y-113603624D01*
X94731461Y-113601873D01*
X94731458Y-113601873D01*
X94726784Y-113601812D01*
X94460437Y-113638060D01*
X94202374Y-113713278D01*
X93958263Y-113825815D01*
X93925484Y-113847306D01*
X93737381Y-113970631D01*
X93737376Y-113970635D01*
X93733468Y-113973197D01*
X93532926Y-114152188D01*
X93361044Y-114358854D01*
X93221596Y-114588656D01*
X93219787Y-114592970D01*
X93219785Y-114592974D01*
X93167219Y-114718331D01*
X93117648Y-114836545D01*
X93051481Y-115097077D01*
X93024550Y-115364526D01*
X87704500Y-115364526D01*
X87704500Y-110284526D01*
X93024550Y-110284526D01*
X93037447Y-110553019D01*
X93089888Y-110816656D01*
X93180720Y-111069646D01*
X93307950Y-111306431D01*
X93310741Y-111310168D01*
X93310745Y-111310175D01*
X93345783Y-111357096D01*
X93468781Y-111521810D01*
X93472090Y-111525090D01*
X93472095Y-111525096D01*
X93652743Y-111704173D01*
X93659680Y-111711050D01*
X93663442Y-111713808D01*
X93663445Y-111713811D01*
X93872683Y-111867230D01*
X93876454Y-111869995D01*
X93880589Y-111872171D01*
X93880593Y-111872173D01*
X94078472Y-111976283D01*
X94114340Y-111995154D01*
X94368113Y-112083775D01*
X94372706Y-112084647D01*
X94627609Y-112133042D01*
X94627612Y-112133042D01*
X94632198Y-112133913D01*
X94759870Y-112138929D01*
X94896125Y-112144283D01*
X94896130Y-112144283D01*
X94900793Y-112144466D01*
X95005107Y-112133042D01*
X95163344Y-112115713D01*
X95163350Y-112115712D01*
X95167997Y-112115203D01*
X95172521Y-112114012D01*
X95423418Y-112047956D01*
X95423420Y-112047955D01*
X95427941Y-112046765D01*
X95432238Y-112044919D01*
X95670620Y-111942502D01*
X95670622Y-111942501D01*
X95674914Y-111940657D01*
X95793571Y-111867230D01*
X95899517Y-111801669D01*
X95899521Y-111801666D01*
X95903490Y-111799210D01*
X96108649Y-111625530D01*
X96285882Y-111423434D01*
X96431297Y-111197361D01*
X96541699Y-110952278D01*
X96578709Y-110821051D01*
X96613393Y-110698072D01*
X96613394Y-110698069D01*
X96614663Y-110693568D01*
X96632543Y-110553019D01*
X96648188Y-110430045D01*
X96648188Y-110430041D01*
X96648586Y-110426915D01*
X96651071Y-110332000D01*
X96635058Y-110116526D01*
X170918050Y-110116526D01*
X170930947Y-110385019D01*
X170983388Y-110648656D01*
X171074220Y-110901646D01*
X171201450Y-111138431D01*
X171204241Y-111142168D01*
X171204245Y-111142175D01*
X171285887Y-111251506D01*
X171362281Y-111353810D01*
X171365590Y-111357090D01*
X171365595Y-111357096D01*
X171549863Y-111539762D01*
X171553180Y-111543050D01*
X171556942Y-111545808D01*
X171556945Y-111545811D01*
X171669299Y-111628192D01*
X171769954Y-111701995D01*
X171774089Y-111704171D01*
X171774093Y-111704173D01*
X171959401Y-111801669D01*
X172007840Y-111827154D01*
X172261613Y-111915775D01*
X172266206Y-111916647D01*
X172521109Y-111965042D01*
X172521112Y-111965042D01*
X172525698Y-111965913D01*
X172653370Y-111970929D01*
X172789625Y-111976283D01*
X172789630Y-111976283D01*
X172794293Y-111976466D01*
X172898607Y-111965042D01*
X173056844Y-111947713D01*
X173056850Y-111947712D01*
X173061497Y-111947203D01*
X173079353Y-111942502D01*
X173316918Y-111879956D01*
X173316920Y-111879955D01*
X173321441Y-111878765D01*
X173325738Y-111876919D01*
X173564120Y-111774502D01*
X173564122Y-111774501D01*
X173568414Y-111772657D01*
X173687071Y-111699230D01*
X173793017Y-111633669D01*
X173793021Y-111633666D01*
X173796990Y-111631210D01*
X174002149Y-111457530D01*
X174179382Y-111255434D01*
X174324797Y-111029361D01*
X174435199Y-110784278D01*
X174472209Y-110653051D01*
X174506893Y-110530072D01*
X174506894Y-110530069D01*
X174508163Y-110525568D01*
X174526043Y-110385019D01*
X174541688Y-110262045D01*
X174541688Y-110262041D01*
X174542086Y-110258915D01*
X174544571Y-110164000D01*
X174533999Y-110021735D01*
X174524996Y-109900592D01*
X174524996Y-109900591D01*
X174524650Y-109895937D01*
X174503341Y-109801763D01*
X174466361Y-109638331D01*
X174466360Y-109638326D01*
X174465327Y-109633763D01*
X174367902Y-109383238D01*
X174234518Y-109149864D01*
X174203437Y-109110437D01*
X174168416Y-109066014D01*
X174068105Y-108938769D01*
X173872317Y-108754591D01*
X173651457Y-108601374D01*
X173647264Y-108599306D01*
X173414564Y-108484551D01*
X173414561Y-108484550D01*
X173410376Y-108482486D01*
X173362745Y-108467239D01*
X173308621Y-108449914D01*
X173154370Y-108400538D01*
X173149763Y-108399788D01*
X173149760Y-108399787D01*
X172893674Y-108358081D01*
X172893675Y-108358081D01*
X172889063Y-108357330D01*
X172758719Y-108355624D01*
X172624961Y-108353873D01*
X172624958Y-108353873D01*
X172620284Y-108353812D01*
X172353937Y-108390060D01*
X172095874Y-108465278D01*
X171851763Y-108577815D01*
X171847854Y-108580378D01*
X171630881Y-108722631D01*
X171630876Y-108722635D01*
X171626968Y-108725197D01*
X171426426Y-108904188D01*
X171254544Y-109110854D01*
X171115096Y-109340656D01*
X171113287Y-109344970D01*
X171113285Y-109344974D01*
X171044648Y-109508656D01*
X171011148Y-109588545D01*
X170944981Y-109849077D01*
X170918050Y-110116526D01*
X96635058Y-110116526D01*
X96631150Y-110063937D01*
X96619520Y-110012538D01*
X96572861Y-109806331D01*
X96572860Y-109806326D01*
X96571827Y-109801763D01*
X96474402Y-109551238D01*
X96341018Y-109317864D01*
X96174605Y-109106769D01*
X95978817Y-108922591D01*
X95757957Y-108769374D01*
X95753764Y-108767306D01*
X95521064Y-108652551D01*
X95521061Y-108652550D01*
X95516876Y-108650486D01*
X95469245Y-108635239D01*
X95289851Y-108577815D01*
X95260870Y-108568538D01*
X95256263Y-108567788D01*
X95256260Y-108567787D01*
X95000174Y-108526081D01*
X95000175Y-108526081D01*
X94995563Y-108525330D01*
X94865219Y-108523624D01*
X94731461Y-108521873D01*
X94731458Y-108521873D01*
X94726784Y-108521812D01*
X94460437Y-108558060D01*
X94202374Y-108633278D01*
X93958263Y-108745815D01*
X93925484Y-108767306D01*
X93737381Y-108890631D01*
X93737376Y-108890635D01*
X93733468Y-108893197D01*
X93532926Y-109072188D01*
X93361044Y-109278854D01*
X93221596Y-109508656D01*
X93219787Y-109512970D01*
X93219785Y-109512974D01*
X93167219Y-109638331D01*
X93117648Y-109756545D01*
X93051481Y-110017077D01*
X93024550Y-110284526D01*
X87704500Y-110284526D01*
X87704500Y-105204526D01*
X93024550Y-105204526D01*
X93037447Y-105473019D01*
X93089888Y-105736656D01*
X93180720Y-105989646D01*
X93307950Y-106226431D01*
X93310741Y-106230168D01*
X93310745Y-106230175D01*
X93345783Y-106277096D01*
X93468781Y-106441810D01*
X93472090Y-106445090D01*
X93472095Y-106445096D01*
X93652743Y-106624173D01*
X93659680Y-106631050D01*
X93663442Y-106633808D01*
X93663445Y-106633811D01*
X93872683Y-106787230D01*
X93876454Y-106789995D01*
X93880589Y-106792171D01*
X93880593Y-106792173D01*
X94078472Y-106896283D01*
X94114340Y-106915154D01*
X94368113Y-107003775D01*
X94372706Y-107004647D01*
X94627609Y-107053042D01*
X94627612Y-107053042D01*
X94632198Y-107053913D01*
X94759870Y-107058929D01*
X94896125Y-107064283D01*
X94896130Y-107064283D01*
X94900793Y-107064466D01*
X95005107Y-107053042D01*
X95163344Y-107035713D01*
X95163350Y-107035712D01*
X95167997Y-107035203D01*
X95172521Y-107034012D01*
X95423418Y-106967956D01*
X95423420Y-106967955D01*
X95427941Y-106966765D01*
X95432238Y-106964919D01*
X95670620Y-106862502D01*
X95670622Y-106862501D01*
X95674914Y-106860657D01*
X95793571Y-106787230D01*
X95899517Y-106721669D01*
X95899521Y-106721666D01*
X95903490Y-106719210D01*
X96108649Y-106545530D01*
X96285882Y-106343434D01*
X96431297Y-106117361D01*
X96541699Y-105872278D01*
X96578709Y-105741051D01*
X96613393Y-105618072D01*
X96613394Y-105618069D01*
X96614663Y-105613568D01*
X96632543Y-105473019D01*
X96648188Y-105350045D01*
X96648188Y-105350041D01*
X96648586Y-105346915D01*
X96651071Y-105252000D01*
X96635058Y-105036526D01*
X170918050Y-105036526D01*
X170930947Y-105305019D01*
X170983388Y-105568656D01*
X171074220Y-105821646D01*
X171201450Y-106058431D01*
X171204241Y-106062168D01*
X171204245Y-106062175D01*
X171285887Y-106171506D01*
X171362281Y-106273810D01*
X171365590Y-106277090D01*
X171365595Y-106277096D01*
X171549863Y-106459762D01*
X171553180Y-106463050D01*
X171556942Y-106465808D01*
X171556945Y-106465811D01*
X171669299Y-106548192D01*
X171769954Y-106621995D01*
X171774089Y-106624171D01*
X171774093Y-106624173D01*
X171959401Y-106721669D01*
X172007840Y-106747154D01*
X172261613Y-106835775D01*
X172266206Y-106836647D01*
X172521109Y-106885042D01*
X172521112Y-106885042D01*
X172525698Y-106885913D01*
X172653370Y-106890929D01*
X172789625Y-106896283D01*
X172789630Y-106896283D01*
X172794293Y-106896466D01*
X172898607Y-106885042D01*
X173056844Y-106867713D01*
X173056850Y-106867712D01*
X173061497Y-106867203D01*
X173079353Y-106862502D01*
X173316918Y-106799956D01*
X173316920Y-106799955D01*
X173321441Y-106798765D01*
X173325738Y-106796919D01*
X173564120Y-106694502D01*
X173564122Y-106694501D01*
X173568414Y-106692657D01*
X173687071Y-106619230D01*
X173793017Y-106553669D01*
X173793021Y-106553666D01*
X173796990Y-106551210D01*
X174002149Y-106377530D01*
X174179382Y-106175434D01*
X174324797Y-105949361D01*
X174435199Y-105704278D01*
X174472209Y-105573051D01*
X174506893Y-105450072D01*
X174506894Y-105450069D01*
X174508163Y-105445568D01*
X174526043Y-105305019D01*
X174541688Y-105182045D01*
X174541688Y-105182041D01*
X174542086Y-105178915D01*
X174544571Y-105084000D01*
X174533999Y-104941735D01*
X174524996Y-104820592D01*
X174524996Y-104820591D01*
X174524650Y-104815937D01*
X174523619Y-104811379D01*
X174466361Y-104558331D01*
X174466360Y-104558326D01*
X174465327Y-104553763D01*
X174367902Y-104303238D01*
X174234518Y-104069864D01*
X174203437Y-104030437D01*
X174089572Y-103886000D01*
X174068105Y-103858769D01*
X173872317Y-103674591D01*
X173651457Y-103521374D01*
X173647264Y-103519306D01*
X173414564Y-103404551D01*
X173414561Y-103404550D01*
X173410376Y-103402486D01*
X173362745Y-103387239D01*
X173228143Y-103344153D01*
X173154370Y-103320538D01*
X173149763Y-103319788D01*
X173149760Y-103319787D01*
X172893674Y-103278081D01*
X172893675Y-103278081D01*
X172889063Y-103277330D01*
X172758719Y-103275624D01*
X172624961Y-103273873D01*
X172624958Y-103273873D01*
X172620284Y-103273812D01*
X172353937Y-103310060D01*
X172095874Y-103385278D01*
X172091621Y-103387238D01*
X172091620Y-103387239D01*
X172061634Y-103401063D01*
X171851763Y-103497815D01*
X171847854Y-103500378D01*
X171630881Y-103642631D01*
X171630876Y-103642635D01*
X171626968Y-103645197D01*
X171426426Y-103824188D01*
X171254544Y-104030854D01*
X171115096Y-104260656D01*
X171113287Y-104264970D01*
X171113285Y-104264974D01*
X171044985Y-104427852D01*
X171011148Y-104508545D01*
X170944981Y-104769077D01*
X170918050Y-105036526D01*
X96635058Y-105036526D01*
X96631150Y-104983937D01*
X96619520Y-104932538D01*
X96572861Y-104726331D01*
X96572860Y-104726326D01*
X96571827Y-104721763D01*
X96474402Y-104471238D01*
X96341018Y-104237864D01*
X96174605Y-104026769D01*
X95978817Y-103842591D01*
X95757957Y-103689374D01*
X95753764Y-103687306D01*
X95521064Y-103572551D01*
X95521061Y-103572550D01*
X95516876Y-103570486D01*
X95501210Y-103565471D01*
X95341800Y-103514444D01*
X95260870Y-103488538D01*
X95256263Y-103487788D01*
X95256260Y-103487787D01*
X95000174Y-103446081D01*
X95000175Y-103446081D01*
X94995563Y-103445330D01*
X94865219Y-103443624D01*
X94731461Y-103441873D01*
X94731458Y-103441873D01*
X94726784Y-103441812D01*
X94460437Y-103478060D01*
X94202374Y-103553278D01*
X93958263Y-103665815D01*
X93925484Y-103687306D01*
X93737381Y-103810631D01*
X93737376Y-103810635D01*
X93733468Y-103813197D01*
X93532926Y-103992188D01*
X93361044Y-104198854D01*
X93221596Y-104428656D01*
X93219787Y-104432970D01*
X93219785Y-104432974D01*
X93167219Y-104558331D01*
X93117648Y-104676545D01*
X93051481Y-104937077D01*
X93024550Y-105204526D01*
X87704500Y-105204526D01*
X87704500Y-103200200D01*
X118999896Y-103200200D01*
X119000586Y-103206765D01*
X119014097Y-103335311D01*
X119019858Y-103390128D01*
X119078873Y-103571756D01*
X119174360Y-103737144D01*
X119178778Y-103742051D01*
X119178779Y-103742052D01*
X119287174Y-103862437D01*
X119302147Y-103879066D01*
X119456648Y-103991318D01*
X119462676Y-103994002D01*
X119462678Y-103994003D01*
X119554416Y-104034847D01*
X119631112Y-104068994D01*
X119724512Y-104088847D01*
X119811456Y-104107328D01*
X119811461Y-104107328D01*
X119817913Y-104108700D01*
X120008887Y-104108700D01*
X120015339Y-104107328D01*
X120015344Y-104107328D01*
X120102287Y-104088847D01*
X120195688Y-104068994D01*
X120272384Y-104034847D01*
X120364122Y-103994003D01*
X120364124Y-103994002D01*
X120370152Y-103991318D01*
X120524653Y-103879066D01*
X120539626Y-103862437D01*
X120648021Y-103742052D01*
X120648022Y-103742051D01*
X120652440Y-103737144D01*
X120747927Y-103571756D01*
X120806942Y-103390128D01*
X120812704Y-103335311D01*
X120826214Y-103206765D01*
X120826904Y-103200200D01*
X120806942Y-103010272D01*
X120761844Y-102871476D01*
X120759816Y-102800509D01*
X120788041Y-102748230D01*
X120876621Y-102649852D01*
X120876622Y-102649851D01*
X120881040Y-102644944D01*
X120976527Y-102479556D01*
X121035542Y-102297928D01*
X121055504Y-102108000D01*
X121051186Y-102066912D01*
X121036232Y-101924635D01*
X121036232Y-101924633D01*
X121035542Y-101918072D01*
X120976527Y-101736444D01*
X120881040Y-101571056D01*
X120770634Y-101448437D01*
X120757675Y-101434045D01*
X120757674Y-101434044D01*
X120753253Y-101429134D01*
X120598752Y-101316882D01*
X120592724Y-101314198D01*
X120592722Y-101314197D01*
X120430319Y-101241891D01*
X120430318Y-101241891D01*
X120424288Y-101239206D01*
X120330888Y-101219353D01*
X120243944Y-101200872D01*
X120243939Y-101200872D01*
X120237487Y-101199500D01*
X120046513Y-101199500D01*
X120040061Y-101200872D01*
X120040056Y-101200872D01*
X119953113Y-101219353D01*
X119859712Y-101239206D01*
X119853682Y-101241891D01*
X119853681Y-101241891D01*
X119691278Y-101314197D01*
X119691276Y-101314198D01*
X119685248Y-101316882D01*
X119530747Y-101429134D01*
X119526326Y-101434044D01*
X119526325Y-101434045D01*
X119513367Y-101448437D01*
X119402960Y-101571056D01*
X119307473Y-101736444D01*
X119248458Y-101918072D01*
X119247768Y-101924633D01*
X119247768Y-101924635D01*
X119232814Y-102066912D01*
X119228496Y-102108000D01*
X119248458Y-102297928D01*
X119250498Y-102304206D01*
X119293556Y-102436724D01*
X119295584Y-102507691D01*
X119267359Y-102559970D01*
X119222821Y-102609435D01*
X119174360Y-102663256D01*
X119171059Y-102668974D01*
X119088364Y-102812206D01*
X119078873Y-102828644D01*
X119019858Y-103010272D01*
X118999896Y-103200200D01*
X87704500Y-103200200D01*
X87704500Y-101616906D01*
X93757339Y-101616906D01*
X93766053Y-101628427D01*
X93872952Y-101706809D01*
X93880851Y-101711745D01*
X94110405Y-101832519D01*
X94118954Y-101836236D01*
X94363827Y-101921749D01*
X94372836Y-101924163D01*
X94627666Y-101972544D01*
X94636923Y-101973598D01*
X94896107Y-101983783D01*
X94905421Y-101983457D01*
X95163253Y-101955220D01*
X95172430Y-101953519D01*
X95423258Y-101887481D01*
X95432074Y-101884445D01*
X95670380Y-101782062D01*
X95678667Y-101777748D01*
X95899218Y-101641266D01*
X95906768Y-101635780D01*
X95912059Y-101631301D01*
X95920497Y-101618497D01*
X95914435Y-101608145D01*
X94850312Y-100544022D01*
X94836368Y-100536408D01*
X94834535Y-100536539D01*
X94827920Y-100540790D01*
X93763997Y-101604713D01*
X93757339Y-101616906D01*
X87704500Y-101616906D01*
X87704500Y-100129211D01*
X93025275Y-100129211D01*
X93037720Y-100388288D01*
X93038856Y-100397543D01*
X93089461Y-100651945D01*
X93091949Y-100660917D01*
X93179595Y-100905033D01*
X93183395Y-100913568D01*
X93306158Y-101142042D01*
X93311166Y-101149904D01*
X93381220Y-101243716D01*
X93392479Y-101252165D01*
X93404897Y-101245393D01*
X94465478Y-100184812D01*
X94471856Y-100173132D01*
X95201908Y-100173132D01*
X95202039Y-100174965D01*
X95206290Y-100181580D01*
X96273594Y-101248884D01*
X96285974Y-101255644D01*
X96294315Y-101249400D01*
X96395558Y-101092000D01*
X110338496Y-101092000D01*
X110339186Y-101098565D01*
X110356619Y-101264427D01*
X110358458Y-101281928D01*
X110417473Y-101463556D01*
X110512960Y-101628944D01*
X110517378Y-101633851D01*
X110517379Y-101633852D01*
X110631598Y-101760705D01*
X110640747Y-101770866D01*
X110795248Y-101883118D01*
X110801276Y-101885802D01*
X110801278Y-101885803D01*
X110963681Y-101958109D01*
X110969712Y-101960794D01*
X111063113Y-101980647D01*
X111150056Y-101999128D01*
X111150061Y-101999128D01*
X111156513Y-102000500D01*
X111347487Y-102000500D01*
X111353939Y-101999128D01*
X111353944Y-101999128D01*
X111440887Y-101980647D01*
X111534288Y-101960794D01*
X111540319Y-101958109D01*
X111702722Y-101885803D01*
X111702724Y-101885802D01*
X111708752Y-101883118D01*
X111863253Y-101770866D01*
X111872402Y-101760705D01*
X111986621Y-101633852D01*
X111986622Y-101633851D01*
X111991040Y-101628944D01*
X112086527Y-101463556D01*
X112145542Y-101281928D01*
X112147382Y-101264427D01*
X112164814Y-101098565D01*
X112165504Y-101092000D01*
X112145542Y-100902072D01*
X112086527Y-100720444D01*
X112007751Y-100584000D01*
X126918156Y-100584000D01*
X126938694Y-100818745D01*
X126940118Y-100824059D01*
X126940118Y-100824060D01*
X126961815Y-100905033D01*
X126999682Y-101046358D01*
X127002004Y-101051338D01*
X127002005Y-101051340D01*
X127071094Y-101199500D01*
X127099269Y-101259922D01*
X127234427Y-101452949D01*
X127401051Y-101619573D01*
X127594078Y-101754731D01*
X127599056Y-101757052D01*
X127599059Y-101757054D01*
X127752839Y-101828763D01*
X127807642Y-101854318D01*
X127812950Y-101855740D01*
X127812952Y-101855741D01*
X127961727Y-101895605D01*
X128022350Y-101932557D01*
X128053371Y-101996417D01*
X128044943Y-102066912D01*
X128038236Y-102080310D01*
X127943473Y-102244444D01*
X127884458Y-102426072D01*
X127883768Y-102432633D01*
X127883768Y-102432635D01*
X127874446Y-102521334D01*
X127864496Y-102616000D01*
X127865186Y-102622565D01*
X127882455Y-102786866D01*
X127884458Y-102805928D01*
X127943473Y-102987556D01*
X127946776Y-102993278D01*
X127946777Y-102993279D01*
X127956588Y-103010272D01*
X128038960Y-103152944D01*
X128051338Y-103166691D01*
X128082054Y-103230697D01*
X128073290Y-103301150D01*
X128051339Y-103335307D01*
X128038960Y-103349056D01*
X127943473Y-103514444D01*
X127884458Y-103696072D01*
X127883768Y-103702633D01*
X127883768Y-103702635D01*
X127872148Y-103813197D01*
X127864496Y-103886000D01*
X127865186Y-103892565D01*
X127879721Y-104030854D01*
X127884458Y-104075928D01*
X127943473Y-104257556D01*
X128038960Y-104422944D01*
X128166747Y-104564866D01*
X128265843Y-104636864D01*
X128314522Y-104672231D01*
X128321248Y-104677118D01*
X128327276Y-104679802D01*
X128327278Y-104679803D01*
X128489681Y-104752109D01*
X128495712Y-104754794D01*
X128584822Y-104773735D01*
X128676056Y-104793128D01*
X128676061Y-104793128D01*
X128682513Y-104794500D01*
X128873487Y-104794500D01*
X128879939Y-104793128D01*
X128879944Y-104793128D01*
X128971178Y-104773735D01*
X129060288Y-104754794D01*
X129066319Y-104752109D01*
X129228722Y-104679803D01*
X129228724Y-104679802D01*
X129234752Y-104677118D01*
X129241479Y-104672231D01*
X129290157Y-104636864D01*
X129389253Y-104564866D01*
X129517040Y-104422944D01*
X129612527Y-104257556D01*
X129671542Y-104075928D01*
X129676280Y-104030854D01*
X129690814Y-103892565D01*
X129691504Y-103886000D01*
X129683852Y-103813197D01*
X129672232Y-103702635D01*
X129672232Y-103702633D01*
X129671542Y-103696072D01*
X129612527Y-103514444D01*
X129517040Y-103349056D01*
X129504662Y-103335309D01*
X129473946Y-103271303D01*
X129482710Y-103200850D01*
X129504661Y-103166693D01*
X129517040Y-103152944D01*
X129599412Y-103010272D01*
X129609223Y-102993279D01*
X129609224Y-102993278D01*
X129612527Y-102987556D01*
X129671542Y-102805928D01*
X129673546Y-102786866D01*
X129690814Y-102622565D01*
X129691504Y-102616000D01*
X129681554Y-102521334D01*
X129672232Y-102432635D01*
X129672232Y-102432633D01*
X129671542Y-102426072D01*
X129612527Y-102244444D01*
X129517040Y-102079056D01*
X129430963Y-101983457D01*
X129393675Y-101942045D01*
X129393674Y-101942044D01*
X129389253Y-101937134D01*
X129272070Y-101851995D01*
X129240094Y-101828763D01*
X129240093Y-101828762D01*
X129234752Y-101824882D01*
X129228717Y-101822195D01*
X129193883Y-101806685D01*
X129139788Y-101760705D01*
X129119139Y-101692777D01*
X129138492Y-101624470D01*
X129156038Y-101602484D01*
X129305573Y-101452949D01*
X129376164Y-101352134D01*
X170922500Y-101352134D01*
X170929255Y-101414316D01*
X170980385Y-101550705D01*
X171067739Y-101667261D01*
X171184295Y-101754615D01*
X171320684Y-101805745D01*
X171382866Y-101812500D01*
X174079134Y-101812500D01*
X174141316Y-101805745D01*
X174277705Y-101754615D01*
X174394261Y-101667261D01*
X174481615Y-101550705D01*
X174532745Y-101414316D01*
X174539500Y-101352134D01*
X174539500Y-98655866D01*
X174532745Y-98593684D01*
X174481615Y-98457295D01*
X174394261Y-98340739D01*
X174277705Y-98253385D01*
X174141316Y-98202255D01*
X174079134Y-98195500D01*
X171382866Y-98195500D01*
X171320684Y-98202255D01*
X171184295Y-98253385D01*
X171067739Y-98340739D01*
X170980385Y-98457295D01*
X170929255Y-98593684D01*
X170922500Y-98655866D01*
X170922500Y-101352134D01*
X129376164Y-101352134D01*
X129440731Y-101259922D01*
X129468907Y-101199500D01*
X129537995Y-101051340D01*
X129537996Y-101051338D01*
X129540318Y-101046358D01*
X129578186Y-100905033D01*
X129599882Y-100824060D01*
X129599882Y-100824059D01*
X129601306Y-100818745D01*
X129621844Y-100584000D01*
X129601306Y-100349255D01*
X129553017Y-100169035D01*
X129541741Y-100126952D01*
X129541740Y-100126950D01*
X129540318Y-100121642D01*
X129440731Y-99908078D01*
X129305573Y-99715051D01*
X129138949Y-99548427D01*
X128945922Y-99413269D01*
X128940944Y-99410948D01*
X128940941Y-99410946D01*
X128737340Y-99316005D01*
X128737338Y-99316004D01*
X128732358Y-99313682D01*
X128727050Y-99312260D01*
X128727048Y-99312259D01*
X128510060Y-99254118D01*
X128510059Y-99254118D01*
X128504745Y-99252694D01*
X128270000Y-99232156D01*
X128035255Y-99252694D01*
X128029941Y-99254118D01*
X128029940Y-99254118D01*
X127812952Y-99312259D01*
X127812950Y-99312260D01*
X127807642Y-99313682D01*
X127802662Y-99316004D01*
X127802660Y-99316005D01*
X127599059Y-99410946D01*
X127599056Y-99410948D01*
X127594078Y-99413269D01*
X127401051Y-99548427D01*
X127234427Y-99715051D01*
X127099269Y-99908078D01*
X126999682Y-100121642D01*
X126998260Y-100126950D01*
X126998259Y-100126952D01*
X126986983Y-100169035D01*
X126938694Y-100349255D01*
X126918156Y-100584000D01*
X112007751Y-100584000D01*
X111991040Y-100555056D01*
X111863253Y-100413134D01*
X111708752Y-100300882D01*
X111702724Y-100298198D01*
X111702722Y-100298197D01*
X111540319Y-100225891D01*
X111540318Y-100225891D01*
X111534288Y-100223206D01*
X111440888Y-100203353D01*
X111353944Y-100184872D01*
X111353939Y-100184872D01*
X111347487Y-100183500D01*
X111156513Y-100183500D01*
X111150061Y-100184872D01*
X111150056Y-100184872D01*
X111063112Y-100203353D01*
X110969712Y-100223206D01*
X110963682Y-100225891D01*
X110963681Y-100225891D01*
X110801278Y-100298197D01*
X110801276Y-100298198D01*
X110795248Y-100300882D01*
X110640747Y-100413134D01*
X110512960Y-100555056D01*
X110417473Y-100720444D01*
X110358458Y-100902072D01*
X110338496Y-101092000D01*
X96395558Y-101092000D01*
X96428332Y-101041048D01*
X96432775Y-101032864D01*
X96539307Y-100796370D01*
X96542497Y-100787605D01*
X96612902Y-100537972D01*
X96614762Y-100528830D01*
X96647687Y-100270019D01*
X96648168Y-100263733D01*
X96650487Y-100175160D01*
X96650336Y-100168851D01*
X96631001Y-99908663D01*
X96629625Y-99899457D01*
X96572378Y-99646467D01*
X96569654Y-99637556D01*
X96475643Y-99395806D01*
X96471632Y-99387397D01*
X96342922Y-99162202D01*
X96337711Y-99154476D01*
X96294496Y-99099658D01*
X96282571Y-99091187D01*
X96271037Y-99097673D01*
X95209522Y-100159188D01*
X95201908Y-100173132D01*
X94471856Y-100173132D01*
X94473092Y-100170868D01*
X94472961Y-100169035D01*
X94468710Y-100162420D01*
X93403316Y-99097026D01*
X93390007Y-99089758D01*
X93379972Y-99096878D01*
X93364437Y-99115556D01*
X93359031Y-99123135D01*
X93224465Y-99344891D01*
X93220236Y-99353192D01*
X93119932Y-99592389D01*
X93116971Y-99601239D01*
X93053128Y-99852625D01*
X93051506Y-99861822D01*
X93025520Y-100119885D01*
X93025275Y-100129211D01*
X87704500Y-100129211D01*
X87704500Y-98724689D01*
X93754602Y-98724689D01*
X93759175Y-98734465D01*
X94824688Y-99799978D01*
X94838632Y-99807592D01*
X94840465Y-99807461D01*
X94847080Y-99803210D01*
X95911849Y-98738441D01*
X95918233Y-98726751D01*
X95908821Y-98714641D01*
X95761545Y-98612471D01*
X95753510Y-98607738D01*
X95520876Y-98493016D01*
X95512243Y-98489528D01*
X95265203Y-98410450D01*
X95256143Y-98408274D01*
X95202882Y-98399600D01*
X106985696Y-98399600D01*
X107005658Y-98589528D01*
X107064673Y-98771156D01*
X107067976Y-98776878D01*
X107067977Y-98776879D01*
X107101886Y-98835610D01*
X107160160Y-98936544D01*
X107164578Y-98941451D01*
X107164579Y-98941452D01*
X107219282Y-99002206D01*
X107287947Y-99078466D01*
X107387043Y-99150464D01*
X107415682Y-99171271D01*
X107442448Y-99190718D01*
X107448476Y-99193402D01*
X107448478Y-99193403D01*
X107580573Y-99252215D01*
X107616912Y-99268394D01*
X107710313Y-99288247D01*
X107797256Y-99306728D01*
X107797261Y-99306728D01*
X107803713Y-99308100D01*
X107994687Y-99308100D01*
X108001139Y-99306728D01*
X108001144Y-99306728D01*
X108088087Y-99288247D01*
X108181488Y-99268394D01*
X108217827Y-99252215D01*
X108349922Y-99193403D01*
X108349924Y-99193402D01*
X108355952Y-99190718D01*
X108382719Y-99171271D01*
X108411357Y-99150464D01*
X108510453Y-99078466D01*
X108579118Y-99002206D01*
X108633821Y-98941452D01*
X108633822Y-98941451D01*
X108638240Y-98936544D01*
X108696514Y-98835610D01*
X108713610Y-98806000D01*
X119228496Y-98806000D01*
X119229186Y-98812565D01*
X119242217Y-98936544D01*
X119248458Y-98995928D01*
X119307473Y-99177556D01*
X119402960Y-99342944D01*
X119407378Y-99347851D01*
X119407379Y-99347852D01*
X119526325Y-99479955D01*
X119530747Y-99484866D01*
X119685248Y-99597118D01*
X119691276Y-99599802D01*
X119691278Y-99599803D01*
X119796088Y-99646467D01*
X119859712Y-99674794D01*
X119953113Y-99694647D01*
X120040056Y-99713128D01*
X120040061Y-99713128D01*
X120046513Y-99714500D01*
X120237487Y-99714500D01*
X120243939Y-99713128D01*
X120243944Y-99713128D01*
X120330887Y-99694647D01*
X120424288Y-99674794D01*
X120487912Y-99646467D01*
X120592722Y-99599803D01*
X120592724Y-99599802D01*
X120598752Y-99597118D01*
X120753253Y-99484866D01*
X120757675Y-99479955D01*
X120876621Y-99347852D01*
X120876622Y-99347851D01*
X120881040Y-99342944D01*
X120976527Y-99177556D01*
X121035542Y-98995928D01*
X121041784Y-98936544D01*
X121054814Y-98812565D01*
X121055504Y-98806000D01*
X121048403Y-98738441D01*
X121036232Y-98622635D01*
X121036232Y-98622633D01*
X121035542Y-98616072D01*
X120976527Y-98434444D01*
X120952620Y-98393035D01*
X120922426Y-98340739D01*
X120881040Y-98269056D01*
X120871780Y-98258771D01*
X120757675Y-98132045D01*
X120757674Y-98132044D01*
X120753253Y-98127134D01*
X120654157Y-98055136D01*
X120604094Y-98018763D01*
X120604093Y-98018762D01*
X120598752Y-98014882D01*
X120592724Y-98012198D01*
X120592722Y-98012197D01*
X120430319Y-97939891D01*
X120430318Y-97939891D01*
X120424288Y-97937206D01*
X120330887Y-97917353D01*
X120243944Y-97898872D01*
X120243939Y-97898872D01*
X120237487Y-97897500D01*
X120046513Y-97897500D01*
X120040061Y-97898872D01*
X120040056Y-97898872D01*
X119953112Y-97917353D01*
X119859712Y-97937206D01*
X119853682Y-97939891D01*
X119853681Y-97939891D01*
X119691278Y-98012197D01*
X119691276Y-98012198D01*
X119685248Y-98014882D01*
X119679907Y-98018762D01*
X119679906Y-98018763D01*
X119629843Y-98055136D01*
X119530747Y-98127134D01*
X119526326Y-98132044D01*
X119526325Y-98132045D01*
X119412221Y-98258771D01*
X119402960Y-98269056D01*
X119361574Y-98340739D01*
X119331381Y-98393035D01*
X119307473Y-98434444D01*
X119248458Y-98616072D01*
X119247768Y-98622633D01*
X119247768Y-98622635D01*
X119235597Y-98738441D01*
X119228496Y-98806000D01*
X108713610Y-98806000D01*
X108730423Y-98776879D01*
X108730424Y-98776878D01*
X108733727Y-98771156D01*
X108792742Y-98589528D01*
X108812704Y-98399600D01*
X108812014Y-98393035D01*
X108793432Y-98216235D01*
X108793432Y-98216233D01*
X108792742Y-98209672D01*
X108733727Y-98028044D01*
X108638240Y-97862656D01*
X108510453Y-97720734D01*
X108355952Y-97608482D01*
X108349924Y-97605798D01*
X108349922Y-97605797D01*
X108187519Y-97533491D01*
X108187518Y-97533491D01*
X108181488Y-97530806D01*
X108088088Y-97510953D01*
X108001144Y-97492472D01*
X108001139Y-97492472D01*
X107994687Y-97491100D01*
X107803713Y-97491100D01*
X107797261Y-97492472D01*
X107797256Y-97492472D01*
X107710312Y-97510953D01*
X107616912Y-97530806D01*
X107610882Y-97533491D01*
X107610881Y-97533491D01*
X107448478Y-97605797D01*
X107448476Y-97605798D01*
X107442448Y-97608482D01*
X107287947Y-97720734D01*
X107160160Y-97862656D01*
X107064673Y-98028044D01*
X107005658Y-98209672D01*
X107004968Y-98216233D01*
X107004968Y-98216235D01*
X106986386Y-98393035D01*
X106985696Y-98399600D01*
X95202882Y-98399600D01*
X95000130Y-98366580D01*
X94990843Y-98365768D01*
X94731492Y-98362373D01*
X94722181Y-98362943D01*
X94465182Y-98397919D01*
X94456046Y-98399860D01*
X94207043Y-98472439D01*
X94198300Y-98475707D01*
X93962752Y-98584296D01*
X93954597Y-98588816D01*
X93763740Y-98713947D01*
X93754602Y-98724689D01*
X87704500Y-98724689D01*
X87704500Y-94408906D01*
X171629839Y-94408906D01*
X171638553Y-94420427D01*
X171745452Y-94498809D01*
X171753351Y-94503745D01*
X171982905Y-94624519D01*
X171991454Y-94628236D01*
X172236327Y-94713749D01*
X172245336Y-94716163D01*
X172500166Y-94764544D01*
X172509423Y-94765598D01*
X172768607Y-94775783D01*
X172777921Y-94775457D01*
X173035753Y-94747220D01*
X173044930Y-94745519D01*
X173295758Y-94679481D01*
X173304574Y-94676445D01*
X173542880Y-94574062D01*
X173551167Y-94569748D01*
X173771718Y-94433266D01*
X173779268Y-94427780D01*
X173784559Y-94423301D01*
X173792997Y-94410497D01*
X173786935Y-94400145D01*
X172722812Y-93336022D01*
X172708868Y-93328408D01*
X172707035Y-93328539D01*
X172700420Y-93332790D01*
X171636497Y-94396713D01*
X171629839Y-94408906D01*
X87704500Y-94408906D01*
X87704500Y-92921211D01*
X170897775Y-92921211D01*
X170910220Y-93180288D01*
X170911356Y-93189543D01*
X170961961Y-93443945D01*
X170964449Y-93452917D01*
X171052095Y-93697033D01*
X171055895Y-93705568D01*
X171178658Y-93934042D01*
X171183666Y-93941904D01*
X171253720Y-94035716D01*
X171264979Y-94044165D01*
X171277397Y-94037393D01*
X172337978Y-92976812D01*
X172344356Y-92965132D01*
X173074408Y-92965132D01*
X173074539Y-92966965D01*
X173078790Y-92973580D01*
X174146094Y-94040884D01*
X174158474Y-94047644D01*
X174166815Y-94041400D01*
X174300832Y-93833048D01*
X174305275Y-93824864D01*
X174411807Y-93588370D01*
X174414997Y-93579605D01*
X174485402Y-93329972D01*
X174487262Y-93320830D01*
X174520187Y-93062019D01*
X174520668Y-93055733D01*
X174522987Y-92967160D01*
X174522836Y-92960851D01*
X174503501Y-92700663D01*
X174502125Y-92691457D01*
X174444878Y-92438467D01*
X174442154Y-92429556D01*
X174348143Y-92187806D01*
X174344132Y-92179397D01*
X174215422Y-91954202D01*
X174210211Y-91946476D01*
X174166996Y-91891658D01*
X174155071Y-91883187D01*
X174143537Y-91889673D01*
X173082022Y-92951188D01*
X173074408Y-92965132D01*
X172344356Y-92965132D01*
X172345592Y-92962868D01*
X172345461Y-92961035D01*
X172341210Y-92954420D01*
X171275816Y-91889026D01*
X171262507Y-91881758D01*
X171252472Y-91888878D01*
X171236937Y-91907556D01*
X171231531Y-91915135D01*
X171096965Y-92136891D01*
X171092736Y-92145192D01*
X170992432Y-92384389D01*
X170989471Y-92393239D01*
X170925628Y-92644625D01*
X170924006Y-92653822D01*
X170898020Y-92911885D01*
X170897775Y-92921211D01*
X87704500Y-92921211D01*
X87704500Y-92273928D01*
X87724502Y-92205807D01*
X87778158Y-92159314D01*
X87848432Y-92149210D01*
X87878493Y-92157655D01*
X87881891Y-92159523D01*
X88075084Y-92220807D01*
X88081201Y-92221493D01*
X88081205Y-92221494D01*
X88155348Y-92229810D01*
X88232817Y-92238500D01*
X89192004Y-92238500D01*
X89342713Y-92223723D01*
X89536742Y-92165142D01*
X89715698Y-92069990D01*
X89725494Y-92062001D01*
X89867987Y-91945785D01*
X89872763Y-91941890D01*
X89894897Y-91915135D01*
X89998027Y-91790472D01*
X89998029Y-91790469D01*
X90001956Y-91785722D01*
X90098356Y-91607435D01*
X90126447Y-91516689D01*
X171627102Y-91516689D01*
X171631675Y-91526465D01*
X172697188Y-92591978D01*
X172711132Y-92599592D01*
X172712965Y-92599461D01*
X172719580Y-92595210D01*
X173784349Y-91530441D01*
X173790733Y-91518751D01*
X173781321Y-91506641D01*
X173634045Y-91404471D01*
X173626010Y-91399738D01*
X173393376Y-91285016D01*
X173384743Y-91281528D01*
X173137703Y-91202450D01*
X173128643Y-91200274D01*
X172872630Y-91158580D01*
X172863343Y-91157768D01*
X172603992Y-91154373D01*
X172594681Y-91154943D01*
X172337682Y-91189919D01*
X172328546Y-91191860D01*
X172079543Y-91264439D01*
X172070800Y-91267707D01*
X171835252Y-91376296D01*
X171827097Y-91380816D01*
X171636240Y-91505947D01*
X171627102Y-91516689D01*
X90126447Y-91516689D01*
X90158290Y-91413820D01*
X90179476Y-91212250D01*
X90161106Y-91010404D01*
X90103881Y-90815971D01*
X90009981Y-90636355D01*
X89882981Y-90478399D01*
X89727719Y-90348119D01*
X89722327Y-90345155D01*
X89722323Y-90345152D01*
X89555506Y-90253444D01*
X89550109Y-90250477D01*
X89356916Y-90189193D01*
X89350799Y-90188507D01*
X89350795Y-90188506D01*
X89276652Y-90180190D01*
X89199183Y-90171500D01*
X88239996Y-90171500D01*
X88089287Y-90186277D01*
X87895258Y-90244858D01*
X87889818Y-90247751D01*
X87889812Y-90247753D01*
X87889650Y-90247839D01*
X87889556Y-90247858D01*
X87884117Y-90250100D01*
X87883691Y-90249066D01*
X87820112Y-90262157D01*
X87753872Y-90236607D01*
X87711961Y-90179301D01*
X87704500Y-90136586D01*
X87704500Y-88392000D01*
X131744156Y-88392000D01*
X131764694Y-88626745D01*
X131825682Y-88854358D01*
X131925269Y-89067922D01*
X132060427Y-89260949D01*
X132227051Y-89427573D01*
X132420078Y-89562731D01*
X132425056Y-89565052D01*
X132425059Y-89565054D01*
X132628660Y-89659995D01*
X132633642Y-89662318D01*
X132638950Y-89663740D01*
X132638952Y-89663741D01*
X132855940Y-89721882D01*
X132861255Y-89723306D01*
X133096000Y-89743844D01*
X133330745Y-89723306D01*
X133336060Y-89721882D01*
X133553048Y-89663741D01*
X133553050Y-89663740D01*
X133558358Y-89662318D01*
X133563340Y-89659995D01*
X133766941Y-89565054D01*
X133766944Y-89565052D01*
X133771922Y-89562731D01*
X133964949Y-89427573D01*
X134131573Y-89260949D01*
X134266731Y-89067922D01*
X134366318Y-88854358D01*
X134427306Y-88626745D01*
X134447844Y-88392000D01*
X134427306Y-88157255D01*
X134366318Y-87929642D01*
X134322897Y-87836526D01*
X170897050Y-87836526D01*
X170909947Y-88105019D01*
X170962388Y-88368656D01*
X171053220Y-88621646D01*
X171055432Y-88625762D01*
X171055433Y-88625765D01*
X171119555Y-88745100D01*
X171180450Y-88858431D01*
X171183241Y-88862168D01*
X171183245Y-88862175D01*
X171264887Y-88971506D01*
X171341281Y-89073810D01*
X171344590Y-89077090D01*
X171344595Y-89077096D01*
X171525509Y-89256437D01*
X171532180Y-89263050D01*
X171535942Y-89265808D01*
X171535945Y-89265811D01*
X171648299Y-89348192D01*
X171748954Y-89421995D01*
X171753089Y-89424171D01*
X171753093Y-89424173D01*
X171982698Y-89544975D01*
X171986840Y-89547154D01*
X172240613Y-89635775D01*
X172245206Y-89636647D01*
X172500109Y-89685042D01*
X172500112Y-89685042D01*
X172504698Y-89685913D01*
X172632370Y-89690929D01*
X172768625Y-89696283D01*
X172768630Y-89696283D01*
X172773293Y-89696466D01*
X172877607Y-89685042D01*
X173035844Y-89667713D01*
X173035850Y-89667712D01*
X173040497Y-89667203D01*
X173053647Y-89663741D01*
X173295918Y-89599956D01*
X173295920Y-89599955D01*
X173300441Y-89598765D01*
X173304738Y-89596919D01*
X173543120Y-89494502D01*
X173543122Y-89494501D01*
X173547414Y-89492657D01*
X173666071Y-89419230D01*
X173772017Y-89353669D01*
X173772021Y-89353666D01*
X173775990Y-89351210D01*
X173981149Y-89177530D01*
X174158382Y-88975434D01*
X174303797Y-88749361D01*
X174414199Y-88504278D01*
X174451209Y-88373051D01*
X174485893Y-88250072D01*
X174485894Y-88250069D01*
X174487163Y-88245568D01*
X174505043Y-88105019D01*
X174520688Y-87982045D01*
X174520688Y-87982041D01*
X174521086Y-87978915D01*
X174523571Y-87884000D01*
X174509145Y-87689882D01*
X174503996Y-87620592D01*
X174503996Y-87620591D01*
X174503650Y-87615937D01*
X174484896Y-87533054D01*
X174445361Y-87358331D01*
X174445360Y-87358326D01*
X174444327Y-87353763D01*
X174346902Y-87103238D01*
X174213518Y-86869864D01*
X174176068Y-86822358D01*
X174147416Y-86786014D01*
X174047105Y-86658769D01*
X173851317Y-86474591D01*
X173630457Y-86321374D01*
X173626264Y-86319306D01*
X173393564Y-86204551D01*
X173393561Y-86204550D01*
X173389376Y-86202486D01*
X173341745Y-86187239D01*
X173165225Y-86130735D01*
X173133370Y-86120538D01*
X173128763Y-86119788D01*
X173128760Y-86119787D01*
X172872674Y-86078081D01*
X172872675Y-86078081D01*
X172868063Y-86077330D01*
X172737719Y-86075624D01*
X172603961Y-86073873D01*
X172603958Y-86073873D01*
X172599284Y-86073812D01*
X172332937Y-86110060D01*
X172074874Y-86185278D01*
X171830763Y-86297815D01*
X171826854Y-86300378D01*
X171609881Y-86442631D01*
X171609876Y-86442635D01*
X171605968Y-86445197D01*
X171405426Y-86624188D01*
X171233544Y-86830854D01*
X171094096Y-87060656D01*
X171092287Y-87064970D01*
X171092285Y-87064974D01*
X171027720Y-87218946D01*
X170990148Y-87308545D01*
X170923981Y-87569077D01*
X170897050Y-87836526D01*
X134322897Y-87836526D01*
X134266731Y-87716078D01*
X134131573Y-87523051D01*
X133964949Y-87356427D01*
X133771922Y-87221269D01*
X133766944Y-87218948D01*
X133766941Y-87218946D01*
X133563340Y-87124005D01*
X133563338Y-87124004D01*
X133558358Y-87121682D01*
X133553050Y-87120260D01*
X133553048Y-87120259D01*
X133336060Y-87062118D01*
X133336059Y-87062118D01*
X133330745Y-87060694D01*
X133096000Y-87040156D01*
X132861255Y-87060694D01*
X132855941Y-87062118D01*
X132855940Y-87062118D01*
X132638952Y-87120259D01*
X132638950Y-87120260D01*
X132633642Y-87121682D01*
X132628662Y-87124004D01*
X132628660Y-87124005D01*
X132425059Y-87218946D01*
X132425056Y-87218948D01*
X132420078Y-87221269D01*
X132227051Y-87356427D01*
X132060427Y-87523051D01*
X131925269Y-87716078D01*
X131825682Y-87929642D01*
X131764694Y-88157255D01*
X131744156Y-88392000D01*
X87704500Y-88392000D01*
X87704500Y-86360000D01*
X139872156Y-86360000D01*
X139892694Y-86594745D01*
X139894118Y-86600059D01*
X139894118Y-86600060D01*
X139908992Y-86655569D01*
X139953682Y-86822358D01*
X139956004Y-86827338D01*
X139956005Y-86827340D01*
X139975835Y-86869864D01*
X140053269Y-87035922D01*
X140188427Y-87228949D01*
X140355051Y-87395573D01*
X140548078Y-87530731D01*
X140553056Y-87533052D01*
X140553059Y-87533054D01*
X140756660Y-87627995D01*
X140761642Y-87630318D01*
X140766950Y-87631740D01*
X140766952Y-87631741D01*
X140983940Y-87689882D01*
X140989255Y-87691306D01*
X141224000Y-87711844D01*
X141458745Y-87691306D01*
X141464060Y-87689882D01*
X141681048Y-87631741D01*
X141681050Y-87631740D01*
X141686358Y-87630318D01*
X141691340Y-87627995D01*
X141894941Y-87533054D01*
X141894944Y-87533052D01*
X141899922Y-87530731D01*
X142092949Y-87395573D01*
X142259573Y-87228949D01*
X142394731Y-87035922D01*
X142472166Y-86869864D01*
X142491995Y-86827340D01*
X142491996Y-86827338D01*
X142494318Y-86822358D01*
X142539009Y-86655569D01*
X142553882Y-86600060D01*
X142553882Y-86600059D01*
X142555306Y-86594745D01*
X142575844Y-86360000D01*
X142555306Y-86125255D01*
X142541691Y-86074443D01*
X142495741Y-85902952D01*
X142495740Y-85902950D01*
X142494318Y-85897642D01*
X142394731Y-85684078D01*
X142259573Y-85491051D01*
X142092949Y-85324427D01*
X141899922Y-85189269D01*
X141894944Y-85186948D01*
X141894941Y-85186946D01*
X141691340Y-85092005D01*
X141691338Y-85092004D01*
X141686358Y-85089682D01*
X141681050Y-85088260D01*
X141681048Y-85088259D01*
X141464060Y-85030118D01*
X141464059Y-85030118D01*
X141458745Y-85028694D01*
X141224000Y-85008156D01*
X140989255Y-85028694D01*
X140983941Y-85030118D01*
X140983940Y-85030118D01*
X140766952Y-85088259D01*
X140766950Y-85088260D01*
X140761642Y-85089682D01*
X140756662Y-85092004D01*
X140756660Y-85092005D01*
X140553059Y-85186946D01*
X140553056Y-85186948D01*
X140548078Y-85189269D01*
X140355051Y-85324427D01*
X140188427Y-85491051D01*
X140053269Y-85684078D01*
X139953682Y-85897642D01*
X139952260Y-85902950D01*
X139952259Y-85902952D01*
X139906309Y-86074443D01*
X139892694Y-86125255D01*
X139872156Y-86360000D01*
X87704500Y-86360000D01*
X87704500Y-85123928D01*
X87724502Y-85055807D01*
X87778158Y-85009314D01*
X87848432Y-84999210D01*
X87878493Y-85007655D01*
X87881891Y-85009523D01*
X88075084Y-85070807D01*
X88081201Y-85071493D01*
X88081205Y-85071494D01*
X88155348Y-85079810D01*
X88232817Y-85088500D01*
X89192004Y-85088500D01*
X89342713Y-85073723D01*
X89536742Y-85015142D01*
X89715698Y-84919990D01*
X89725494Y-84912001D01*
X89794230Y-84855940D01*
X89872763Y-84791890D01*
X89916473Y-84739054D01*
X89998027Y-84640472D01*
X89998029Y-84640469D01*
X90001956Y-84635722D01*
X90098356Y-84457435D01*
X90134947Y-84339230D01*
X90156468Y-84269707D01*
X90156469Y-84269704D01*
X90158290Y-84263820D01*
X90175451Y-84100550D01*
X90178832Y-84068378D01*
X90178832Y-84068377D01*
X90179476Y-84062250D01*
X90161106Y-83860404D01*
X90143548Y-83800745D01*
X90105620Y-83671880D01*
X90103881Y-83665971D01*
X90051618Y-83566000D01*
X151302156Y-83566000D01*
X151322694Y-83800745D01*
X151324118Y-83806059D01*
X151324118Y-83806060D01*
X151348066Y-83895434D01*
X151383682Y-84028358D01*
X151386004Y-84033338D01*
X151386005Y-84033340D01*
X151415938Y-84097530D01*
X151483269Y-84241922D01*
X151618427Y-84434949D01*
X151785051Y-84601573D01*
X151978078Y-84736731D01*
X151983056Y-84739052D01*
X151983059Y-84739054D01*
X152086182Y-84787141D01*
X152191642Y-84836318D01*
X152196950Y-84837740D01*
X152196952Y-84837741D01*
X152413940Y-84895882D01*
X152419255Y-84897306D01*
X152654000Y-84917844D01*
X152888745Y-84897306D01*
X152894060Y-84895882D01*
X153111048Y-84837741D01*
X153111050Y-84837740D01*
X153116358Y-84836318D01*
X153221818Y-84787141D01*
X153324941Y-84739054D01*
X153324944Y-84739052D01*
X153329922Y-84736731D01*
X153522949Y-84601573D01*
X153689573Y-84434949D01*
X153824731Y-84241922D01*
X153892063Y-84097530D01*
X153921995Y-84033340D01*
X153921996Y-84033338D01*
X153924318Y-84028358D01*
X153959935Y-83895434D01*
X153983882Y-83806060D01*
X153983882Y-83806059D01*
X153985306Y-83800745D01*
X154005844Y-83566000D01*
X153985306Y-83331255D01*
X153983480Y-83324440D01*
X153925741Y-83108952D01*
X153925740Y-83108950D01*
X153924318Y-83103642D01*
X153921995Y-83098660D01*
X153827054Y-82895059D01*
X153827052Y-82895056D01*
X153824731Y-82890078D01*
X153731218Y-82756526D01*
X170897050Y-82756526D01*
X170909947Y-83025019D01*
X170962388Y-83288656D01*
X171053220Y-83541646D01*
X171180450Y-83778431D01*
X171183241Y-83782168D01*
X171183245Y-83782175D01*
X171241662Y-83860404D01*
X171341281Y-83993810D01*
X171344590Y-83997090D01*
X171344595Y-83997096D01*
X171528863Y-84179762D01*
X171532180Y-84183050D01*
X171535942Y-84185808D01*
X171535945Y-84185811D01*
X171648299Y-84268192D01*
X171748954Y-84341995D01*
X171753089Y-84344171D01*
X171753093Y-84344173D01*
X171933032Y-84438844D01*
X171986840Y-84467154D01*
X172240613Y-84555775D01*
X172245206Y-84556647D01*
X172500109Y-84605042D01*
X172500112Y-84605042D01*
X172504698Y-84605913D01*
X172632370Y-84610929D01*
X172768625Y-84616283D01*
X172768630Y-84616283D01*
X172773293Y-84616466D01*
X172880438Y-84604732D01*
X173035844Y-84587713D01*
X173035850Y-84587712D01*
X173040497Y-84587203D01*
X173045021Y-84586012D01*
X173295918Y-84519956D01*
X173295920Y-84519955D01*
X173300441Y-84518765D01*
X173304738Y-84516919D01*
X173543120Y-84414502D01*
X173543122Y-84414501D01*
X173547414Y-84412657D01*
X173666071Y-84339230D01*
X173772017Y-84273669D01*
X173772021Y-84273666D01*
X173775990Y-84271210D01*
X173981149Y-84097530D01*
X174158382Y-83895434D01*
X174176966Y-83866543D01*
X174301269Y-83673291D01*
X174303797Y-83669361D01*
X174414199Y-83424278D01*
X174451209Y-83293051D01*
X174485893Y-83170072D01*
X174485894Y-83170069D01*
X174487163Y-83165568D01*
X174505491Y-83021500D01*
X174520688Y-82902045D01*
X174520688Y-82902041D01*
X174521086Y-82898915D01*
X174521318Y-82890078D01*
X174523488Y-82807160D01*
X174523571Y-82804000D01*
X174509145Y-82609882D01*
X174503996Y-82540592D01*
X174503996Y-82540591D01*
X174503650Y-82535937D01*
X174502619Y-82531379D01*
X174445361Y-82278331D01*
X174445360Y-82278326D01*
X174444327Y-82273763D01*
X174346902Y-82023238D01*
X174213518Y-81789864D01*
X174176068Y-81742358D01*
X174147416Y-81706014D01*
X174047105Y-81578769D01*
X173851317Y-81394591D01*
X173630457Y-81241374D01*
X173626264Y-81239306D01*
X173393564Y-81124551D01*
X173393561Y-81124550D01*
X173389376Y-81122486D01*
X173341745Y-81107239D01*
X173165225Y-81050735D01*
X173133370Y-81040538D01*
X173128763Y-81039788D01*
X173128760Y-81039787D01*
X172872674Y-80998081D01*
X172872675Y-80998081D01*
X172868063Y-80997330D01*
X172737719Y-80995624D01*
X172603961Y-80993873D01*
X172603958Y-80993873D01*
X172599284Y-80993812D01*
X172332937Y-81030060D01*
X172074874Y-81105278D01*
X171830763Y-81217815D01*
X171826854Y-81220378D01*
X171609881Y-81362631D01*
X171609876Y-81362635D01*
X171605968Y-81365197D01*
X171405426Y-81544188D01*
X171233544Y-81750854D01*
X171094096Y-81980656D01*
X170990148Y-82228545D01*
X170923981Y-82489077D01*
X170897050Y-82756526D01*
X153731218Y-82756526D01*
X153689573Y-82697051D01*
X153522949Y-82530427D01*
X153329922Y-82395269D01*
X153324944Y-82392948D01*
X153324941Y-82392946D01*
X153121340Y-82298005D01*
X153121338Y-82298004D01*
X153116358Y-82295682D01*
X153111050Y-82294260D01*
X153111048Y-82294259D01*
X152894060Y-82236118D01*
X152894059Y-82236118D01*
X152888745Y-82234694D01*
X152654000Y-82214156D01*
X152419255Y-82234694D01*
X152413941Y-82236118D01*
X152413940Y-82236118D01*
X152196952Y-82294259D01*
X152196950Y-82294260D01*
X152191642Y-82295682D01*
X152186662Y-82298004D01*
X152186660Y-82298005D01*
X151983059Y-82392946D01*
X151983056Y-82392948D01*
X151978078Y-82395269D01*
X151785051Y-82530427D01*
X151618427Y-82697051D01*
X151483269Y-82890078D01*
X151480948Y-82895056D01*
X151480946Y-82895059D01*
X151386005Y-83098660D01*
X151383682Y-83103642D01*
X151382260Y-83108950D01*
X151382259Y-83108952D01*
X151324520Y-83324440D01*
X151322694Y-83331255D01*
X151302156Y-83566000D01*
X90051618Y-83566000D01*
X90009981Y-83486355D01*
X89882981Y-83328399D01*
X89727719Y-83198119D01*
X89722327Y-83195155D01*
X89722323Y-83195152D01*
X89555506Y-83103444D01*
X89550109Y-83100477D01*
X89356916Y-83039193D01*
X89350799Y-83038507D01*
X89350795Y-83038506D01*
X89271430Y-83029604D01*
X89199183Y-83021500D01*
X88239996Y-83021500D01*
X88089287Y-83036277D01*
X87895258Y-83094858D01*
X87889818Y-83097751D01*
X87889812Y-83097753D01*
X87889650Y-83097839D01*
X87889556Y-83097858D01*
X87884117Y-83100100D01*
X87883691Y-83099066D01*
X87820112Y-83112157D01*
X87753872Y-83086607D01*
X87711961Y-83029301D01*
X87704500Y-82986586D01*
X87704500Y-81280000D01*
X101264156Y-81280000D01*
X101284694Y-81514745D01*
X101286118Y-81520059D01*
X101286118Y-81520060D01*
X101300992Y-81575569D01*
X101345682Y-81742358D01*
X101348004Y-81747338D01*
X101348005Y-81747340D01*
X101367835Y-81789864D01*
X101445269Y-81955922D01*
X101580427Y-82148949D01*
X101747051Y-82315573D01*
X101940078Y-82450731D01*
X101945056Y-82453052D01*
X101945059Y-82453054D01*
X102148660Y-82547995D01*
X102153642Y-82550318D01*
X102158950Y-82551740D01*
X102158952Y-82551741D01*
X102375940Y-82609882D01*
X102381255Y-82611306D01*
X102616000Y-82631844D01*
X102850745Y-82611306D01*
X102856060Y-82609882D01*
X103073048Y-82551741D01*
X103073050Y-82551740D01*
X103078358Y-82550318D01*
X103083340Y-82547995D01*
X103286941Y-82453054D01*
X103286944Y-82453052D01*
X103291922Y-82450731D01*
X103484949Y-82315573D01*
X103651573Y-82148949D01*
X103786731Y-81955922D01*
X103864166Y-81789864D01*
X103883995Y-81747340D01*
X103883996Y-81747338D01*
X103886318Y-81742358D01*
X103931009Y-81575569D01*
X103945882Y-81520060D01*
X103945882Y-81520059D01*
X103947306Y-81514745D01*
X103967844Y-81280000D01*
X103947306Y-81045255D01*
X103933691Y-80994443D01*
X103887741Y-80822952D01*
X103887740Y-80822950D01*
X103886318Y-80817642D01*
X103786731Y-80604078D01*
X103651573Y-80411051D01*
X103484949Y-80244427D01*
X103291922Y-80109269D01*
X103286944Y-80106948D01*
X103286941Y-80106946D01*
X103083340Y-80012005D01*
X103083338Y-80012004D01*
X103078358Y-80009682D01*
X103073050Y-80008260D01*
X103073048Y-80008259D01*
X102856060Y-79950118D01*
X102856059Y-79950118D01*
X102850745Y-79948694D01*
X102616000Y-79928156D01*
X102381255Y-79948694D01*
X102375941Y-79950118D01*
X102375940Y-79950118D01*
X102158952Y-80008259D01*
X102158950Y-80008260D01*
X102153642Y-80009682D01*
X102148662Y-80012004D01*
X102148660Y-80012005D01*
X101945059Y-80106946D01*
X101945056Y-80106948D01*
X101940078Y-80109269D01*
X101747051Y-80244427D01*
X101580427Y-80411051D01*
X101445269Y-80604078D01*
X101345682Y-80817642D01*
X101344260Y-80822950D01*
X101344259Y-80822952D01*
X101298309Y-80994443D01*
X101284694Y-81045255D01*
X101264156Y-81280000D01*
X87704500Y-81280000D01*
X87704500Y-78524817D01*
X95925014Y-78524817D01*
X95925595Y-78529837D01*
X95925595Y-78529841D01*
X95941423Y-78666631D01*
X95952915Y-78765956D01*
X95954291Y-78770820D01*
X95954292Y-78770823D01*
X95994753Y-78913810D01*
X96019010Y-78999532D01*
X96021144Y-79004108D01*
X96021146Y-79004114D01*
X96077946Y-79125922D01*
X96121599Y-79219536D01*
X96124440Y-79223717D01*
X96124441Y-79223718D01*
X96172607Y-79294592D01*
X96258044Y-79420307D01*
X96424832Y-79596681D01*
X96428858Y-79599759D01*
X96428859Y-79599760D01*
X96613654Y-79741047D01*
X96613658Y-79741050D01*
X96617674Y-79744120D01*
X96831609Y-79858831D01*
X97061131Y-79937862D01*
X97160478Y-79955022D01*
X97296426Y-79978504D01*
X97296432Y-79978505D01*
X97300336Y-79979179D01*
X97304297Y-79979359D01*
X97304298Y-79979359D01*
X97328006Y-79980436D01*
X97328025Y-79980436D01*
X97329425Y-79980500D01*
X99498501Y-79980500D01*
X99501009Y-79980298D01*
X99501014Y-79980298D01*
X99674424Y-79966346D01*
X99674429Y-79966345D01*
X99679465Y-79965940D01*
X99684373Y-79964734D01*
X99684376Y-79964734D01*
X99910292Y-79909244D01*
X99915206Y-79908037D01*
X99919858Y-79906062D01*
X99919862Y-79906061D01*
X100133998Y-79815165D01*
X100138656Y-79813188D01*
X100244537Y-79746511D01*
X100339788Y-79686528D01*
X100339791Y-79686526D01*
X100344067Y-79683833D01*
X100442922Y-79596681D01*
X100522358Y-79526650D01*
X100522361Y-79526647D01*
X100526155Y-79523302D01*
X100565194Y-79475775D01*
X100677026Y-79339628D01*
X100677028Y-79339625D01*
X100680234Y-79335722D01*
X100802341Y-79125922D01*
X100842789Y-79020550D01*
X100887520Y-78904022D01*
X100887521Y-78904018D01*
X100889333Y-78899298D01*
X100899456Y-78850844D01*
X100937940Y-78666631D01*
X100937940Y-78666627D01*
X100938974Y-78661680D01*
X100949986Y-78419183D01*
X100949405Y-78414159D01*
X100922667Y-78183071D01*
X100922666Y-78183067D01*
X100922085Y-78178044D01*
X100883017Y-78039978D01*
X100865479Y-77978000D01*
X121584156Y-77978000D01*
X121604694Y-78212745D01*
X121665682Y-78440358D01*
X121668004Y-78445338D01*
X121668005Y-78445340D01*
X121735164Y-78589361D01*
X121765269Y-78653922D01*
X121900427Y-78846949D01*
X122067051Y-79013573D01*
X122260078Y-79148731D01*
X122265056Y-79151052D01*
X122265059Y-79151054D01*
X122351174Y-79191210D01*
X122473642Y-79248318D01*
X122478950Y-79249740D01*
X122478952Y-79249741D01*
X122532814Y-79264173D01*
X122701255Y-79309306D01*
X122936000Y-79329844D01*
X123170745Y-79309306D01*
X123339186Y-79264173D01*
X123393048Y-79249741D01*
X123393050Y-79249740D01*
X123398358Y-79248318D01*
X123520826Y-79191210D01*
X123606941Y-79151054D01*
X123606944Y-79151052D01*
X123611922Y-79148731D01*
X123804949Y-79013573D01*
X123971573Y-78846949D01*
X124106731Y-78653922D01*
X124136837Y-78589361D01*
X124203995Y-78445340D01*
X124203996Y-78445338D01*
X124206318Y-78440358D01*
X124267306Y-78212745D01*
X124287844Y-77978000D01*
X124267306Y-77743255D01*
X124263499Y-77729046D01*
X124249426Y-77676526D01*
X170897050Y-77676526D01*
X170897274Y-77681192D01*
X170897274Y-77681197D01*
X170903640Y-77813710D01*
X170909947Y-77945019D01*
X170962388Y-78208656D01*
X171053220Y-78461646D01*
X171055432Y-78465762D01*
X171055433Y-78465765D01*
X171087163Y-78524817D01*
X171180450Y-78698431D01*
X171183241Y-78702168D01*
X171183245Y-78702175D01*
X171264887Y-78811506D01*
X171341281Y-78913810D01*
X171344590Y-78917090D01*
X171344595Y-78917096D01*
X171528863Y-79099762D01*
X171532180Y-79103050D01*
X171535942Y-79105808D01*
X171535945Y-79105811D01*
X171590178Y-79145576D01*
X171748954Y-79261995D01*
X171753089Y-79264171D01*
X171753093Y-79264173D01*
X171982698Y-79384975D01*
X171986840Y-79387154D01*
X172240613Y-79475775D01*
X172245206Y-79476647D01*
X172500109Y-79525042D01*
X172500112Y-79525042D01*
X172504698Y-79525913D01*
X172632370Y-79530929D01*
X172768625Y-79536283D01*
X172768630Y-79536283D01*
X172773293Y-79536466D01*
X172877607Y-79525042D01*
X173035844Y-79507713D01*
X173035850Y-79507712D01*
X173040497Y-79507203D01*
X173045021Y-79506012D01*
X173295918Y-79439956D01*
X173295920Y-79439955D01*
X173300441Y-79438765D01*
X173353151Y-79416119D01*
X173543120Y-79334502D01*
X173543122Y-79334501D01*
X173547414Y-79332657D01*
X173681405Y-79249741D01*
X173772017Y-79193669D01*
X173772021Y-79193666D01*
X173775990Y-79191210D01*
X173981149Y-79017530D01*
X174158382Y-78815434D01*
X174190208Y-78765956D01*
X174301269Y-78593291D01*
X174303797Y-78589361D01*
X174414199Y-78344278D01*
X174451295Y-78212745D01*
X174485893Y-78090072D01*
X174485894Y-78090069D01*
X174487163Y-78085568D01*
X174505043Y-77945019D01*
X174520688Y-77822045D01*
X174520688Y-77822041D01*
X174521086Y-77818915D01*
X174521223Y-77813710D01*
X174523488Y-77727160D01*
X174523571Y-77724000D01*
X174514681Y-77604372D01*
X174503996Y-77460592D01*
X174503996Y-77460591D01*
X174503650Y-77455937D01*
X174496561Y-77424607D01*
X174445361Y-77198331D01*
X174445360Y-77198326D01*
X174444327Y-77193763D01*
X174346902Y-76943238D01*
X174213518Y-76709864D01*
X174163342Y-76646215D01*
X174140264Y-76616941D01*
X174047105Y-76498769D01*
X173851317Y-76314591D01*
X173668695Y-76187901D01*
X173634299Y-76164039D01*
X173634296Y-76164037D01*
X173630457Y-76161374D01*
X173626264Y-76159306D01*
X173393564Y-76044551D01*
X173393561Y-76044550D01*
X173389376Y-76042486D01*
X173343635Y-76027844D01*
X173275025Y-76005882D01*
X173133370Y-75960538D01*
X173128763Y-75959788D01*
X173128760Y-75959787D01*
X172872674Y-75918081D01*
X172872675Y-75918081D01*
X172868063Y-75917330D01*
X172737719Y-75915624D01*
X172603961Y-75913873D01*
X172603958Y-75913873D01*
X172599284Y-75913812D01*
X172332937Y-75950060D01*
X172074874Y-76025278D01*
X171830763Y-76137815D01*
X171826854Y-76140378D01*
X171609881Y-76282631D01*
X171609876Y-76282635D01*
X171605968Y-76285197D01*
X171405426Y-76464188D01*
X171233544Y-76670854D01*
X171231121Y-76674847D01*
X171148843Y-76810437D01*
X171094096Y-76900656D01*
X171092287Y-76904970D01*
X171092285Y-76904974D01*
X171066906Y-76965496D01*
X170990148Y-77148545D01*
X170923981Y-77409077D01*
X170897050Y-77676526D01*
X124249426Y-77676526D01*
X124207741Y-77520952D01*
X124207740Y-77520950D01*
X124206318Y-77515642D01*
X124176352Y-77451379D01*
X124109054Y-77307059D01*
X124109052Y-77307056D01*
X124106731Y-77302078D01*
X123971573Y-77109051D01*
X123804949Y-76942427D01*
X123611922Y-76807269D01*
X123606944Y-76804948D01*
X123606941Y-76804946D01*
X123403340Y-76710005D01*
X123403338Y-76710004D01*
X123398358Y-76707682D01*
X123393050Y-76706260D01*
X123393048Y-76706259D01*
X123176060Y-76648118D01*
X123176059Y-76648118D01*
X123170745Y-76646694D01*
X122936000Y-76626156D01*
X122701255Y-76646694D01*
X122695941Y-76648118D01*
X122695940Y-76648118D01*
X122478952Y-76706259D01*
X122478950Y-76706260D01*
X122473642Y-76707682D01*
X122468662Y-76710004D01*
X122468660Y-76710005D01*
X122265059Y-76804946D01*
X122265056Y-76804948D01*
X122260078Y-76807269D01*
X122067051Y-76942427D01*
X121900427Y-77109051D01*
X121765269Y-77302078D01*
X121762948Y-77307056D01*
X121762946Y-77307059D01*
X121695648Y-77451379D01*
X121665682Y-77515642D01*
X121664260Y-77520950D01*
X121664259Y-77520952D01*
X121608501Y-77729046D01*
X121604694Y-77743255D01*
X121584156Y-77978000D01*
X100865479Y-77978000D01*
X100857366Y-77949331D01*
X100855990Y-77944468D01*
X100853856Y-77939892D01*
X100853854Y-77939886D01*
X100755538Y-77729046D01*
X100755536Y-77729042D01*
X100753401Y-77724464D01*
X100616956Y-77523693D01*
X100450168Y-77347319D01*
X100397510Y-77307059D01*
X100261346Y-77202953D01*
X100261342Y-77202950D01*
X100257326Y-77199880D01*
X100043391Y-77085169D01*
X99813869Y-77006138D01*
X99671650Y-76981573D01*
X99578574Y-76965496D01*
X99578568Y-76965495D01*
X99574664Y-76964821D01*
X99570703Y-76964641D01*
X99570702Y-76964641D01*
X99546994Y-76963564D01*
X99546975Y-76963564D01*
X99545575Y-76963500D01*
X97376499Y-76963500D01*
X97373991Y-76963702D01*
X97373986Y-76963702D01*
X97200576Y-76977654D01*
X97200571Y-76977655D01*
X97195535Y-76978060D01*
X97190627Y-76979266D01*
X97190624Y-76979266D01*
X97074507Y-77007787D01*
X96959794Y-77035963D01*
X96955142Y-77037938D01*
X96955138Y-77037939D01*
X96847752Y-77083522D01*
X96736344Y-77130812D01*
X96732060Y-77133510D01*
X96535212Y-77257472D01*
X96535209Y-77257474D01*
X96530933Y-77260167D01*
X96510949Y-77277785D01*
X96352642Y-77417350D01*
X96352639Y-77417353D01*
X96348845Y-77420698D01*
X96345635Y-77424606D01*
X96345634Y-77424607D01*
X96270858Y-77515642D01*
X96194766Y-77608278D01*
X96072659Y-77818078D01*
X96070846Y-77822801D01*
X96009170Y-77983475D01*
X95985667Y-78044702D01*
X95984633Y-78049652D01*
X95984632Y-78049655D01*
X95949451Y-78218060D01*
X95936026Y-78282320D01*
X95925014Y-78524817D01*
X87704500Y-78524817D01*
X87704500Y-74930456D01*
X93629500Y-74930456D01*
X93629702Y-74935488D01*
X93643650Y-75108843D01*
X93645262Y-75118796D01*
X93700733Y-75344633D01*
X93703916Y-75354203D01*
X93794780Y-75568265D01*
X93799455Y-75577207D01*
X93923374Y-75773987D01*
X93929414Y-75782060D01*
X94083203Y-75956500D01*
X94090456Y-75963504D01*
X94270154Y-76111110D01*
X94278436Y-76116866D01*
X94479419Y-76233841D01*
X94488524Y-76238203D01*
X94705615Y-76321537D01*
X94715304Y-76324388D01*
X94865764Y-76355821D01*
X94879825Y-76354698D01*
X94883500Y-76344590D01*
X94883500Y-76342590D01*
X95391500Y-76342590D01*
X95395636Y-76356676D01*
X95408614Y-76358725D01*
X95426330Y-76356675D01*
X95436227Y-76354715D01*
X95659994Y-76291396D01*
X95669438Y-76287884D01*
X95880205Y-76189601D01*
X95888971Y-76184622D01*
X96081302Y-76053913D01*
X96089177Y-76047581D01*
X96258126Y-75887814D01*
X96264887Y-75880305D01*
X96406125Y-75695574D01*
X96411589Y-75687095D01*
X96521478Y-75482153D01*
X96525520Y-75472901D01*
X96601227Y-75253029D01*
X96603736Y-75243257D01*
X96643504Y-75013029D01*
X96644359Y-75005157D01*
X96645436Y-74981449D01*
X96645500Y-74978616D01*
X96645500Y-74933001D01*
X99729000Y-74933001D01*
X99729202Y-74935509D01*
X99729202Y-74935514D01*
X99743148Y-75108843D01*
X99743560Y-75113965D01*
X99801463Y-75349706D01*
X99896312Y-75573156D01*
X99899010Y-75577440D01*
X100022783Y-75773987D01*
X100025667Y-75778567D01*
X100029012Y-75782361D01*
X100182850Y-75956858D01*
X100182853Y-75956861D01*
X100186198Y-75960655D01*
X100190106Y-75963865D01*
X100190107Y-75963866D01*
X100299733Y-76053913D01*
X100373778Y-76114734D01*
X100378146Y-76117276D01*
X100578424Y-76233841D01*
X100583578Y-76236841D01*
X100588301Y-76238654D01*
X100805478Y-76322020D01*
X100805482Y-76322021D01*
X100810202Y-76323833D01*
X100815152Y-76324867D01*
X100815155Y-76324868D01*
X101042869Y-76372440D01*
X101042873Y-76372440D01*
X101047820Y-76373474D01*
X101290317Y-76384486D01*
X101295337Y-76383905D01*
X101295341Y-76383905D01*
X101526429Y-76357167D01*
X101526433Y-76357166D01*
X101531456Y-76356585D01*
X101536320Y-76355209D01*
X101536323Y-76355208D01*
X101760169Y-76291866D01*
X101760168Y-76291866D01*
X101765032Y-76290490D01*
X101769608Y-76288356D01*
X101769614Y-76288354D01*
X101980454Y-76190038D01*
X101980458Y-76190036D01*
X101985036Y-76187901D01*
X102185807Y-76051456D01*
X102297324Y-75946000D01*
X145714156Y-75946000D01*
X145734694Y-76180745D01*
X145736118Y-76186059D01*
X145736118Y-76186060D01*
X145789286Y-76384486D01*
X145795682Y-76408358D01*
X145798004Y-76413338D01*
X145798005Y-76413340D01*
X145837842Y-76498769D01*
X145895269Y-76621922D01*
X146030427Y-76814949D01*
X146197051Y-76981573D01*
X146390078Y-77116731D01*
X146395056Y-77119052D01*
X146395059Y-77119054D01*
X146598660Y-77213995D01*
X146603642Y-77216318D01*
X146608950Y-77217740D01*
X146608952Y-77217741D01*
X146779774Y-77263512D01*
X146831255Y-77277306D01*
X147066000Y-77297844D01*
X147300745Y-77277306D01*
X147352226Y-77263512D01*
X147523048Y-77217741D01*
X147523050Y-77217740D01*
X147528358Y-77216318D01*
X147533340Y-77213995D01*
X147736941Y-77119054D01*
X147736944Y-77119052D01*
X147741922Y-77116731D01*
X147934949Y-76981573D01*
X148101573Y-76814949D01*
X148236731Y-76621922D01*
X148294159Y-76498769D01*
X148333995Y-76413340D01*
X148333996Y-76413338D01*
X148336318Y-76408358D01*
X148342715Y-76384486D01*
X148395882Y-76186060D01*
X148395882Y-76186059D01*
X148397306Y-76180745D01*
X148417844Y-75946000D01*
X148397306Y-75711255D01*
X148390905Y-75687367D01*
X148337741Y-75488952D01*
X148337740Y-75488950D01*
X148336318Y-75483642D01*
X148331405Y-75473106D01*
X148239054Y-75275059D01*
X148239052Y-75275056D01*
X148236731Y-75270078D01*
X148101573Y-75077051D01*
X147934949Y-74910427D01*
X147741922Y-74775269D01*
X147736944Y-74772948D01*
X147736941Y-74772946D01*
X147533340Y-74678005D01*
X147533338Y-74678004D01*
X147529040Y-74676000D01*
X153334156Y-74676000D01*
X153354694Y-74910745D01*
X153356118Y-74916059D01*
X153356118Y-74916060D01*
X153407774Y-75108843D01*
X153415682Y-75138358D01*
X153418004Y-75143338D01*
X153418005Y-75143340D01*
X153475004Y-75265573D01*
X153515269Y-75351922D01*
X153650427Y-75544949D01*
X153817051Y-75711573D01*
X154010078Y-75846731D01*
X154015056Y-75849052D01*
X154015059Y-75849054D01*
X154211219Y-75940525D01*
X154223642Y-75946318D01*
X154228950Y-75947740D01*
X154228952Y-75947741D01*
X154445940Y-76005882D01*
X154451255Y-76007306D01*
X154686000Y-76027844D01*
X154920745Y-76007306D01*
X154926060Y-76005882D01*
X155143048Y-75947741D01*
X155143050Y-75947740D01*
X155148358Y-75946318D01*
X155160781Y-75940525D01*
X155356941Y-75849054D01*
X155356944Y-75849052D01*
X155361922Y-75846731D01*
X155554949Y-75711573D01*
X155721573Y-75544949D01*
X155856731Y-75351922D01*
X155896997Y-75265573D01*
X155953995Y-75143340D01*
X155953996Y-75143338D01*
X155956318Y-75138358D01*
X155964227Y-75108843D01*
X156015882Y-74916060D01*
X156015882Y-74916059D01*
X156017306Y-74910745D01*
X156037844Y-74676000D01*
X156017306Y-74441255D01*
X155956318Y-74213642D01*
X155918185Y-74131865D01*
X155859054Y-74005059D01*
X155859052Y-74005056D01*
X155856731Y-74000078D01*
X155851169Y-73992134D01*
X170901500Y-73992134D01*
X170908255Y-74054316D01*
X170959385Y-74190705D01*
X171046739Y-74307261D01*
X171163295Y-74394615D01*
X171299684Y-74445745D01*
X171361866Y-74452500D01*
X174058134Y-74452500D01*
X174120316Y-74445745D01*
X174256705Y-74394615D01*
X174373261Y-74307261D01*
X174460615Y-74190705D01*
X174511745Y-74054316D01*
X174518500Y-73992134D01*
X174518500Y-71295866D01*
X174511745Y-71233684D01*
X174460615Y-71097295D01*
X174373261Y-70980739D01*
X174256705Y-70893385D01*
X174120316Y-70842255D01*
X174058134Y-70835500D01*
X171361866Y-70835500D01*
X171299684Y-70842255D01*
X171163295Y-70893385D01*
X171046739Y-70980739D01*
X170959385Y-71097295D01*
X170908255Y-71233684D01*
X170901500Y-71295866D01*
X170901500Y-73992134D01*
X155851169Y-73992134D01*
X155721573Y-73807051D01*
X155554949Y-73640427D01*
X155361922Y-73505269D01*
X155356944Y-73502948D01*
X155356941Y-73502946D01*
X155153340Y-73408005D01*
X155153338Y-73408004D01*
X155148358Y-73405682D01*
X155143050Y-73404260D01*
X155143048Y-73404259D01*
X154926060Y-73346118D01*
X154926059Y-73346118D01*
X154920745Y-73344694D01*
X154686000Y-73324156D01*
X154451255Y-73344694D01*
X154445941Y-73346118D01*
X154445940Y-73346118D01*
X154228952Y-73404259D01*
X154228950Y-73404260D01*
X154223642Y-73405682D01*
X154218662Y-73408004D01*
X154218660Y-73408005D01*
X154015059Y-73502946D01*
X154015056Y-73502948D01*
X154010078Y-73505269D01*
X153817051Y-73640427D01*
X153650427Y-73807051D01*
X153515269Y-74000078D01*
X153512948Y-74005056D01*
X153512946Y-74005059D01*
X153453815Y-74131865D01*
X153415682Y-74213642D01*
X153354694Y-74441255D01*
X153334156Y-74676000D01*
X147529040Y-74676000D01*
X147528358Y-74675682D01*
X147523050Y-74674260D01*
X147523048Y-74674259D01*
X147306060Y-74616118D01*
X147306059Y-74616118D01*
X147300745Y-74614694D01*
X147066000Y-74594156D01*
X146831255Y-74614694D01*
X146825941Y-74616118D01*
X146825940Y-74616118D01*
X146608952Y-74674259D01*
X146608950Y-74674260D01*
X146603642Y-74675682D01*
X146598662Y-74678004D01*
X146598660Y-74678005D01*
X146395059Y-74772946D01*
X146395056Y-74772948D01*
X146390078Y-74775269D01*
X146197051Y-74910427D01*
X146030427Y-75077051D01*
X145895269Y-75270078D01*
X145892948Y-75275056D01*
X145892946Y-75275059D01*
X145800595Y-75473106D01*
X145795682Y-75483642D01*
X145794260Y-75488950D01*
X145794259Y-75488952D01*
X145741095Y-75687367D01*
X145734694Y-75711255D01*
X145714156Y-75946000D01*
X102297324Y-75946000D01*
X102362181Y-75884668D01*
X102440631Y-75782060D01*
X102506547Y-75695846D01*
X102506550Y-75695842D01*
X102509620Y-75691826D01*
X102624331Y-75477891D01*
X102703362Y-75248369D01*
X102744679Y-75009164D01*
X102746000Y-74980075D01*
X102746000Y-72810999D01*
X102742330Y-72765384D01*
X102731846Y-72635076D01*
X102731845Y-72635071D01*
X102731440Y-72630035D01*
X102673537Y-72394294D01*
X102578688Y-72170844D01*
X102501426Y-72048154D01*
X102452028Y-71969712D01*
X102452026Y-71969709D01*
X102449333Y-71965433D01*
X102359640Y-71863695D01*
X102292150Y-71787142D01*
X102292147Y-71787139D01*
X102288802Y-71783345D01*
X102182493Y-71696022D01*
X102105128Y-71632474D01*
X102105125Y-71632472D01*
X102101222Y-71629266D01*
X101971837Y-71553962D01*
X101895790Y-71509701D01*
X101895788Y-71509700D01*
X101891422Y-71507159D01*
X101886699Y-71505346D01*
X101669522Y-71421980D01*
X101669518Y-71421979D01*
X101664798Y-71420167D01*
X101659848Y-71419133D01*
X101659845Y-71419132D01*
X101432131Y-71371560D01*
X101432127Y-71371560D01*
X101427180Y-71370526D01*
X101184683Y-71359514D01*
X101179663Y-71360095D01*
X101179659Y-71360095D01*
X100948571Y-71386833D01*
X100948567Y-71386834D01*
X100943544Y-71387415D01*
X100938680Y-71388791D01*
X100938677Y-71388792D01*
X100827800Y-71420167D01*
X100709968Y-71453510D01*
X100705392Y-71455644D01*
X100705386Y-71455646D01*
X100494546Y-71553962D01*
X100494542Y-71553964D01*
X100489964Y-71556099D01*
X100289193Y-71692544D01*
X100112819Y-71859332D01*
X100109741Y-71863358D01*
X100109740Y-71863359D01*
X99968453Y-72048154D01*
X99968450Y-72048158D01*
X99965380Y-72052174D01*
X99850669Y-72266109D01*
X99771638Y-72495631D01*
X99730321Y-72734836D01*
X99729000Y-72763925D01*
X99729000Y-74933001D01*
X96645500Y-74933001D01*
X96645500Y-74144115D01*
X96641025Y-74128876D01*
X96639635Y-74127671D01*
X96631952Y-74126000D01*
X95409615Y-74126000D01*
X95394376Y-74130475D01*
X95393171Y-74131865D01*
X95391500Y-74139548D01*
X95391500Y-76342590D01*
X94883500Y-76342590D01*
X94883500Y-74144115D01*
X94879025Y-74128876D01*
X94877635Y-74127671D01*
X94869952Y-74126000D01*
X93647615Y-74126000D01*
X93632376Y-74130475D01*
X93631171Y-74131865D01*
X93629500Y-74139548D01*
X93629500Y-74930456D01*
X87704500Y-74930456D01*
X87704500Y-73599885D01*
X93629500Y-73599885D01*
X93633975Y-73615124D01*
X93635365Y-73616329D01*
X93643048Y-73618000D01*
X94865385Y-73618000D01*
X94880624Y-73613525D01*
X94881829Y-73612135D01*
X94883500Y-73604452D01*
X94883500Y-73599885D01*
X95391500Y-73599885D01*
X95395975Y-73615124D01*
X95397365Y-73616329D01*
X95405048Y-73618000D01*
X96627385Y-73618000D01*
X96642624Y-73613525D01*
X96643829Y-73612135D01*
X96645500Y-73604452D01*
X96645500Y-72813544D01*
X96645298Y-72808512D01*
X96631350Y-72635157D01*
X96629738Y-72625204D01*
X96574267Y-72399367D01*
X96571084Y-72389797D01*
X96480220Y-72175735D01*
X96475545Y-72166793D01*
X96351626Y-71970013D01*
X96345586Y-71961940D01*
X96191797Y-71787500D01*
X96184544Y-71780496D01*
X96004846Y-71632890D01*
X95996564Y-71627134D01*
X95795581Y-71510159D01*
X95786476Y-71505797D01*
X95569385Y-71422463D01*
X95559696Y-71419612D01*
X95409236Y-71388179D01*
X95395175Y-71389302D01*
X95391500Y-71399410D01*
X95391500Y-73599885D01*
X94883500Y-73599885D01*
X94883500Y-71401410D01*
X94879364Y-71387324D01*
X94866386Y-71385275D01*
X94848670Y-71387325D01*
X94838773Y-71389285D01*
X94615006Y-71452604D01*
X94605562Y-71456116D01*
X94394795Y-71554399D01*
X94386029Y-71559378D01*
X94193698Y-71690087D01*
X94185823Y-71696419D01*
X94016874Y-71856186D01*
X94010113Y-71863695D01*
X93868875Y-72048426D01*
X93863411Y-72056905D01*
X93753522Y-72261847D01*
X93749480Y-72271099D01*
X93673773Y-72490971D01*
X93671264Y-72500743D01*
X93631496Y-72730971D01*
X93630641Y-72738843D01*
X93629564Y-72762551D01*
X93629500Y-72765384D01*
X93629500Y-73599885D01*
X87704500Y-73599885D01*
X87704500Y-69343500D01*
X87724502Y-69275379D01*
X87778158Y-69228886D01*
X87830500Y-69217500D01*
X179824500Y-69217500D01*
X179892621Y-69237502D01*
G37*
G04 #@! TD.AperFunction*
M02*
