M48
; DRILL file {KiCad (6.0.10)} date Sun Jun 25 11:42:29 2023
; FORMAT={-:-/ absolute / metric / decimal}
; #@! TF.CreationDate,2023-06-25T11:42:29-04:00
; #@! TF.GenerationSoftware,Kicad,Pcbnew,(6.0.10)
; #@! TF.FileFunction,Plated,1,4,PTH
FMAT,2
METRIC
; #@! TA.AperFunction,Plated,PTH,ComponentDrill
T1C0.200
; #@! TA.AperFunction,Plated,PTH,ViaDrill
T2C0.400
; #@! TA.AperFunction,Plated,PTH,ComponentDrill
T3C0.450
; #@! TA.AperFunction,Plated,PTH,ComponentDrill
T4C0.800
; #@! TA.AperFunction,Plated,PTH,ViaDrill
T5C0.838
; #@! TA.AperFunction,Plated,PTH,ComponentDrill
T6C1.000
; #@! TA.AperFunction,Plated,PTH,ComponentDrill
T7C1.300
%
G90
G05
T1
X136.621Y-136.215
X136.621Y-137.74
X137.384Y-135.452
X137.384Y-136.977
X137.384Y-138.502
X138.147Y-136.215
X138.147Y-137.74
X138.909Y-135.452
X138.909Y-136.977
X138.909Y-138.502
X139.671Y-136.215
X139.671Y-137.74
T2
X107.899Y-98.4
X111.252Y-101.092
X114.884Y-118.466
X119.913Y-103.2
X120.142Y-98.806
X120.142Y-100.33
X120.142Y-102.108
X124.206Y-133.35
X125.984Y-128.27
X125.984Y-130.81
X125.984Y-132.08
X125.984Y-133.35
X125.984Y-134.366
X125.984Y-139.7
X125.984Y-140.97
X125.984Y-142.24
X125.984Y-143.51
X128.778Y-102.616
X128.778Y-103.886
X147.066Y-134.62
X147.066Y-137.16
X147.066Y-138.43
X147.066Y-140.97
X147.599Y-132.613
X148.844Y-138.684
X150.876Y-140.995
X152.044Y-131.902
T5
X95.504Y-83.82
X101.092Y-149.098
X102.616Y-81.28
X102.87Y-142.748
X106.934Y-83.312
X107.95Y-103.632
X109.22Y-71.882
X118.364Y-90.424
X122.936Y-77.978
X123.444Y-80.01
X128.27Y-98.044
X128.27Y-100.584
X133.096Y-88.392
X141.224Y-86.36
X144.018Y-82.55
X147.066Y-72.898
X147.066Y-75.946
X147.828Y-143.51
X152.654Y-83.566
X154.686Y-74.676
X166.878Y-147.574
T6
X134.864Y-121.158
X137.404Y-121.158
X139.944Y-121.158
X142.484Y-121.158
T7
X94.823Y-126.979
X94.823Y-132.059
X94.823Y-137.139
X94.823Y-142.219
X94.823Y-147.299
X94.837Y-100.172
X94.837Y-105.252
X94.837Y-110.332
X94.837Y-115.412
X94.837Y-120.492
X172.669Y-127.508
X172.669Y-132.588
X172.669Y-137.668
X172.669Y-142.748
X172.669Y-147.828
X172.71Y-72.644
X172.71Y-77.724
X172.71Y-82.804
X172.71Y-87.884
X172.71Y-92.964
X172.731Y-100.004
X172.731Y-105.084
X172.731Y-110.164
X172.731Y-115.244
X172.731Y-120.324
T3
X88.316Y-84.055G85X89.116Y-84.055
G05
X89.116Y-91.205G85X88.316Y-91.205
G05
T4
X95.137Y-72.772G85X95.137Y-74.972
G05
X97.337Y-78.472G85X99.537Y-78.472
G05
X101.237Y-72.772G85X101.237Y-74.972
G05
T0
M30
