%TF.GenerationSoftware,KiCad,Pcbnew,(6.0.10)*%
%TF.CreationDate,2023-06-25T11:42:36-04:00*%
%TF.ProjectId,sd2_node_board,7364325f-6e6f-4646-955f-626f6172642e,rev?*%
%TF.SameCoordinates,Original*%
%TF.FileFunction,Drillmap*%
%TF.FilePolarity,Positive*%
%FSLAX45Y45*%
G04 Gerber Fmt 4.5, Leading zero omitted, Abs format (unit mm)*
G04 Created by KiCad (PCBNEW (6.0.10)) date 2023-06-25 11:42:36*
%MOMM*%
%LPD*%
G01*
G04 APERTURE LIST*
%ADD10C,0.100000*%
%ADD11C,0.200000*%
%ADD12C,0.020000*%
%ADD13C,0.040000*%
%ADD14C,0.045000*%
%ADD15C,0.080000*%
%ADD16C,0.083820*%
%ADD17C,0.130000*%
G04 APERTURE END LIST*
D10*
X8719600Y-6870900D02*
X18045900Y-6870900D01*
X18045900Y-6870900D02*
X18045900Y-15257400D01*
X18045900Y-15257400D02*
X8719600Y-15257400D01*
X8719600Y-15257400D02*
X8719600Y-6870900D01*
D11*
D12*
X13652150Y-13611500D02*
X13672150Y-13631500D01*
X13672150Y-13611500D02*
X13652150Y-13631500D01*
X13652150Y-13764000D02*
X13672150Y-13784000D01*
X13672150Y-13764000D02*
X13652150Y-13784000D01*
X13728400Y-13535250D02*
X13748400Y-13555250D01*
X13748400Y-13535250D02*
X13728400Y-13555250D01*
X13728400Y-13687750D02*
X13748400Y-13707750D01*
X13748400Y-13687750D02*
X13728400Y-13707750D01*
X13728400Y-13840250D02*
X13748400Y-13860250D01*
X13748400Y-13840250D02*
X13728400Y-13860250D01*
X13804650Y-13611500D02*
X13824650Y-13631500D01*
X13824650Y-13611500D02*
X13804650Y-13631500D01*
X13804650Y-13764000D02*
X13824650Y-13784000D01*
X13824650Y-13764000D02*
X13804650Y-13784000D01*
X13880900Y-13535250D02*
X13900900Y-13555250D01*
X13900900Y-13535250D02*
X13880900Y-13555250D01*
X13880900Y-13687750D02*
X13900900Y-13707750D01*
X13900900Y-13687750D02*
X13880900Y-13707750D01*
X13880900Y-13840250D02*
X13900900Y-13860250D01*
X13900900Y-13840250D02*
X13880900Y-13860250D01*
X13957150Y-13611500D02*
X13977150Y-13631500D01*
X13977150Y-13611500D02*
X13957150Y-13631500D01*
X13957150Y-13764000D02*
X13977150Y-13784000D01*
X13977150Y-13764000D02*
X13957150Y-13784000D01*
D13*
X10809920Y-9839960D02*
G75*
G03*
X10809920Y-9839960I-20000J0D01*
G01*
X11145200Y-10109200D02*
G75*
G03*
X11145200Y-10109200I-20000J0D01*
G01*
X11508420Y-11846560D02*
G75*
G03*
X11508420Y-11846560I-20000J0D01*
G01*
X12011340Y-10320020D02*
G75*
G03*
X12011340Y-10320020I-20000J0D01*
G01*
X12034200Y-9880600D02*
G75*
G03*
X12034200Y-9880600I-20000J0D01*
G01*
X12034200Y-10033000D02*
G75*
G03*
X12034200Y-10033000I-20000J0D01*
G01*
X12034200Y-10210800D02*
G75*
G03*
X12034200Y-10210800I-20000J0D01*
G01*
X12440600Y-13335000D02*
G75*
G03*
X12440600Y-13335000I-20000J0D01*
G01*
X12618400Y-12827000D02*
G75*
G03*
X12618400Y-12827000I-20000J0D01*
G01*
X12618400Y-13081000D02*
G75*
G03*
X12618400Y-13081000I-20000J0D01*
G01*
X12618400Y-13208000D02*
G75*
G03*
X12618400Y-13208000I-20000J0D01*
G01*
X12618400Y-13335000D02*
G75*
G03*
X12618400Y-13335000I-20000J0D01*
G01*
X12618400Y-13436600D02*
G75*
G03*
X12618400Y-13436600I-20000J0D01*
G01*
X12618400Y-13970000D02*
G75*
G03*
X12618400Y-13970000I-20000J0D01*
G01*
X12618400Y-14097000D02*
G75*
G03*
X12618400Y-14097000I-20000J0D01*
G01*
X12618400Y-14224000D02*
G75*
G03*
X12618400Y-14224000I-20000J0D01*
G01*
X12618400Y-14351000D02*
G75*
G03*
X12618400Y-14351000I-20000J0D01*
G01*
X12897800Y-10261600D02*
G75*
G03*
X12897800Y-10261600I-20000J0D01*
G01*
X12897800Y-10388600D02*
G75*
G03*
X12897800Y-10388600I-20000J0D01*
G01*
X14726600Y-13462000D02*
G75*
G03*
X14726600Y-13462000I-20000J0D01*
G01*
X14726600Y-13716000D02*
G75*
G03*
X14726600Y-13716000I-20000J0D01*
G01*
X14726600Y-13843000D02*
G75*
G03*
X14726600Y-13843000I-20000J0D01*
G01*
X14726600Y-14097000D02*
G75*
G03*
X14726600Y-14097000I-20000J0D01*
G01*
X14779940Y-13261340D02*
G75*
G03*
X14779940Y-13261340I-20000J0D01*
G01*
X14904400Y-13868400D02*
G75*
G03*
X14904400Y-13868400I-20000J0D01*
G01*
X15107600Y-14099540D02*
G75*
G03*
X15107600Y-14099540I-20000J0D01*
G01*
X15224440Y-13190220D02*
G75*
G03*
X15224440Y-13190220I-20000J0D01*
G01*
D14*
X8871600Y-8383000D02*
X8871600Y-8428000D01*
X8849100Y-8405500D02*
X8894100Y-8405500D01*
D11*
X8831600Y-8428000D02*
X8911600Y-8428000D01*
X8831600Y-8383000D02*
X8911600Y-8383000D01*
X8911600Y-8428000D02*
G75*
G03*
X8911600Y-8383000I0J22500D01*
G01*
X8831600Y-8383000D02*
G75*
G03*
X8831600Y-8428000I0J-22500D01*
G01*
D14*
X8871600Y-9098000D02*
X8871600Y-9143000D01*
X8849100Y-9120500D02*
X8894100Y-9120500D01*
D11*
X8911600Y-9098000D02*
X8831600Y-9098000D01*
X8911600Y-9143000D02*
X8831600Y-9143000D01*
X8831600Y-9098000D02*
G75*
G03*
X8831600Y-9143000I0J-22500D01*
G01*
X8911600Y-9143000D02*
G75*
G03*
X8911600Y-9098000I0J22500D01*
G01*
D15*
X9542035Y-7415484D02*
X9542035Y-7358915D01*
X9485466Y-7358915D01*
X9485466Y-7415484D01*
X9542035Y-7415484D01*
D11*
X9473750Y-7277200D02*
X9473750Y-7497200D01*
X9553750Y-7277200D02*
X9553750Y-7497200D01*
X9473750Y-7497200D02*
G75*
G03*
X9553750Y-7497200I40000J0D01*
G01*
X9553750Y-7277200D02*
G75*
G03*
X9473750Y-7277200I-40000J0D01*
G01*
D15*
X9872035Y-7875484D02*
X9872035Y-7818915D01*
X9815466Y-7818915D01*
X9815466Y-7875484D01*
X9872035Y-7875484D01*
D11*
X9733750Y-7887200D02*
X9953750Y-7887200D01*
X9733750Y-7807200D02*
X9953750Y-7807200D01*
X9953750Y-7887200D02*
G75*
G03*
X9953750Y-7807200I0J40000D01*
G01*
X9733750Y-7807200D02*
G75*
G03*
X9733750Y-7887200I0J-40000D01*
G01*
D15*
X10152035Y-7415484D02*
X10152035Y-7358915D01*
X10095466Y-7358915D01*
X10095466Y-7415484D01*
X10152035Y-7415484D01*
D11*
X10083750Y-7277200D02*
X10083750Y-7497200D01*
X10163750Y-7277200D02*
X10163750Y-7497200D01*
X10083750Y-7497200D02*
G75*
G03*
X10163750Y-7497200I40000J0D01*
G01*
X10163750Y-7277200D02*
G75*
G03*
X10083750Y-7277200I-40000J0D01*
G01*
D16*
X9550400Y-8423910D02*
X9592310Y-8382000D01*
X9550400Y-8340090D01*
X9508490Y-8382000D01*
X9550400Y-8423910D01*
X10109200Y-14951710D02*
X10151110Y-14909800D01*
X10109200Y-14867890D01*
X10067290Y-14909800D01*
X10109200Y-14951710D01*
X10261600Y-8169910D02*
X10303510Y-8128000D01*
X10261600Y-8086090D01*
X10219690Y-8128000D01*
X10261600Y-8169910D01*
X10287000Y-14316710D02*
X10328910Y-14274800D01*
X10287000Y-14232890D01*
X10245090Y-14274800D01*
X10287000Y-14316710D01*
X10693400Y-8373110D02*
X10735310Y-8331200D01*
X10693400Y-8289290D01*
X10651490Y-8331200D01*
X10693400Y-8373110D01*
X10795000Y-10405110D02*
X10836910Y-10363200D01*
X10795000Y-10321290D01*
X10753090Y-10363200D01*
X10795000Y-10405110D01*
X10922000Y-7230110D02*
X10963910Y-7188200D01*
X10922000Y-7146290D01*
X10880090Y-7188200D01*
X10922000Y-7230110D01*
X11836400Y-9084310D02*
X11878310Y-9042400D01*
X11836400Y-9000490D01*
X11794490Y-9042400D01*
X11836400Y-9084310D01*
X12293600Y-7839710D02*
X12335510Y-7797800D01*
X12293600Y-7755890D01*
X12251690Y-7797800D01*
X12293600Y-7839710D01*
X12344400Y-8042910D02*
X12386310Y-8001000D01*
X12344400Y-7959090D01*
X12302490Y-8001000D01*
X12344400Y-8042910D01*
X12827000Y-9846310D02*
X12868910Y-9804400D01*
X12827000Y-9762490D01*
X12785090Y-9804400D01*
X12827000Y-9846310D01*
X12827000Y-10100310D02*
X12868910Y-10058400D01*
X12827000Y-10016490D01*
X12785090Y-10058400D01*
X12827000Y-10100310D01*
X13309600Y-8881110D02*
X13351510Y-8839200D01*
X13309600Y-8797290D01*
X13267690Y-8839200D01*
X13309600Y-8881110D01*
X14122400Y-8677910D02*
X14164310Y-8636000D01*
X14122400Y-8594090D01*
X14080490Y-8636000D01*
X14122400Y-8677910D01*
X14401800Y-8296910D02*
X14443710Y-8255000D01*
X14401800Y-8213090D01*
X14359890Y-8255000D01*
X14401800Y-8296910D01*
X14706600Y-7331710D02*
X14748510Y-7289800D01*
X14706600Y-7247890D01*
X14664690Y-7289800D01*
X14706600Y-7331710D01*
X14706600Y-7636510D02*
X14748510Y-7594600D01*
X14706600Y-7552690D01*
X14664690Y-7594600D01*
X14706600Y-7636510D01*
X14782800Y-14392910D02*
X14824710Y-14351000D01*
X14782800Y-14309090D01*
X14740890Y-14351000D01*
X14782800Y-14392910D01*
X15265400Y-8398510D02*
X15307310Y-8356600D01*
X15265400Y-8314690D01*
X15223490Y-8356600D01*
X15265400Y-8398510D01*
X15468600Y-7509510D02*
X15510510Y-7467600D01*
X15468600Y-7425690D01*
X15426690Y-7467600D01*
X15468600Y-7509510D01*
X16687800Y-14799310D02*
X16729710Y-14757400D01*
X16687800Y-14715490D01*
X16645890Y-14757400D01*
X16687800Y-14799310D01*
D10*
X13436400Y-12065800D02*
X13536400Y-12165800D01*
X13536400Y-12065800D02*
X13436400Y-12165800D01*
X13536400Y-12115800D02*
G75*
G03*
X13536400Y-12115800I-50000J0D01*
G01*
X13690400Y-12065800D02*
X13790400Y-12165800D01*
X13790400Y-12065800D02*
X13690400Y-12165800D01*
X13790400Y-12115800D02*
G75*
G03*
X13790400Y-12115800I-50000J0D01*
G01*
X13944400Y-12065800D02*
X14044400Y-12165800D01*
X14044400Y-12065800D02*
X13944400Y-12165800D01*
X14044400Y-12115800D02*
G75*
G03*
X14044400Y-12115800I-50000J0D01*
G01*
X14198400Y-12065800D02*
X14298400Y-12165800D01*
X14298400Y-12065800D02*
X14198400Y-12165800D01*
X14298400Y-12115800D02*
G75*
G03*
X14298400Y-12115800I-50000J0D01*
G01*
D17*
X9417350Y-12632900D02*
X9547350Y-12762900D01*
X9547350Y-12632900D02*
X9417350Y-12762900D01*
X9482350Y-12632900D02*
X9482350Y-12762900D01*
X9417350Y-12697900D02*
X9547350Y-12697900D01*
X9417350Y-13140900D02*
X9547350Y-13270900D01*
X9547350Y-13140900D02*
X9417350Y-13270900D01*
X9482350Y-13140900D02*
X9482350Y-13270900D01*
X9417350Y-13205900D02*
X9547350Y-13205900D01*
X9417350Y-13648900D02*
X9547350Y-13778900D01*
X9547350Y-13648900D02*
X9417350Y-13778900D01*
X9482350Y-13648900D02*
X9482350Y-13778900D01*
X9417350Y-13713900D02*
X9547350Y-13713900D01*
X9417350Y-14156900D02*
X9547350Y-14286900D01*
X9547350Y-14156900D02*
X9417350Y-14286900D01*
X9482350Y-14156900D02*
X9482350Y-14286900D01*
X9417350Y-14221900D02*
X9547350Y-14221900D01*
X9417350Y-14664900D02*
X9547350Y-14794900D01*
X9547350Y-14664900D02*
X9417350Y-14794900D01*
X9482350Y-14664900D02*
X9482350Y-14794900D01*
X9417350Y-14729900D02*
X9547350Y-14729900D01*
X9418750Y-9952200D02*
X9548750Y-10082200D01*
X9548750Y-9952200D02*
X9418750Y-10082200D01*
X9483750Y-9952200D02*
X9483750Y-10082200D01*
X9418750Y-10017200D02*
X9548750Y-10017200D01*
X9418750Y-10460200D02*
X9548750Y-10590200D01*
X9548750Y-10460200D02*
X9418750Y-10590200D01*
X9483750Y-10460200D02*
X9483750Y-10590200D01*
X9418750Y-10525200D02*
X9548750Y-10525200D01*
X9418750Y-10968200D02*
X9548750Y-11098200D01*
X9548750Y-10968200D02*
X9418750Y-11098200D01*
X9483750Y-10968200D02*
X9483750Y-11098200D01*
X9418750Y-11033200D02*
X9548750Y-11033200D01*
X9418750Y-11476200D02*
X9548750Y-11606200D01*
X9548750Y-11476200D02*
X9418750Y-11606200D01*
X9483750Y-11476200D02*
X9483750Y-11606200D01*
X9418750Y-11541200D02*
X9548750Y-11541200D01*
X9418750Y-11984200D02*
X9548750Y-12114200D01*
X9548750Y-11984200D02*
X9418750Y-12114200D01*
X9483750Y-11984200D02*
X9483750Y-12114200D01*
X9418750Y-12049200D02*
X9548750Y-12049200D01*
X17201900Y-12685800D02*
X17331900Y-12815800D01*
X17331900Y-12685800D02*
X17201900Y-12815800D01*
X17266900Y-12685800D02*
X17266900Y-12815800D01*
X17201900Y-12750800D02*
X17331900Y-12750800D01*
X17201900Y-13193800D02*
X17331900Y-13323800D01*
X17331900Y-13193800D02*
X17201900Y-13323800D01*
X17266900Y-13193800D02*
X17266900Y-13323800D01*
X17201900Y-13258800D02*
X17331900Y-13258800D01*
X17201900Y-13701800D02*
X17331900Y-13831800D01*
X17331900Y-13701800D02*
X17201900Y-13831800D01*
X17266900Y-13701800D02*
X17266900Y-13831800D01*
X17201900Y-13766800D02*
X17331900Y-13766800D01*
X17201900Y-14209800D02*
X17331900Y-14339800D01*
X17331900Y-14209800D02*
X17201900Y-14339800D01*
X17266900Y-14209800D02*
X17266900Y-14339800D01*
X17201900Y-14274800D02*
X17331900Y-14274800D01*
X17201900Y-14717800D02*
X17331900Y-14847800D01*
X17331900Y-14717800D02*
X17201900Y-14847800D01*
X17266900Y-14717800D02*
X17266900Y-14847800D01*
X17201900Y-14782800D02*
X17331900Y-14782800D01*
X17206000Y-7199400D02*
X17336000Y-7329400D01*
X17336000Y-7199400D02*
X17206000Y-7329400D01*
X17271000Y-7199400D02*
X17271000Y-7329400D01*
X17206000Y-7264400D02*
X17336000Y-7264400D01*
X17206000Y-7707400D02*
X17336000Y-7837400D01*
X17336000Y-7707400D02*
X17206000Y-7837400D01*
X17271000Y-7707400D02*
X17271000Y-7837400D01*
X17206000Y-7772400D02*
X17336000Y-7772400D01*
X17206000Y-8215400D02*
X17336000Y-8345400D01*
X17336000Y-8215400D02*
X17206000Y-8345400D01*
X17271000Y-8215400D02*
X17271000Y-8345400D01*
X17206000Y-8280400D02*
X17336000Y-8280400D01*
X17206000Y-8723400D02*
X17336000Y-8853400D01*
X17336000Y-8723400D02*
X17206000Y-8853400D01*
X17271000Y-8723400D02*
X17271000Y-8853400D01*
X17206000Y-8788400D02*
X17336000Y-8788400D01*
X17206000Y-9231400D02*
X17336000Y-9361400D01*
X17336000Y-9231400D02*
X17206000Y-9361400D01*
X17271000Y-9231400D02*
X17271000Y-9361400D01*
X17206000Y-9296400D02*
X17336000Y-9296400D01*
X17208100Y-9935400D02*
X17338100Y-10065400D01*
X17338100Y-9935400D02*
X17208100Y-10065400D01*
X17273100Y-9935400D02*
X17273100Y-10065400D01*
X17208100Y-10000400D02*
X17338100Y-10000400D01*
X17208100Y-10443400D02*
X17338100Y-10573400D01*
X17338100Y-10443400D02*
X17208100Y-10573400D01*
X17273100Y-10443400D02*
X17273100Y-10573400D01*
X17208100Y-10508400D02*
X17338100Y-10508400D01*
X17208100Y-10951400D02*
X17338100Y-11081400D01*
X17338100Y-10951400D02*
X17208100Y-11081400D01*
X17273100Y-10951400D02*
X17273100Y-11081400D01*
X17208100Y-11016400D02*
X17338100Y-11016400D01*
X17208100Y-11459400D02*
X17338100Y-11589400D01*
X17338100Y-11459400D02*
X17208100Y-11589400D01*
X17273100Y-11459400D02*
X17273100Y-11589400D01*
X17208100Y-11524400D02*
X17338100Y-11524400D01*
X17208100Y-11967400D02*
X17338100Y-12097400D01*
X17338100Y-11967400D02*
X17208100Y-12097400D01*
X17273100Y-11967400D02*
X17273100Y-12097400D01*
X17208100Y-12032400D02*
X17338100Y-12032400D01*
D11*
X8972219Y-15572876D02*
X8972219Y-15372876D01*
X9019838Y-15372876D01*
X9048410Y-15382400D01*
X9067457Y-15401448D01*
X9076981Y-15420495D01*
X9086505Y-15458590D01*
X9086505Y-15487162D01*
X9076981Y-15525257D01*
X9067457Y-15544305D01*
X9048410Y-15563352D01*
X9019838Y-15572876D01*
X8972219Y-15572876D01*
X9172219Y-15572876D02*
X9172219Y-15439543D01*
X9172219Y-15477638D02*
X9181743Y-15458590D01*
X9191267Y-15449067D01*
X9210314Y-15439543D01*
X9229362Y-15439543D01*
X9296029Y-15572876D02*
X9296029Y-15439543D01*
X9296029Y-15372876D02*
X9286505Y-15382400D01*
X9296029Y-15391924D01*
X9305552Y-15382400D01*
X9296029Y-15372876D01*
X9296029Y-15391924D01*
X9419838Y-15572876D02*
X9400790Y-15563352D01*
X9391267Y-15544305D01*
X9391267Y-15372876D01*
X9524600Y-15572876D02*
X9505552Y-15563352D01*
X9496029Y-15544305D01*
X9496029Y-15372876D01*
X9753171Y-15572876D02*
X9753171Y-15372876D01*
X9819838Y-15515733D01*
X9886505Y-15372876D01*
X9886505Y-15572876D01*
X10067457Y-15572876D02*
X10067457Y-15468114D01*
X10057933Y-15449067D01*
X10038886Y-15439543D01*
X10000790Y-15439543D01*
X9981743Y-15449067D01*
X10067457Y-15563352D02*
X10048410Y-15572876D01*
X10000790Y-15572876D01*
X9981743Y-15563352D01*
X9972219Y-15544305D01*
X9972219Y-15525257D01*
X9981743Y-15506209D01*
X10000790Y-15496686D01*
X10048410Y-15496686D01*
X10067457Y-15487162D01*
X10162695Y-15439543D02*
X10162695Y-15639543D01*
X10162695Y-15449067D02*
X10181743Y-15439543D01*
X10219838Y-15439543D01*
X10238886Y-15449067D01*
X10248410Y-15458590D01*
X10257933Y-15477638D01*
X10257933Y-15534781D01*
X10248410Y-15553828D01*
X10238886Y-15563352D01*
X10219838Y-15572876D01*
X10181743Y-15572876D01*
X10162695Y-15563352D01*
X10343648Y-15553828D02*
X10353171Y-15563352D01*
X10343648Y-15572876D01*
X10334124Y-15563352D01*
X10343648Y-15553828D01*
X10343648Y-15572876D01*
X10343648Y-15449067D02*
X10353171Y-15458590D01*
X10343648Y-15468114D01*
X10334124Y-15458590D01*
X10343648Y-15449067D01*
X10343648Y-15468114D01*
D12*
X8694600Y-15892400D02*
X8714600Y-15912400D01*
X8714600Y-15892400D02*
X8694600Y-15912400D01*
D11*
X9010314Y-15792876D02*
X9029362Y-15792876D01*
X9048410Y-15802400D01*
X9057933Y-15811924D01*
X9067457Y-15830971D01*
X9076981Y-15869067D01*
X9076981Y-15916686D01*
X9067457Y-15954781D01*
X9057933Y-15973828D01*
X9048410Y-15983352D01*
X9029362Y-15992876D01*
X9010314Y-15992876D01*
X8991267Y-15983352D01*
X8981743Y-15973828D01*
X8972219Y-15954781D01*
X8962695Y-15916686D01*
X8962695Y-15869067D01*
X8972219Y-15830971D01*
X8981743Y-15811924D01*
X8991267Y-15802400D01*
X9010314Y-15792876D01*
X9162695Y-15973828D02*
X9172219Y-15983352D01*
X9162695Y-15992876D01*
X9153171Y-15983352D01*
X9162695Y-15973828D01*
X9162695Y-15992876D01*
X9248410Y-15811924D02*
X9257933Y-15802400D01*
X9276981Y-15792876D01*
X9324600Y-15792876D01*
X9343648Y-15802400D01*
X9353171Y-15811924D01*
X9362695Y-15830971D01*
X9362695Y-15850019D01*
X9353171Y-15878590D01*
X9238886Y-15992876D01*
X9362695Y-15992876D01*
X9486505Y-15792876D02*
X9505552Y-15792876D01*
X9524600Y-15802400D01*
X9534124Y-15811924D01*
X9543648Y-15830971D01*
X9553171Y-15869067D01*
X9553171Y-15916686D01*
X9543648Y-15954781D01*
X9534124Y-15973828D01*
X9524600Y-15983352D01*
X9505552Y-15992876D01*
X9486505Y-15992876D01*
X9467457Y-15983352D01*
X9457933Y-15973828D01*
X9448410Y-15954781D01*
X9438886Y-15916686D01*
X9438886Y-15869067D01*
X9448410Y-15830971D01*
X9457933Y-15811924D01*
X9467457Y-15802400D01*
X9486505Y-15792876D01*
X9676981Y-15792876D02*
X9696029Y-15792876D01*
X9715076Y-15802400D01*
X9724600Y-15811924D01*
X9734124Y-15830971D01*
X9743648Y-15869067D01*
X9743648Y-15916686D01*
X9734124Y-15954781D01*
X9724600Y-15973828D01*
X9715076Y-15983352D01*
X9696029Y-15992876D01*
X9676981Y-15992876D01*
X9657933Y-15983352D01*
X9648410Y-15973828D01*
X9638886Y-15954781D01*
X9629362Y-15916686D01*
X9629362Y-15869067D01*
X9638886Y-15830971D01*
X9648410Y-15811924D01*
X9657933Y-15802400D01*
X9676981Y-15792876D01*
X9829362Y-15992876D02*
X9829362Y-15859543D01*
X9829362Y-15878590D02*
X9838886Y-15869067D01*
X9857933Y-15859543D01*
X9886505Y-15859543D01*
X9905552Y-15869067D01*
X9915076Y-15888114D01*
X9915076Y-15992876D01*
X9915076Y-15888114D02*
X9924600Y-15869067D01*
X9943648Y-15859543D01*
X9972219Y-15859543D01*
X9991267Y-15869067D01*
X10000790Y-15888114D01*
X10000790Y-15992876D01*
X10096029Y-15992876D02*
X10096029Y-15859543D01*
X10096029Y-15878590D02*
X10105552Y-15869067D01*
X10124600Y-15859543D01*
X10153171Y-15859543D01*
X10172219Y-15869067D01*
X10181743Y-15888114D01*
X10181743Y-15992876D01*
X10181743Y-15888114D02*
X10191267Y-15869067D01*
X10210314Y-15859543D01*
X10238886Y-15859543D01*
X10257933Y-15869067D01*
X10267457Y-15888114D01*
X10267457Y-15992876D01*
X10657933Y-15783352D02*
X10486505Y-16040495D01*
X10915076Y-15792876D02*
X10934124Y-15792876D01*
X10953171Y-15802400D01*
X10962695Y-15811924D01*
X10972219Y-15830971D01*
X10981743Y-15869067D01*
X10981743Y-15916686D01*
X10972219Y-15954781D01*
X10962695Y-15973828D01*
X10953171Y-15983352D01*
X10934124Y-15992876D01*
X10915076Y-15992876D01*
X10896029Y-15983352D01*
X10886505Y-15973828D01*
X10876981Y-15954781D01*
X10867457Y-15916686D01*
X10867457Y-15869067D01*
X10876981Y-15830971D01*
X10886505Y-15811924D01*
X10896029Y-15802400D01*
X10915076Y-15792876D01*
X11067457Y-15973828D02*
X11076981Y-15983352D01*
X11067457Y-15992876D01*
X11057933Y-15983352D01*
X11067457Y-15973828D01*
X11067457Y-15992876D01*
X11200790Y-15792876D02*
X11219838Y-15792876D01*
X11238886Y-15802400D01*
X11248409Y-15811924D01*
X11257933Y-15830971D01*
X11267457Y-15869067D01*
X11267457Y-15916686D01*
X11257933Y-15954781D01*
X11248409Y-15973828D01*
X11238886Y-15983352D01*
X11219838Y-15992876D01*
X11200790Y-15992876D01*
X11181743Y-15983352D01*
X11172219Y-15973828D01*
X11162695Y-15954781D01*
X11153171Y-15916686D01*
X11153171Y-15869067D01*
X11162695Y-15830971D01*
X11172219Y-15811924D01*
X11181743Y-15802400D01*
X11200790Y-15792876D01*
X11391267Y-15792876D02*
X11410314Y-15792876D01*
X11429362Y-15802400D01*
X11438886Y-15811924D01*
X11448409Y-15830971D01*
X11457933Y-15869067D01*
X11457933Y-15916686D01*
X11448409Y-15954781D01*
X11438886Y-15973828D01*
X11429362Y-15983352D01*
X11410314Y-15992876D01*
X11391267Y-15992876D01*
X11372219Y-15983352D01*
X11362695Y-15973828D01*
X11353171Y-15954781D01*
X11343648Y-15916686D01*
X11343648Y-15869067D01*
X11353171Y-15830971D01*
X11362695Y-15811924D01*
X11372219Y-15802400D01*
X11391267Y-15792876D01*
X11524600Y-15792876D02*
X11657933Y-15792876D01*
X11572219Y-15992876D01*
X11743648Y-15992876D02*
X11781743Y-15992876D01*
X11800790Y-15983352D01*
X11810314Y-15973828D01*
X11829362Y-15945257D01*
X11838886Y-15907162D01*
X11838886Y-15830971D01*
X11829362Y-15811924D01*
X11819838Y-15802400D01*
X11800790Y-15792876D01*
X11762695Y-15792876D01*
X11743648Y-15802400D01*
X11734124Y-15811924D01*
X11724600Y-15830971D01*
X11724600Y-15878590D01*
X11734124Y-15897638D01*
X11743648Y-15907162D01*
X11762695Y-15916686D01*
X11800790Y-15916686D01*
X11819838Y-15907162D01*
X11829362Y-15897638D01*
X11838886Y-15878590D01*
X11915076Y-15792876D02*
X11915076Y-15830971D01*
X11991267Y-15792876D02*
X11991267Y-15830971D01*
X12286505Y-16069067D02*
X12276981Y-16059543D01*
X12257933Y-16030971D01*
X12248409Y-16011924D01*
X12238886Y-15983352D01*
X12229362Y-15935733D01*
X12229362Y-15897638D01*
X12238886Y-15850019D01*
X12248409Y-15821448D01*
X12257933Y-15802400D01*
X12276981Y-15773828D01*
X12286505Y-15764305D01*
X12467457Y-15992876D02*
X12353171Y-15992876D01*
X12410314Y-15992876D02*
X12410314Y-15792876D01*
X12391267Y-15821448D01*
X12372219Y-15840495D01*
X12353171Y-15850019D01*
X12543648Y-15811924D02*
X12553171Y-15802400D01*
X12572219Y-15792876D01*
X12619838Y-15792876D01*
X12638886Y-15802400D01*
X12648409Y-15811924D01*
X12657933Y-15830971D01*
X12657933Y-15850019D01*
X12648409Y-15878590D01*
X12534124Y-15992876D01*
X12657933Y-15992876D01*
X12896028Y-15992876D02*
X12896028Y-15792876D01*
X12981743Y-15992876D02*
X12981743Y-15888114D01*
X12972219Y-15869067D01*
X12953171Y-15859543D01*
X12924600Y-15859543D01*
X12905552Y-15869067D01*
X12896028Y-15878590D01*
X13105552Y-15992876D02*
X13086505Y-15983352D01*
X13076981Y-15973828D01*
X13067457Y-15954781D01*
X13067457Y-15897638D01*
X13076981Y-15878590D01*
X13086505Y-15869067D01*
X13105552Y-15859543D01*
X13134124Y-15859543D01*
X13153171Y-15869067D01*
X13162695Y-15878590D01*
X13172219Y-15897638D01*
X13172219Y-15954781D01*
X13162695Y-15973828D01*
X13153171Y-15983352D01*
X13134124Y-15992876D01*
X13105552Y-15992876D01*
X13286505Y-15992876D02*
X13267457Y-15983352D01*
X13257933Y-15964305D01*
X13257933Y-15792876D01*
X13438886Y-15983352D02*
X13419838Y-15992876D01*
X13381743Y-15992876D01*
X13362695Y-15983352D01*
X13353171Y-15964305D01*
X13353171Y-15888114D01*
X13362695Y-15869067D01*
X13381743Y-15859543D01*
X13419838Y-15859543D01*
X13438886Y-15869067D01*
X13448409Y-15888114D01*
X13448409Y-15907162D01*
X13353171Y-15926209D01*
X13524600Y-15983352D02*
X13543648Y-15992876D01*
X13581743Y-15992876D01*
X13600790Y-15983352D01*
X13610314Y-15964305D01*
X13610314Y-15954781D01*
X13600790Y-15935733D01*
X13581743Y-15926209D01*
X13553171Y-15926209D01*
X13534124Y-15916686D01*
X13524600Y-15897638D01*
X13524600Y-15888114D01*
X13534124Y-15869067D01*
X13553171Y-15859543D01*
X13581743Y-15859543D01*
X13600790Y-15869067D01*
X13676981Y-16069067D02*
X13686505Y-16059543D01*
X13705552Y-16030971D01*
X13715076Y-16011924D01*
X13724600Y-15983352D01*
X13734124Y-15935733D01*
X13734124Y-15897638D01*
X13724600Y-15850019D01*
X13715076Y-15821448D01*
X13705552Y-15802400D01*
X13686505Y-15773828D01*
X13676981Y-15764305D01*
D13*
X8714600Y-16166400D02*
G75*
G03*
X8714600Y-16166400I-20000J0D01*
G01*
D11*
X9010314Y-16056876D02*
X9029362Y-16056876D01*
X9048410Y-16066400D01*
X9057933Y-16075924D01*
X9067457Y-16094971D01*
X9076981Y-16133067D01*
X9076981Y-16180686D01*
X9067457Y-16218781D01*
X9057933Y-16237828D01*
X9048410Y-16247352D01*
X9029362Y-16256876D01*
X9010314Y-16256876D01*
X8991267Y-16247352D01*
X8981743Y-16237828D01*
X8972219Y-16218781D01*
X8962695Y-16180686D01*
X8962695Y-16133067D01*
X8972219Y-16094971D01*
X8981743Y-16075924D01*
X8991267Y-16066400D01*
X9010314Y-16056876D01*
X9162695Y-16237828D02*
X9172219Y-16247352D01*
X9162695Y-16256876D01*
X9153171Y-16247352D01*
X9162695Y-16237828D01*
X9162695Y-16256876D01*
X9343648Y-16123543D02*
X9343648Y-16256876D01*
X9296029Y-16047352D02*
X9248410Y-16190209D01*
X9372219Y-16190209D01*
X9486505Y-16056876D02*
X9505552Y-16056876D01*
X9524600Y-16066400D01*
X9534124Y-16075924D01*
X9543648Y-16094971D01*
X9553171Y-16133067D01*
X9553171Y-16180686D01*
X9543648Y-16218781D01*
X9534124Y-16237828D01*
X9524600Y-16247352D01*
X9505552Y-16256876D01*
X9486505Y-16256876D01*
X9467457Y-16247352D01*
X9457933Y-16237828D01*
X9448410Y-16218781D01*
X9438886Y-16180686D01*
X9438886Y-16133067D01*
X9448410Y-16094971D01*
X9457933Y-16075924D01*
X9467457Y-16066400D01*
X9486505Y-16056876D01*
X9676981Y-16056876D02*
X9696029Y-16056876D01*
X9715076Y-16066400D01*
X9724600Y-16075924D01*
X9734124Y-16094971D01*
X9743648Y-16133067D01*
X9743648Y-16180686D01*
X9734124Y-16218781D01*
X9724600Y-16237828D01*
X9715076Y-16247352D01*
X9696029Y-16256876D01*
X9676981Y-16256876D01*
X9657933Y-16247352D01*
X9648410Y-16237828D01*
X9638886Y-16218781D01*
X9629362Y-16180686D01*
X9629362Y-16133067D01*
X9638886Y-16094971D01*
X9648410Y-16075924D01*
X9657933Y-16066400D01*
X9676981Y-16056876D01*
X9829362Y-16256876D02*
X9829362Y-16123543D01*
X9829362Y-16142590D02*
X9838886Y-16133067D01*
X9857933Y-16123543D01*
X9886505Y-16123543D01*
X9905552Y-16133067D01*
X9915076Y-16152114D01*
X9915076Y-16256876D01*
X9915076Y-16152114D02*
X9924600Y-16133067D01*
X9943648Y-16123543D01*
X9972219Y-16123543D01*
X9991267Y-16133067D01*
X10000790Y-16152114D01*
X10000790Y-16256876D01*
X10096029Y-16256876D02*
X10096029Y-16123543D01*
X10096029Y-16142590D02*
X10105552Y-16133067D01*
X10124600Y-16123543D01*
X10153171Y-16123543D01*
X10172219Y-16133067D01*
X10181743Y-16152114D01*
X10181743Y-16256876D01*
X10181743Y-16152114D02*
X10191267Y-16133067D01*
X10210314Y-16123543D01*
X10238886Y-16123543D01*
X10257933Y-16133067D01*
X10267457Y-16152114D01*
X10267457Y-16256876D01*
X10657933Y-16047352D02*
X10486505Y-16304495D01*
X10915076Y-16056876D02*
X10934124Y-16056876D01*
X10953171Y-16066400D01*
X10962695Y-16075924D01*
X10972219Y-16094971D01*
X10981743Y-16133067D01*
X10981743Y-16180686D01*
X10972219Y-16218781D01*
X10962695Y-16237828D01*
X10953171Y-16247352D01*
X10934124Y-16256876D01*
X10915076Y-16256876D01*
X10896029Y-16247352D01*
X10886505Y-16237828D01*
X10876981Y-16218781D01*
X10867457Y-16180686D01*
X10867457Y-16133067D01*
X10876981Y-16094971D01*
X10886505Y-16075924D01*
X10896029Y-16066400D01*
X10915076Y-16056876D01*
X11067457Y-16237828D02*
X11076981Y-16247352D01*
X11067457Y-16256876D01*
X11057933Y-16247352D01*
X11067457Y-16237828D01*
X11067457Y-16256876D01*
X11200790Y-16056876D02*
X11219838Y-16056876D01*
X11238886Y-16066400D01*
X11248409Y-16075924D01*
X11257933Y-16094971D01*
X11267457Y-16133067D01*
X11267457Y-16180686D01*
X11257933Y-16218781D01*
X11248409Y-16237828D01*
X11238886Y-16247352D01*
X11219838Y-16256876D01*
X11200790Y-16256876D01*
X11181743Y-16247352D01*
X11172219Y-16237828D01*
X11162695Y-16218781D01*
X11153171Y-16180686D01*
X11153171Y-16133067D01*
X11162695Y-16094971D01*
X11172219Y-16075924D01*
X11181743Y-16066400D01*
X11200790Y-16056876D01*
X11457933Y-16256876D02*
X11343648Y-16256876D01*
X11400790Y-16256876D02*
X11400790Y-16056876D01*
X11381743Y-16085448D01*
X11362695Y-16104495D01*
X11343648Y-16114019D01*
X11638886Y-16056876D02*
X11543648Y-16056876D01*
X11534124Y-16152114D01*
X11543648Y-16142590D01*
X11562695Y-16133067D01*
X11610314Y-16133067D01*
X11629362Y-16142590D01*
X11638886Y-16152114D01*
X11648409Y-16171162D01*
X11648409Y-16218781D01*
X11638886Y-16237828D01*
X11629362Y-16247352D01*
X11610314Y-16256876D01*
X11562695Y-16256876D01*
X11543648Y-16247352D01*
X11534124Y-16237828D01*
X11715076Y-16056876D02*
X11848409Y-16056876D01*
X11762695Y-16256876D01*
X11915076Y-16056876D02*
X11915076Y-16094971D01*
X11991267Y-16056876D02*
X11991267Y-16094971D01*
X12286505Y-16333067D02*
X12276981Y-16323543D01*
X12257933Y-16294971D01*
X12248409Y-16275924D01*
X12238886Y-16247352D01*
X12229362Y-16199733D01*
X12229362Y-16161638D01*
X12238886Y-16114019D01*
X12248409Y-16085448D01*
X12257933Y-16066400D01*
X12276981Y-16037828D01*
X12286505Y-16028305D01*
X12353171Y-16075924D02*
X12362695Y-16066400D01*
X12381743Y-16056876D01*
X12429362Y-16056876D01*
X12448409Y-16066400D01*
X12457933Y-16075924D01*
X12467457Y-16094971D01*
X12467457Y-16114019D01*
X12457933Y-16142590D01*
X12343648Y-16256876D01*
X12467457Y-16256876D01*
X12534124Y-16056876D02*
X12667457Y-16056876D01*
X12581743Y-16256876D01*
X12896028Y-16256876D02*
X12896028Y-16056876D01*
X12981743Y-16256876D02*
X12981743Y-16152114D01*
X12972219Y-16133067D01*
X12953171Y-16123543D01*
X12924600Y-16123543D01*
X12905552Y-16133067D01*
X12896028Y-16142590D01*
X13105552Y-16256876D02*
X13086505Y-16247352D01*
X13076981Y-16237828D01*
X13067457Y-16218781D01*
X13067457Y-16161638D01*
X13076981Y-16142590D01*
X13086505Y-16133067D01*
X13105552Y-16123543D01*
X13134124Y-16123543D01*
X13153171Y-16133067D01*
X13162695Y-16142590D01*
X13172219Y-16161638D01*
X13172219Y-16218781D01*
X13162695Y-16237828D01*
X13153171Y-16247352D01*
X13134124Y-16256876D01*
X13105552Y-16256876D01*
X13286505Y-16256876D02*
X13267457Y-16247352D01*
X13257933Y-16228305D01*
X13257933Y-16056876D01*
X13438886Y-16247352D02*
X13419838Y-16256876D01*
X13381743Y-16256876D01*
X13362695Y-16247352D01*
X13353171Y-16228305D01*
X13353171Y-16152114D01*
X13362695Y-16133067D01*
X13381743Y-16123543D01*
X13419838Y-16123543D01*
X13438886Y-16133067D01*
X13448409Y-16152114D01*
X13448409Y-16171162D01*
X13353171Y-16190209D01*
X13524600Y-16247352D02*
X13543648Y-16256876D01*
X13581743Y-16256876D01*
X13600790Y-16247352D01*
X13610314Y-16228305D01*
X13610314Y-16218781D01*
X13600790Y-16199733D01*
X13581743Y-16190209D01*
X13553171Y-16190209D01*
X13534124Y-16180686D01*
X13524600Y-16161638D01*
X13524600Y-16152114D01*
X13534124Y-16133067D01*
X13553171Y-16123543D01*
X13581743Y-16123543D01*
X13600790Y-16133067D01*
X13676981Y-16333067D02*
X13686505Y-16323543D01*
X13705552Y-16294971D01*
X13715076Y-16275924D01*
X13724600Y-16247352D01*
X13734124Y-16199733D01*
X13734124Y-16161638D01*
X13724600Y-16114019D01*
X13715076Y-16085448D01*
X13705552Y-16066400D01*
X13686505Y-16037828D01*
X13676981Y-16028305D01*
D14*
X8692100Y-16407900D02*
X8692100Y-16452900D01*
X8669600Y-16430400D02*
X8714600Y-16430400D01*
D11*
X9010314Y-16320876D02*
X9029362Y-16320876D01*
X9048410Y-16330400D01*
X9057933Y-16339924D01*
X9067457Y-16358971D01*
X9076981Y-16397067D01*
X9076981Y-16444686D01*
X9067457Y-16482781D01*
X9057933Y-16501828D01*
X9048410Y-16511352D01*
X9029362Y-16520876D01*
X9010314Y-16520876D01*
X8991267Y-16511352D01*
X8981743Y-16501828D01*
X8972219Y-16482781D01*
X8962695Y-16444686D01*
X8962695Y-16397067D01*
X8972219Y-16358971D01*
X8981743Y-16339924D01*
X8991267Y-16330400D01*
X9010314Y-16320876D01*
X9162695Y-16501828D02*
X9172219Y-16511352D01*
X9162695Y-16520876D01*
X9153171Y-16511352D01*
X9162695Y-16501828D01*
X9162695Y-16520876D01*
X9343648Y-16387543D02*
X9343648Y-16520876D01*
X9296029Y-16311352D02*
X9248410Y-16454209D01*
X9372219Y-16454209D01*
X9543648Y-16320876D02*
X9448410Y-16320876D01*
X9438886Y-16416114D01*
X9448410Y-16406590D01*
X9467457Y-16397067D01*
X9515076Y-16397067D01*
X9534124Y-16406590D01*
X9543648Y-16416114D01*
X9553171Y-16435162D01*
X9553171Y-16482781D01*
X9543648Y-16501828D01*
X9534124Y-16511352D01*
X9515076Y-16520876D01*
X9467457Y-16520876D01*
X9448410Y-16511352D01*
X9438886Y-16501828D01*
X9676981Y-16320876D02*
X9696029Y-16320876D01*
X9715076Y-16330400D01*
X9724600Y-16339924D01*
X9734124Y-16358971D01*
X9743648Y-16397067D01*
X9743648Y-16444686D01*
X9734124Y-16482781D01*
X9724600Y-16501828D01*
X9715076Y-16511352D01*
X9696029Y-16520876D01*
X9676981Y-16520876D01*
X9657933Y-16511352D01*
X9648410Y-16501828D01*
X9638886Y-16482781D01*
X9629362Y-16444686D01*
X9629362Y-16397067D01*
X9638886Y-16358971D01*
X9648410Y-16339924D01*
X9657933Y-16330400D01*
X9676981Y-16320876D01*
X9829362Y-16520876D02*
X9829362Y-16387543D01*
X9829362Y-16406590D02*
X9838886Y-16397067D01*
X9857933Y-16387543D01*
X9886505Y-16387543D01*
X9905552Y-16397067D01*
X9915076Y-16416114D01*
X9915076Y-16520876D01*
X9915076Y-16416114D02*
X9924600Y-16397067D01*
X9943648Y-16387543D01*
X9972219Y-16387543D01*
X9991267Y-16397067D01*
X10000790Y-16416114D01*
X10000790Y-16520876D01*
X10096029Y-16520876D02*
X10096029Y-16387543D01*
X10096029Y-16406590D02*
X10105552Y-16397067D01*
X10124600Y-16387543D01*
X10153171Y-16387543D01*
X10172219Y-16397067D01*
X10181743Y-16416114D01*
X10181743Y-16520876D01*
X10181743Y-16416114D02*
X10191267Y-16397067D01*
X10210314Y-16387543D01*
X10238886Y-16387543D01*
X10257933Y-16397067D01*
X10267457Y-16416114D01*
X10267457Y-16520876D01*
X10657933Y-16311352D02*
X10486505Y-16568495D01*
X10915076Y-16320876D02*
X10934124Y-16320876D01*
X10953171Y-16330400D01*
X10962695Y-16339924D01*
X10972219Y-16358971D01*
X10981743Y-16397067D01*
X10981743Y-16444686D01*
X10972219Y-16482781D01*
X10962695Y-16501828D01*
X10953171Y-16511352D01*
X10934124Y-16520876D01*
X10915076Y-16520876D01*
X10896029Y-16511352D01*
X10886505Y-16501828D01*
X10876981Y-16482781D01*
X10867457Y-16444686D01*
X10867457Y-16397067D01*
X10876981Y-16358971D01*
X10886505Y-16339924D01*
X10896029Y-16330400D01*
X10915076Y-16320876D01*
X11067457Y-16501828D02*
X11076981Y-16511352D01*
X11067457Y-16520876D01*
X11057933Y-16511352D01*
X11067457Y-16501828D01*
X11067457Y-16520876D01*
X11200790Y-16320876D02*
X11219838Y-16320876D01*
X11238886Y-16330400D01*
X11248409Y-16339924D01*
X11257933Y-16358971D01*
X11267457Y-16397067D01*
X11267457Y-16444686D01*
X11257933Y-16482781D01*
X11248409Y-16501828D01*
X11238886Y-16511352D01*
X11219838Y-16520876D01*
X11200790Y-16520876D01*
X11181743Y-16511352D01*
X11172219Y-16501828D01*
X11162695Y-16482781D01*
X11153171Y-16444686D01*
X11153171Y-16397067D01*
X11162695Y-16358971D01*
X11172219Y-16339924D01*
X11181743Y-16330400D01*
X11200790Y-16320876D01*
X11457933Y-16520876D02*
X11343648Y-16520876D01*
X11400790Y-16520876D02*
X11400790Y-16320876D01*
X11381743Y-16349448D01*
X11362695Y-16368495D01*
X11343648Y-16378019D01*
X11524600Y-16320876D02*
X11657933Y-16320876D01*
X11572219Y-16520876D01*
X11715076Y-16320876D02*
X11848409Y-16320876D01*
X11762695Y-16520876D01*
X11915076Y-16320876D02*
X11915076Y-16358971D01*
X11991267Y-16320876D02*
X11991267Y-16358971D01*
X12286505Y-16597067D02*
X12276981Y-16587543D01*
X12257933Y-16558971D01*
X12248409Y-16539924D01*
X12238886Y-16511352D01*
X12229362Y-16463733D01*
X12229362Y-16425638D01*
X12238886Y-16378019D01*
X12248409Y-16349448D01*
X12257933Y-16330400D01*
X12276981Y-16301828D01*
X12286505Y-16292305D01*
X12400790Y-16320876D02*
X12419838Y-16320876D01*
X12438886Y-16330400D01*
X12448409Y-16339924D01*
X12457933Y-16358971D01*
X12467457Y-16397067D01*
X12467457Y-16444686D01*
X12457933Y-16482781D01*
X12448409Y-16501828D01*
X12438886Y-16511352D01*
X12419838Y-16520876D01*
X12400790Y-16520876D01*
X12381743Y-16511352D01*
X12372219Y-16501828D01*
X12362695Y-16482781D01*
X12353171Y-16444686D01*
X12353171Y-16397067D01*
X12362695Y-16358971D01*
X12372219Y-16339924D01*
X12381743Y-16330400D01*
X12400790Y-16320876D01*
X12705552Y-16520876D02*
X12705552Y-16320876D01*
X12791267Y-16520876D02*
X12791267Y-16416114D01*
X12781743Y-16397067D01*
X12762695Y-16387543D01*
X12734124Y-16387543D01*
X12715076Y-16397067D01*
X12705552Y-16406590D01*
X12915076Y-16520876D02*
X12896028Y-16511352D01*
X12886505Y-16501828D01*
X12876981Y-16482781D01*
X12876981Y-16425638D01*
X12886505Y-16406590D01*
X12896028Y-16397067D01*
X12915076Y-16387543D01*
X12943648Y-16387543D01*
X12962695Y-16397067D01*
X12972219Y-16406590D01*
X12981743Y-16425638D01*
X12981743Y-16482781D01*
X12972219Y-16501828D01*
X12962695Y-16511352D01*
X12943648Y-16520876D01*
X12915076Y-16520876D01*
X13096028Y-16520876D02*
X13076981Y-16511352D01*
X13067457Y-16492305D01*
X13067457Y-16320876D01*
X13248409Y-16511352D02*
X13229362Y-16520876D01*
X13191267Y-16520876D01*
X13172219Y-16511352D01*
X13162695Y-16492305D01*
X13162695Y-16416114D01*
X13172219Y-16397067D01*
X13191267Y-16387543D01*
X13229362Y-16387543D01*
X13248409Y-16397067D01*
X13257933Y-16416114D01*
X13257933Y-16435162D01*
X13162695Y-16454209D01*
X13334124Y-16511352D02*
X13353171Y-16520876D01*
X13391267Y-16520876D01*
X13410314Y-16511352D01*
X13419838Y-16492305D01*
X13419838Y-16482781D01*
X13410314Y-16463733D01*
X13391267Y-16454209D01*
X13362695Y-16454209D01*
X13343648Y-16444686D01*
X13334124Y-16425638D01*
X13334124Y-16416114D01*
X13343648Y-16397067D01*
X13362695Y-16387543D01*
X13391267Y-16387543D01*
X13410314Y-16397067D01*
X13657933Y-16444686D02*
X13810314Y-16444686D01*
X13734124Y-16520876D02*
X13734124Y-16368495D01*
X14048409Y-16339924D02*
X14057933Y-16330400D01*
X14076981Y-16320876D01*
X14124600Y-16320876D01*
X14143648Y-16330400D01*
X14153171Y-16339924D01*
X14162695Y-16358971D01*
X14162695Y-16378019D01*
X14153171Y-16406590D01*
X14038886Y-16520876D01*
X14162695Y-16520876D01*
X14391267Y-16511352D02*
X14410314Y-16520876D01*
X14448409Y-16520876D01*
X14467457Y-16511352D01*
X14476981Y-16492305D01*
X14476981Y-16482781D01*
X14467457Y-16463733D01*
X14448409Y-16454209D01*
X14419838Y-16454209D01*
X14400790Y-16444686D01*
X14391267Y-16425638D01*
X14391267Y-16416114D01*
X14400790Y-16397067D01*
X14419838Y-16387543D01*
X14448409Y-16387543D01*
X14467457Y-16397067D01*
X14591267Y-16520876D02*
X14572219Y-16511352D01*
X14562695Y-16492305D01*
X14562695Y-16320876D01*
X14696028Y-16520876D02*
X14676981Y-16511352D01*
X14667457Y-16501828D01*
X14657933Y-16482781D01*
X14657933Y-16425638D01*
X14667457Y-16406590D01*
X14676981Y-16397067D01*
X14696028Y-16387543D01*
X14724600Y-16387543D01*
X14743648Y-16397067D01*
X14753171Y-16406590D01*
X14762695Y-16425638D01*
X14762695Y-16482781D01*
X14753171Y-16501828D01*
X14743648Y-16511352D01*
X14724600Y-16520876D01*
X14696028Y-16520876D01*
X14819838Y-16387543D02*
X14896028Y-16387543D01*
X14848409Y-16320876D02*
X14848409Y-16492305D01*
X14857933Y-16511352D01*
X14876981Y-16520876D01*
X14896028Y-16520876D01*
X14953171Y-16511352D02*
X14972219Y-16520876D01*
X15010314Y-16520876D01*
X15029362Y-16511352D01*
X15038886Y-16492305D01*
X15038886Y-16482781D01*
X15029362Y-16463733D01*
X15010314Y-16454209D01*
X14981743Y-16454209D01*
X14962695Y-16444686D01*
X14953171Y-16425638D01*
X14953171Y-16416114D01*
X14962695Y-16397067D01*
X14981743Y-16387543D01*
X15010314Y-16387543D01*
X15029362Y-16397067D01*
X15105552Y-16597067D02*
X15115076Y-16587543D01*
X15134124Y-16558971D01*
X15143648Y-16539924D01*
X15153171Y-16511352D01*
X15162695Y-16463733D01*
X15162695Y-16425638D01*
X15153171Y-16378019D01*
X15143648Y-16349448D01*
X15134124Y-16330400D01*
X15115076Y-16301828D01*
X15105552Y-16292305D01*
D15*
X8702885Y-16722684D02*
X8702885Y-16666115D01*
X8646316Y-16666115D01*
X8646316Y-16722684D01*
X8702885Y-16722684D01*
D11*
X9010314Y-16584876D02*
X9029362Y-16584876D01*
X9048410Y-16594400D01*
X9057933Y-16603924D01*
X9067457Y-16622971D01*
X9076981Y-16661067D01*
X9076981Y-16708686D01*
X9067457Y-16746781D01*
X9057933Y-16765828D01*
X9048410Y-16775352D01*
X9029362Y-16784876D01*
X9010314Y-16784876D01*
X8991267Y-16775352D01*
X8981743Y-16765828D01*
X8972219Y-16746781D01*
X8962695Y-16708686D01*
X8962695Y-16661067D01*
X8972219Y-16622971D01*
X8981743Y-16603924D01*
X8991267Y-16594400D01*
X9010314Y-16584876D01*
X9162695Y-16765828D02*
X9172219Y-16775352D01*
X9162695Y-16784876D01*
X9153171Y-16775352D01*
X9162695Y-16765828D01*
X9162695Y-16784876D01*
X9286505Y-16670590D02*
X9267457Y-16661067D01*
X9257933Y-16651543D01*
X9248410Y-16632495D01*
X9248410Y-16622971D01*
X9257933Y-16603924D01*
X9267457Y-16594400D01*
X9286505Y-16584876D01*
X9324600Y-16584876D01*
X9343648Y-16594400D01*
X9353171Y-16603924D01*
X9362695Y-16622971D01*
X9362695Y-16632495D01*
X9353171Y-16651543D01*
X9343648Y-16661067D01*
X9324600Y-16670590D01*
X9286505Y-16670590D01*
X9267457Y-16680114D01*
X9257933Y-16689638D01*
X9248410Y-16708686D01*
X9248410Y-16746781D01*
X9257933Y-16765828D01*
X9267457Y-16775352D01*
X9286505Y-16784876D01*
X9324600Y-16784876D01*
X9343648Y-16775352D01*
X9353171Y-16765828D01*
X9362695Y-16746781D01*
X9362695Y-16708686D01*
X9353171Y-16689638D01*
X9343648Y-16680114D01*
X9324600Y-16670590D01*
X9486505Y-16584876D02*
X9505552Y-16584876D01*
X9524600Y-16594400D01*
X9534124Y-16603924D01*
X9543648Y-16622971D01*
X9553171Y-16661067D01*
X9553171Y-16708686D01*
X9543648Y-16746781D01*
X9534124Y-16765828D01*
X9524600Y-16775352D01*
X9505552Y-16784876D01*
X9486505Y-16784876D01*
X9467457Y-16775352D01*
X9457933Y-16765828D01*
X9448410Y-16746781D01*
X9438886Y-16708686D01*
X9438886Y-16661067D01*
X9448410Y-16622971D01*
X9457933Y-16603924D01*
X9467457Y-16594400D01*
X9486505Y-16584876D01*
X9676981Y-16584876D02*
X9696029Y-16584876D01*
X9715076Y-16594400D01*
X9724600Y-16603924D01*
X9734124Y-16622971D01*
X9743648Y-16661067D01*
X9743648Y-16708686D01*
X9734124Y-16746781D01*
X9724600Y-16765828D01*
X9715076Y-16775352D01*
X9696029Y-16784876D01*
X9676981Y-16784876D01*
X9657933Y-16775352D01*
X9648410Y-16765828D01*
X9638886Y-16746781D01*
X9629362Y-16708686D01*
X9629362Y-16661067D01*
X9638886Y-16622971D01*
X9648410Y-16603924D01*
X9657933Y-16594400D01*
X9676981Y-16584876D01*
X9829362Y-16784876D02*
X9829362Y-16651543D01*
X9829362Y-16670590D02*
X9838886Y-16661067D01*
X9857933Y-16651543D01*
X9886505Y-16651543D01*
X9905552Y-16661067D01*
X9915076Y-16680114D01*
X9915076Y-16784876D01*
X9915076Y-16680114D02*
X9924600Y-16661067D01*
X9943648Y-16651543D01*
X9972219Y-16651543D01*
X9991267Y-16661067D01*
X10000790Y-16680114D01*
X10000790Y-16784876D01*
X10096029Y-16784876D02*
X10096029Y-16651543D01*
X10096029Y-16670590D02*
X10105552Y-16661067D01*
X10124600Y-16651543D01*
X10153171Y-16651543D01*
X10172219Y-16661067D01*
X10181743Y-16680114D01*
X10181743Y-16784876D01*
X10181743Y-16680114D02*
X10191267Y-16661067D01*
X10210314Y-16651543D01*
X10238886Y-16651543D01*
X10257933Y-16661067D01*
X10267457Y-16680114D01*
X10267457Y-16784876D01*
X10657933Y-16575352D02*
X10486505Y-16832495D01*
X10915076Y-16584876D02*
X10934124Y-16584876D01*
X10953171Y-16594400D01*
X10962695Y-16603924D01*
X10972219Y-16622971D01*
X10981743Y-16661067D01*
X10981743Y-16708686D01*
X10972219Y-16746781D01*
X10962695Y-16765828D01*
X10953171Y-16775352D01*
X10934124Y-16784876D01*
X10915076Y-16784876D01*
X10896029Y-16775352D01*
X10886505Y-16765828D01*
X10876981Y-16746781D01*
X10867457Y-16708686D01*
X10867457Y-16661067D01*
X10876981Y-16622971D01*
X10886505Y-16603924D01*
X10896029Y-16594400D01*
X10915076Y-16584876D01*
X11067457Y-16765828D02*
X11076981Y-16775352D01*
X11067457Y-16784876D01*
X11057933Y-16775352D01*
X11067457Y-16765828D01*
X11067457Y-16784876D01*
X11200790Y-16584876D02*
X11219838Y-16584876D01*
X11238886Y-16594400D01*
X11248409Y-16603924D01*
X11257933Y-16622971D01*
X11267457Y-16661067D01*
X11267457Y-16708686D01*
X11257933Y-16746781D01*
X11248409Y-16765828D01*
X11238886Y-16775352D01*
X11219838Y-16784876D01*
X11200790Y-16784876D01*
X11181743Y-16775352D01*
X11172219Y-16765828D01*
X11162695Y-16746781D01*
X11153171Y-16708686D01*
X11153171Y-16661067D01*
X11162695Y-16622971D01*
X11172219Y-16603924D01*
X11181743Y-16594400D01*
X11200790Y-16584876D01*
X11334124Y-16584876D02*
X11457933Y-16584876D01*
X11391267Y-16661067D01*
X11419838Y-16661067D01*
X11438886Y-16670590D01*
X11448409Y-16680114D01*
X11457933Y-16699162D01*
X11457933Y-16746781D01*
X11448409Y-16765828D01*
X11438886Y-16775352D01*
X11419838Y-16784876D01*
X11362695Y-16784876D01*
X11343648Y-16775352D01*
X11334124Y-16765828D01*
X11648409Y-16784876D02*
X11534124Y-16784876D01*
X11591267Y-16784876D02*
X11591267Y-16584876D01*
X11572219Y-16613448D01*
X11553171Y-16632495D01*
X11534124Y-16642019D01*
X11829362Y-16584876D02*
X11734124Y-16584876D01*
X11724600Y-16680114D01*
X11734124Y-16670590D01*
X11753171Y-16661067D01*
X11800790Y-16661067D01*
X11819838Y-16670590D01*
X11829362Y-16680114D01*
X11838886Y-16699162D01*
X11838886Y-16746781D01*
X11829362Y-16765828D01*
X11819838Y-16775352D01*
X11800790Y-16784876D01*
X11753171Y-16784876D01*
X11734124Y-16775352D01*
X11724600Y-16765828D01*
X11915076Y-16584876D02*
X11915076Y-16622971D01*
X11991267Y-16584876D02*
X11991267Y-16622971D01*
X12286505Y-16861067D02*
X12276981Y-16851543D01*
X12257933Y-16822971D01*
X12248409Y-16803924D01*
X12238886Y-16775352D01*
X12229362Y-16727733D01*
X12229362Y-16689638D01*
X12238886Y-16642019D01*
X12248409Y-16613448D01*
X12257933Y-16594400D01*
X12276981Y-16565828D01*
X12286505Y-16556305D01*
X12400790Y-16584876D02*
X12419838Y-16584876D01*
X12438886Y-16594400D01*
X12448409Y-16603924D01*
X12457933Y-16622971D01*
X12467457Y-16661067D01*
X12467457Y-16708686D01*
X12457933Y-16746781D01*
X12448409Y-16765828D01*
X12438886Y-16775352D01*
X12419838Y-16784876D01*
X12400790Y-16784876D01*
X12381743Y-16775352D01*
X12372219Y-16765828D01*
X12362695Y-16746781D01*
X12353171Y-16708686D01*
X12353171Y-16661067D01*
X12362695Y-16622971D01*
X12372219Y-16603924D01*
X12381743Y-16594400D01*
X12400790Y-16584876D01*
X12705552Y-16784876D02*
X12705552Y-16584876D01*
X12791267Y-16784876D02*
X12791267Y-16680114D01*
X12781743Y-16661067D01*
X12762695Y-16651543D01*
X12734124Y-16651543D01*
X12715076Y-16661067D01*
X12705552Y-16670590D01*
X12915076Y-16784876D02*
X12896028Y-16775352D01*
X12886505Y-16765828D01*
X12876981Y-16746781D01*
X12876981Y-16689638D01*
X12886505Y-16670590D01*
X12896028Y-16661067D01*
X12915076Y-16651543D01*
X12943648Y-16651543D01*
X12962695Y-16661067D01*
X12972219Y-16670590D01*
X12981743Y-16689638D01*
X12981743Y-16746781D01*
X12972219Y-16765828D01*
X12962695Y-16775352D01*
X12943648Y-16784876D01*
X12915076Y-16784876D01*
X13096028Y-16784876D02*
X13076981Y-16775352D01*
X13067457Y-16756305D01*
X13067457Y-16584876D01*
X13248409Y-16775352D02*
X13229362Y-16784876D01*
X13191267Y-16784876D01*
X13172219Y-16775352D01*
X13162695Y-16756305D01*
X13162695Y-16680114D01*
X13172219Y-16661067D01*
X13191267Y-16651543D01*
X13229362Y-16651543D01*
X13248409Y-16661067D01*
X13257933Y-16680114D01*
X13257933Y-16699162D01*
X13162695Y-16718209D01*
X13334124Y-16775352D02*
X13353171Y-16784876D01*
X13391267Y-16784876D01*
X13410314Y-16775352D01*
X13419838Y-16756305D01*
X13419838Y-16746781D01*
X13410314Y-16727733D01*
X13391267Y-16718209D01*
X13362695Y-16718209D01*
X13343648Y-16708686D01*
X13334124Y-16689638D01*
X13334124Y-16680114D01*
X13343648Y-16661067D01*
X13362695Y-16651543D01*
X13391267Y-16651543D01*
X13410314Y-16661067D01*
X13657933Y-16708686D02*
X13810314Y-16708686D01*
X13734124Y-16784876D02*
X13734124Y-16632495D01*
X14038886Y-16584876D02*
X14162695Y-16584876D01*
X14096028Y-16661067D01*
X14124600Y-16661067D01*
X14143648Y-16670590D01*
X14153171Y-16680114D01*
X14162695Y-16699162D01*
X14162695Y-16746781D01*
X14153171Y-16765828D01*
X14143648Y-16775352D01*
X14124600Y-16784876D01*
X14067457Y-16784876D01*
X14048409Y-16775352D01*
X14038886Y-16765828D01*
X14391267Y-16775352D02*
X14410314Y-16784876D01*
X14448409Y-16784876D01*
X14467457Y-16775352D01*
X14476981Y-16756305D01*
X14476981Y-16746781D01*
X14467457Y-16727733D01*
X14448409Y-16718209D01*
X14419838Y-16718209D01*
X14400790Y-16708686D01*
X14391267Y-16689638D01*
X14391267Y-16680114D01*
X14400790Y-16661067D01*
X14419838Y-16651543D01*
X14448409Y-16651543D01*
X14467457Y-16661067D01*
X14591267Y-16784876D02*
X14572219Y-16775352D01*
X14562695Y-16756305D01*
X14562695Y-16584876D01*
X14696028Y-16784876D02*
X14676981Y-16775352D01*
X14667457Y-16765828D01*
X14657933Y-16746781D01*
X14657933Y-16689638D01*
X14667457Y-16670590D01*
X14676981Y-16661067D01*
X14696028Y-16651543D01*
X14724600Y-16651543D01*
X14743648Y-16661067D01*
X14753171Y-16670590D01*
X14762695Y-16689638D01*
X14762695Y-16746781D01*
X14753171Y-16765828D01*
X14743648Y-16775352D01*
X14724600Y-16784876D01*
X14696028Y-16784876D01*
X14819838Y-16651543D02*
X14896028Y-16651543D01*
X14848409Y-16584876D02*
X14848409Y-16756305D01*
X14857933Y-16775352D01*
X14876981Y-16784876D01*
X14896028Y-16784876D01*
X14953171Y-16775352D02*
X14972219Y-16784876D01*
X15010314Y-16784876D01*
X15029362Y-16775352D01*
X15038886Y-16756305D01*
X15038886Y-16746781D01*
X15029362Y-16727733D01*
X15010314Y-16718209D01*
X14981743Y-16718209D01*
X14962695Y-16708686D01*
X14953171Y-16689638D01*
X14953171Y-16680114D01*
X14962695Y-16661067D01*
X14981743Y-16651543D01*
X15010314Y-16651543D01*
X15029362Y-16661067D01*
X15105552Y-16861067D02*
X15115076Y-16851543D01*
X15134124Y-16822971D01*
X15143648Y-16803924D01*
X15153171Y-16775352D01*
X15162695Y-16727733D01*
X15162695Y-16689638D01*
X15153171Y-16642019D01*
X15143648Y-16613448D01*
X15134124Y-16594400D01*
X15115076Y-16565828D01*
X15105552Y-16556305D01*
D16*
X8672690Y-17000310D02*
X8714600Y-16958400D01*
X8672690Y-16916490D01*
X8630780Y-16958400D01*
X8672690Y-17000310D01*
D11*
X9010314Y-16848876D02*
X9029362Y-16848876D01*
X9048410Y-16858400D01*
X9057933Y-16867924D01*
X9067457Y-16886971D01*
X9076981Y-16925067D01*
X9076981Y-16972686D01*
X9067457Y-17010781D01*
X9057933Y-17029829D01*
X9048410Y-17039352D01*
X9029362Y-17048876D01*
X9010314Y-17048876D01*
X8991267Y-17039352D01*
X8981743Y-17029829D01*
X8972219Y-17010781D01*
X8962695Y-16972686D01*
X8962695Y-16925067D01*
X8972219Y-16886971D01*
X8981743Y-16867924D01*
X8991267Y-16858400D01*
X9010314Y-16848876D01*
X9162695Y-17029829D02*
X9172219Y-17039352D01*
X9162695Y-17048876D01*
X9153171Y-17039352D01*
X9162695Y-17029829D01*
X9162695Y-17048876D01*
X9286505Y-16934590D02*
X9267457Y-16925067D01*
X9257933Y-16915543D01*
X9248410Y-16896495D01*
X9248410Y-16886971D01*
X9257933Y-16867924D01*
X9267457Y-16858400D01*
X9286505Y-16848876D01*
X9324600Y-16848876D01*
X9343648Y-16858400D01*
X9353171Y-16867924D01*
X9362695Y-16886971D01*
X9362695Y-16896495D01*
X9353171Y-16915543D01*
X9343648Y-16925067D01*
X9324600Y-16934590D01*
X9286505Y-16934590D01*
X9267457Y-16944114D01*
X9257933Y-16953638D01*
X9248410Y-16972686D01*
X9248410Y-17010781D01*
X9257933Y-17029829D01*
X9267457Y-17039352D01*
X9286505Y-17048876D01*
X9324600Y-17048876D01*
X9343648Y-17039352D01*
X9353171Y-17029829D01*
X9362695Y-17010781D01*
X9362695Y-16972686D01*
X9353171Y-16953638D01*
X9343648Y-16944114D01*
X9324600Y-16934590D01*
X9429362Y-16848876D02*
X9553171Y-16848876D01*
X9486505Y-16925067D01*
X9515076Y-16925067D01*
X9534124Y-16934590D01*
X9543648Y-16944114D01*
X9553171Y-16963162D01*
X9553171Y-17010781D01*
X9543648Y-17029829D01*
X9534124Y-17039352D01*
X9515076Y-17048876D01*
X9457933Y-17048876D01*
X9438886Y-17039352D01*
X9429362Y-17029829D01*
X9667457Y-16934590D02*
X9648410Y-16925067D01*
X9638886Y-16915543D01*
X9629362Y-16896495D01*
X9629362Y-16886971D01*
X9638886Y-16867924D01*
X9648410Y-16858400D01*
X9667457Y-16848876D01*
X9705552Y-16848876D01*
X9724600Y-16858400D01*
X9734124Y-16867924D01*
X9743648Y-16886971D01*
X9743648Y-16896495D01*
X9734124Y-16915543D01*
X9724600Y-16925067D01*
X9705552Y-16934590D01*
X9667457Y-16934590D01*
X9648410Y-16944114D01*
X9638886Y-16953638D01*
X9629362Y-16972686D01*
X9629362Y-17010781D01*
X9638886Y-17029829D01*
X9648410Y-17039352D01*
X9667457Y-17048876D01*
X9705552Y-17048876D01*
X9724600Y-17039352D01*
X9734124Y-17029829D01*
X9743648Y-17010781D01*
X9743648Y-16972686D01*
X9734124Y-16953638D01*
X9724600Y-16944114D01*
X9705552Y-16934590D01*
X9829362Y-17048876D02*
X9829362Y-16915543D01*
X9829362Y-16934590D02*
X9838886Y-16925067D01*
X9857933Y-16915543D01*
X9886505Y-16915543D01*
X9905552Y-16925067D01*
X9915076Y-16944114D01*
X9915076Y-17048876D01*
X9915076Y-16944114D02*
X9924600Y-16925067D01*
X9943648Y-16915543D01*
X9972219Y-16915543D01*
X9991267Y-16925067D01*
X10000790Y-16944114D01*
X10000790Y-17048876D01*
X10096029Y-17048876D02*
X10096029Y-16915543D01*
X10096029Y-16934590D02*
X10105552Y-16925067D01*
X10124600Y-16915543D01*
X10153171Y-16915543D01*
X10172219Y-16925067D01*
X10181743Y-16944114D01*
X10181743Y-17048876D01*
X10181743Y-16944114D02*
X10191267Y-16925067D01*
X10210314Y-16915543D01*
X10238886Y-16915543D01*
X10257933Y-16925067D01*
X10267457Y-16944114D01*
X10267457Y-17048876D01*
X10657933Y-16839352D02*
X10486505Y-17096495D01*
X10915076Y-16848876D02*
X10934124Y-16848876D01*
X10953171Y-16858400D01*
X10962695Y-16867924D01*
X10972219Y-16886971D01*
X10981743Y-16925067D01*
X10981743Y-16972686D01*
X10972219Y-17010781D01*
X10962695Y-17029829D01*
X10953171Y-17039352D01*
X10934124Y-17048876D01*
X10915076Y-17048876D01*
X10896029Y-17039352D01*
X10886505Y-17029829D01*
X10876981Y-17010781D01*
X10867457Y-16972686D01*
X10867457Y-16925067D01*
X10876981Y-16886971D01*
X10886505Y-16867924D01*
X10896029Y-16858400D01*
X10915076Y-16848876D01*
X11067457Y-17029829D02*
X11076981Y-17039352D01*
X11067457Y-17048876D01*
X11057933Y-17039352D01*
X11067457Y-17029829D01*
X11067457Y-17048876D01*
X11200790Y-16848876D02*
X11219838Y-16848876D01*
X11238886Y-16858400D01*
X11248409Y-16867924D01*
X11257933Y-16886971D01*
X11267457Y-16925067D01*
X11267457Y-16972686D01*
X11257933Y-17010781D01*
X11248409Y-17029829D01*
X11238886Y-17039352D01*
X11219838Y-17048876D01*
X11200790Y-17048876D01*
X11181743Y-17039352D01*
X11172219Y-17029829D01*
X11162695Y-17010781D01*
X11153171Y-16972686D01*
X11153171Y-16925067D01*
X11162695Y-16886971D01*
X11172219Y-16867924D01*
X11181743Y-16858400D01*
X11200790Y-16848876D01*
X11334124Y-16848876D02*
X11457933Y-16848876D01*
X11391267Y-16925067D01*
X11419838Y-16925067D01*
X11438886Y-16934590D01*
X11448409Y-16944114D01*
X11457933Y-16963162D01*
X11457933Y-17010781D01*
X11448409Y-17029829D01*
X11438886Y-17039352D01*
X11419838Y-17048876D01*
X11362695Y-17048876D01*
X11343648Y-17039352D01*
X11334124Y-17029829D01*
X11524600Y-16848876D02*
X11648409Y-16848876D01*
X11581743Y-16925067D01*
X11610314Y-16925067D01*
X11629362Y-16934590D01*
X11638886Y-16944114D01*
X11648409Y-16963162D01*
X11648409Y-17010781D01*
X11638886Y-17029829D01*
X11629362Y-17039352D01*
X11610314Y-17048876D01*
X11553171Y-17048876D01*
X11534124Y-17039352D01*
X11524600Y-17029829D01*
X11772219Y-16848876D02*
X11791267Y-16848876D01*
X11810314Y-16858400D01*
X11819838Y-16867924D01*
X11829362Y-16886971D01*
X11838886Y-16925067D01*
X11838886Y-16972686D01*
X11829362Y-17010781D01*
X11819838Y-17029829D01*
X11810314Y-17039352D01*
X11791267Y-17048876D01*
X11772219Y-17048876D01*
X11753171Y-17039352D01*
X11743648Y-17029829D01*
X11734124Y-17010781D01*
X11724600Y-16972686D01*
X11724600Y-16925067D01*
X11734124Y-16886971D01*
X11743648Y-16867924D01*
X11753171Y-16858400D01*
X11772219Y-16848876D01*
X11915076Y-16848876D02*
X11915076Y-16886971D01*
X11991267Y-16848876D02*
X11991267Y-16886971D01*
X12286505Y-17125067D02*
X12276981Y-17115543D01*
X12257933Y-17086971D01*
X12248409Y-17067924D01*
X12238886Y-17039352D01*
X12229362Y-16991733D01*
X12229362Y-16953638D01*
X12238886Y-16906019D01*
X12248409Y-16877448D01*
X12257933Y-16858400D01*
X12276981Y-16829829D01*
X12286505Y-16820305D01*
X12353171Y-16867924D02*
X12362695Y-16858400D01*
X12381743Y-16848876D01*
X12429362Y-16848876D01*
X12448409Y-16858400D01*
X12457933Y-16867924D01*
X12467457Y-16886971D01*
X12467457Y-16906019D01*
X12457933Y-16934590D01*
X12343648Y-17048876D01*
X12467457Y-17048876D01*
X12657933Y-17048876D02*
X12543648Y-17048876D01*
X12600790Y-17048876D02*
X12600790Y-16848876D01*
X12581743Y-16877448D01*
X12562695Y-16896495D01*
X12543648Y-16906019D01*
X12896028Y-17048876D02*
X12896028Y-16848876D01*
X12981743Y-17048876D02*
X12981743Y-16944114D01*
X12972219Y-16925067D01*
X12953171Y-16915543D01*
X12924600Y-16915543D01*
X12905552Y-16925067D01*
X12896028Y-16934590D01*
X13105552Y-17048876D02*
X13086505Y-17039352D01*
X13076981Y-17029829D01*
X13067457Y-17010781D01*
X13067457Y-16953638D01*
X13076981Y-16934590D01*
X13086505Y-16925067D01*
X13105552Y-16915543D01*
X13134124Y-16915543D01*
X13153171Y-16925067D01*
X13162695Y-16934590D01*
X13172219Y-16953638D01*
X13172219Y-17010781D01*
X13162695Y-17029829D01*
X13153171Y-17039352D01*
X13134124Y-17048876D01*
X13105552Y-17048876D01*
X13286505Y-17048876D02*
X13267457Y-17039352D01*
X13257933Y-17020305D01*
X13257933Y-16848876D01*
X13438886Y-17039352D02*
X13419838Y-17048876D01*
X13381743Y-17048876D01*
X13362695Y-17039352D01*
X13353171Y-17020305D01*
X13353171Y-16944114D01*
X13362695Y-16925067D01*
X13381743Y-16915543D01*
X13419838Y-16915543D01*
X13438886Y-16925067D01*
X13448409Y-16944114D01*
X13448409Y-16963162D01*
X13353171Y-16982210D01*
X13524600Y-17039352D02*
X13543648Y-17048876D01*
X13581743Y-17048876D01*
X13600790Y-17039352D01*
X13610314Y-17020305D01*
X13610314Y-17010781D01*
X13600790Y-16991733D01*
X13581743Y-16982210D01*
X13553171Y-16982210D01*
X13534124Y-16972686D01*
X13524600Y-16953638D01*
X13524600Y-16944114D01*
X13534124Y-16925067D01*
X13553171Y-16915543D01*
X13581743Y-16915543D01*
X13600790Y-16925067D01*
X13676981Y-17125067D02*
X13686505Y-17115543D01*
X13705552Y-17086971D01*
X13715076Y-17067924D01*
X13724600Y-17039352D01*
X13734124Y-16991733D01*
X13734124Y-16953638D01*
X13724600Y-16906019D01*
X13715076Y-16877448D01*
X13705552Y-16858400D01*
X13686505Y-16829829D01*
X13676981Y-16820305D01*
D10*
X8614600Y-17172400D02*
X8714600Y-17272400D01*
X8714600Y-17172400D02*
X8614600Y-17272400D01*
X8714600Y-17222400D02*
G75*
G03*
X8714600Y-17222400I-50000J0D01*
G01*
D11*
X9076981Y-17312876D02*
X8962695Y-17312876D01*
X9019838Y-17312876D02*
X9019838Y-17112876D01*
X9000790Y-17141448D01*
X8981743Y-17160495D01*
X8962695Y-17170019D01*
X9162695Y-17293829D02*
X9172219Y-17303352D01*
X9162695Y-17312876D01*
X9153171Y-17303352D01*
X9162695Y-17293829D01*
X9162695Y-17312876D01*
X9296029Y-17112876D02*
X9315076Y-17112876D01*
X9334124Y-17122400D01*
X9343648Y-17131924D01*
X9353171Y-17150971D01*
X9362695Y-17189067D01*
X9362695Y-17236686D01*
X9353171Y-17274781D01*
X9343648Y-17293829D01*
X9334124Y-17303352D01*
X9315076Y-17312876D01*
X9296029Y-17312876D01*
X9276981Y-17303352D01*
X9267457Y-17293829D01*
X9257933Y-17274781D01*
X9248410Y-17236686D01*
X9248410Y-17189067D01*
X9257933Y-17150971D01*
X9267457Y-17131924D01*
X9276981Y-17122400D01*
X9296029Y-17112876D01*
X9486505Y-17112876D02*
X9505552Y-17112876D01*
X9524600Y-17122400D01*
X9534124Y-17131924D01*
X9543648Y-17150971D01*
X9553171Y-17189067D01*
X9553171Y-17236686D01*
X9543648Y-17274781D01*
X9534124Y-17293829D01*
X9524600Y-17303352D01*
X9505552Y-17312876D01*
X9486505Y-17312876D01*
X9467457Y-17303352D01*
X9457933Y-17293829D01*
X9448410Y-17274781D01*
X9438886Y-17236686D01*
X9438886Y-17189067D01*
X9448410Y-17150971D01*
X9457933Y-17131924D01*
X9467457Y-17122400D01*
X9486505Y-17112876D01*
X9676981Y-17112876D02*
X9696029Y-17112876D01*
X9715076Y-17122400D01*
X9724600Y-17131924D01*
X9734124Y-17150971D01*
X9743648Y-17189067D01*
X9743648Y-17236686D01*
X9734124Y-17274781D01*
X9724600Y-17293829D01*
X9715076Y-17303352D01*
X9696029Y-17312876D01*
X9676981Y-17312876D01*
X9657933Y-17303352D01*
X9648410Y-17293829D01*
X9638886Y-17274781D01*
X9629362Y-17236686D01*
X9629362Y-17189067D01*
X9638886Y-17150971D01*
X9648410Y-17131924D01*
X9657933Y-17122400D01*
X9676981Y-17112876D01*
X9829362Y-17312876D02*
X9829362Y-17179543D01*
X9829362Y-17198590D02*
X9838886Y-17189067D01*
X9857933Y-17179543D01*
X9886505Y-17179543D01*
X9905552Y-17189067D01*
X9915076Y-17208114D01*
X9915076Y-17312876D01*
X9915076Y-17208114D02*
X9924600Y-17189067D01*
X9943648Y-17179543D01*
X9972219Y-17179543D01*
X9991267Y-17189067D01*
X10000790Y-17208114D01*
X10000790Y-17312876D01*
X10096029Y-17312876D02*
X10096029Y-17179543D01*
X10096029Y-17198590D02*
X10105552Y-17189067D01*
X10124600Y-17179543D01*
X10153171Y-17179543D01*
X10172219Y-17189067D01*
X10181743Y-17208114D01*
X10181743Y-17312876D01*
X10181743Y-17208114D02*
X10191267Y-17189067D01*
X10210314Y-17179543D01*
X10238886Y-17179543D01*
X10257933Y-17189067D01*
X10267457Y-17208114D01*
X10267457Y-17312876D01*
X10657933Y-17103352D02*
X10486505Y-17360495D01*
X10915076Y-17112876D02*
X10934124Y-17112876D01*
X10953171Y-17122400D01*
X10962695Y-17131924D01*
X10972219Y-17150971D01*
X10981743Y-17189067D01*
X10981743Y-17236686D01*
X10972219Y-17274781D01*
X10962695Y-17293829D01*
X10953171Y-17303352D01*
X10934124Y-17312876D01*
X10915076Y-17312876D01*
X10896029Y-17303352D01*
X10886505Y-17293829D01*
X10876981Y-17274781D01*
X10867457Y-17236686D01*
X10867457Y-17189067D01*
X10876981Y-17150971D01*
X10886505Y-17131924D01*
X10896029Y-17122400D01*
X10915076Y-17112876D01*
X11067457Y-17293829D02*
X11076981Y-17303352D01*
X11067457Y-17312876D01*
X11057933Y-17303352D01*
X11067457Y-17293829D01*
X11067457Y-17312876D01*
X11200790Y-17112876D02*
X11219838Y-17112876D01*
X11238886Y-17122400D01*
X11248409Y-17131924D01*
X11257933Y-17150971D01*
X11267457Y-17189067D01*
X11267457Y-17236686D01*
X11257933Y-17274781D01*
X11248409Y-17293829D01*
X11238886Y-17303352D01*
X11219838Y-17312876D01*
X11200790Y-17312876D01*
X11181743Y-17303352D01*
X11172219Y-17293829D01*
X11162695Y-17274781D01*
X11153171Y-17236686D01*
X11153171Y-17189067D01*
X11162695Y-17150971D01*
X11172219Y-17131924D01*
X11181743Y-17122400D01*
X11200790Y-17112876D01*
X11334124Y-17112876D02*
X11457933Y-17112876D01*
X11391267Y-17189067D01*
X11419838Y-17189067D01*
X11438886Y-17198590D01*
X11448409Y-17208114D01*
X11457933Y-17227162D01*
X11457933Y-17274781D01*
X11448409Y-17293829D01*
X11438886Y-17303352D01*
X11419838Y-17312876D01*
X11362695Y-17312876D01*
X11343648Y-17303352D01*
X11334124Y-17293829D01*
X11553171Y-17312876D02*
X11591267Y-17312876D01*
X11610314Y-17303352D01*
X11619838Y-17293829D01*
X11638886Y-17265257D01*
X11648409Y-17227162D01*
X11648409Y-17150971D01*
X11638886Y-17131924D01*
X11629362Y-17122400D01*
X11610314Y-17112876D01*
X11572219Y-17112876D01*
X11553171Y-17122400D01*
X11543648Y-17131924D01*
X11534124Y-17150971D01*
X11534124Y-17198590D01*
X11543648Y-17217638D01*
X11553171Y-17227162D01*
X11572219Y-17236686D01*
X11610314Y-17236686D01*
X11629362Y-17227162D01*
X11638886Y-17217638D01*
X11648409Y-17198590D01*
X11819838Y-17179543D02*
X11819838Y-17312876D01*
X11772219Y-17103352D02*
X11724600Y-17246210D01*
X11848409Y-17246210D01*
X11915076Y-17112876D02*
X11915076Y-17150971D01*
X11991267Y-17112876D02*
X11991267Y-17150971D01*
X12286505Y-17389067D02*
X12276981Y-17379543D01*
X12257933Y-17350971D01*
X12248409Y-17331924D01*
X12238886Y-17303352D01*
X12229362Y-17255733D01*
X12229362Y-17217638D01*
X12238886Y-17170019D01*
X12248409Y-17141448D01*
X12257933Y-17122400D01*
X12276981Y-17093829D01*
X12286505Y-17084305D01*
X12448409Y-17179543D02*
X12448409Y-17312876D01*
X12400790Y-17103352D02*
X12353171Y-17246210D01*
X12476981Y-17246210D01*
X12705552Y-17312876D02*
X12705552Y-17112876D01*
X12791267Y-17312876D02*
X12791267Y-17208114D01*
X12781743Y-17189067D01*
X12762695Y-17179543D01*
X12734124Y-17179543D01*
X12715076Y-17189067D01*
X12705552Y-17198590D01*
X12915076Y-17312876D02*
X12896028Y-17303352D01*
X12886505Y-17293829D01*
X12876981Y-17274781D01*
X12876981Y-17217638D01*
X12886505Y-17198590D01*
X12896028Y-17189067D01*
X12915076Y-17179543D01*
X12943648Y-17179543D01*
X12962695Y-17189067D01*
X12972219Y-17198590D01*
X12981743Y-17217638D01*
X12981743Y-17274781D01*
X12972219Y-17293829D01*
X12962695Y-17303352D01*
X12943648Y-17312876D01*
X12915076Y-17312876D01*
X13096028Y-17312876D02*
X13076981Y-17303352D01*
X13067457Y-17284305D01*
X13067457Y-17112876D01*
X13248409Y-17303352D02*
X13229362Y-17312876D01*
X13191267Y-17312876D01*
X13172219Y-17303352D01*
X13162695Y-17284305D01*
X13162695Y-17208114D01*
X13172219Y-17189067D01*
X13191267Y-17179543D01*
X13229362Y-17179543D01*
X13248409Y-17189067D01*
X13257933Y-17208114D01*
X13257933Y-17227162D01*
X13162695Y-17246210D01*
X13334124Y-17303352D02*
X13353171Y-17312876D01*
X13391267Y-17312876D01*
X13410314Y-17303352D01*
X13419838Y-17284305D01*
X13419838Y-17274781D01*
X13410314Y-17255733D01*
X13391267Y-17246210D01*
X13362695Y-17246210D01*
X13343648Y-17236686D01*
X13334124Y-17217638D01*
X13334124Y-17208114D01*
X13343648Y-17189067D01*
X13362695Y-17179543D01*
X13391267Y-17179543D01*
X13410314Y-17189067D01*
X13486505Y-17389067D02*
X13496028Y-17379543D01*
X13515076Y-17350971D01*
X13524600Y-17331924D01*
X13534124Y-17303352D01*
X13543648Y-17255733D01*
X13543648Y-17217638D01*
X13534124Y-17170019D01*
X13524600Y-17141448D01*
X13515076Y-17122400D01*
X13496028Y-17093829D01*
X13486505Y-17084305D01*
D17*
X8584600Y-17421400D02*
X8714600Y-17551400D01*
X8714600Y-17421400D02*
X8584600Y-17551400D01*
X8649600Y-17421400D02*
X8649600Y-17551400D01*
X8584600Y-17486400D02*
X8714600Y-17486400D01*
D11*
X9076981Y-17576876D02*
X8962695Y-17576876D01*
X9019838Y-17576876D02*
X9019838Y-17376876D01*
X9000790Y-17405448D01*
X8981743Y-17424495D01*
X8962695Y-17434019D01*
X9162695Y-17557829D02*
X9172219Y-17567352D01*
X9162695Y-17576876D01*
X9153171Y-17567352D01*
X9162695Y-17557829D01*
X9162695Y-17576876D01*
X9238886Y-17376876D02*
X9362695Y-17376876D01*
X9296029Y-17453067D01*
X9324600Y-17453067D01*
X9343648Y-17462590D01*
X9353171Y-17472114D01*
X9362695Y-17491162D01*
X9362695Y-17538781D01*
X9353171Y-17557829D01*
X9343648Y-17567352D01*
X9324600Y-17576876D01*
X9267457Y-17576876D01*
X9248410Y-17567352D01*
X9238886Y-17557829D01*
X9486505Y-17376876D02*
X9505552Y-17376876D01*
X9524600Y-17386400D01*
X9534124Y-17395924D01*
X9543648Y-17414971D01*
X9553171Y-17453067D01*
X9553171Y-17500686D01*
X9543648Y-17538781D01*
X9534124Y-17557829D01*
X9524600Y-17567352D01*
X9505552Y-17576876D01*
X9486505Y-17576876D01*
X9467457Y-17567352D01*
X9457933Y-17557829D01*
X9448410Y-17538781D01*
X9438886Y-17500686D01*
X9438886Y-17453067D01*
X9448410Y-17414971D01*
X9457933Y-17395924D01*
X9467457Y-17386400D01*
X9486505Y-17376876D01*
X9676981Y-17376876D02*
X9696029Y-17376876D01*
X9715076Y-17386400D01*
X9724600Y-17395924D01*
X9734124Y-17414971D01*
X9743648Y-17453067D01*
X9743648Y-17500686D01*
X9734124Y-17538781D01*
X9724600Y-17557829D01*
X9715076Y-17567352D01*
X9696029Y-17576876D01*
X9676981Y-17576876D01*
X9657933Y-17567352D01*
X9648410Y-17557829D01*
X9638886Y-17538781D01*
X9629362Y-17500686D01*
X9629362Y-17453067D01*
X9638886Y-17414971D01*
X9648410Y-17395924D01*
X9657933Y-17386400D01*
X9676981Y-17376876D01*
X9829362Y-17576876D02*
X9829362Y-17443543D01*
X9829362Y-17462590D02*
X9838886Y-17453067D01*
X9857933Y-17443543D01*
X9886505Y-17443543D01*
X9905552Y-17453067D01*
X9915076Y-17472114D01*
X9915076Y-17576876D01*
X9915076Y-17472114D02*
X9924600Y-17453067D01*
X9943648Y-17443543D01*
X9972219Y-17443543D01*
X9991267Y-17453067D01*
X10000790Y-17472114D01*
X10000790Y-17576876D01*
X10096029Y-17576876D02*
X10096029Y-17443543D01*
X10096029Y-17462590D02*
X10105552Y-17453067D01*
X10124600Y-17443543D01*
X10153171Y-17443543D01*
X10172219Y-17453067D01*
X10181743Y-17472114D01*
X10181743Y-17576876D01*
X10181743Y-17472114D02*
X10191267Y-17453067D01*
X10210314Y-17443543D01*
X10238886Y-17443543D01*
X10257933Y-17453067D01*
X10267457Y-17472114D01*
X10267457Y-17576876D01*
X10657933Y-17367352D02*
X10486505Y-17624495D01*
X10915076Y-17376876D02*
X10934124Y-17376876D01*
X10953171Y-17386400D01*
X10962695Y-17395924D01*
X10972219Y-17414971D01*
X10981743Y-17453067D01*
X10981743Y-17500686D01*
X10972219Y-17538781D01*
X10962695Y-17557829D01*
X10953171Y-17567352D01*
X10934124Y-17576876D01*
X10915076Y-17576876D01*
X10896029Y-17567352D01*
X10886505Y-17557829D01*
X10876981Y-17538781D01*
X10867457Y-17500686D01*
X10867457Y-17453067D01*
X10876981Y-17414971D01*
X10886505Y-17395924D01*
X10896029Y-17386400D01*
X10915076Y-17376876D01*
X11067457Y-17557829D02*
X11076981Y-17567352D01*
X11067457Y-17576876D01*
X11057933Y-17567352D01*
X11067457Y-17557829D01*
X11067457Y-17576876D01*
X11200790Y-17376876D02*
X11219838Y-17376876D01*
X11238886Y-17386400D01*
X11248409Y-17395924D01*
X11257933Y-17414971D01*
X11267457Y-17453067D01*
X11267457Y-17500686D01*
X11257933Y-17538781D01*
X11248409Y-17557829D01*
X11238886Y-17567352D01*
X11219838Y-17576876D01*
X11200790Y-17576876D01*
X11181743Y-17567352D01*
X11172219Y-17557829D01*
X11162695Y-17538781D01*
X11153171Y-17500686D01*
X11153171Y-17453067D01*
X11162695Y-17414971D01*
X11172219Y-17395924D01*
X11181743Y-17386400D01*
X11200790Y-17376876D01*
X11448409Y-17376876D02*
X11353171Y-17376876D01*
X11343648Y-17472114D01*
X11353171Y-17462590D01*
X11372219Y-17453067D01*
X11419838Y-17453067D01*
X11438886Y-17462590D01*
X11448409Y-17472114D01*
X11457933Y-17491162D01*
X11457933Y-17538781D01*
X11448409Y-17557829D01*
X11438886Y-17567352D01*
X11419838Y-17576876D01*
X11372219Y-17576876D01*
X11353171Y-17567352D01*
X11343648Y-17557829D01*
X11648409Y-17576876D02*
X11534124Y-17576876D01*
X11591267Y-17576876D02*
X11591267Y-17376876D01*
X11572219Y-17405448D01*
X11553171Y-17424495D01*
X11534124Y-17434019D01*
X11724600Y-17395924D02*
X11734124Y-17386400D01*
X11753171Y-17376876D01*
X11800790Y-17376876D01*
X11819838Y-17386400D01*
X11829362Y-17395924D01*
X11838886Y-17414971D01*
X11838886Y-17434019D01*
X11829362Y-17462590D01*
X11715076Y-17576876D01*
X11838886Y-17576876D01*
X11915076Y-17376876D02*
X11915076Y-17414971D01*
X11991267Y-17376876D02*
X11991267Y-17414971D01*
X12286505Y-17653067D02*
X12276981Y-17643543D01*
X12257933Y-17614971D01*
X12248409Y-17595924D01*
X12238886Y-17567352D01*
X12229362Y-17519733D01*
X12229362Y-17481638D01*
X12238886Y-17434019D01*
X12248409Y-17405448D01*
X12257933Y-17386400D01*
X12276981Y-17357829D01*
X12286505Y-17348305D01*
X12353171Y-17395924D02*
X12362695Y-17386400D01*
X12381743Y-17376876D01*
X12429362Y-17376876D01*
X12448409Y-17386400D01*
X12457933Y-17395924D01*
X12467457Y-17414971D01*
X12467457Y-17434019D01*
X12457933Y-17462590D01*
X12343648Y-17576876D01*
X12467457Y-17576876D01*
X12648409Y-17376876D02*
X12553171Y-17376876D01*
X12543648Y-17472114D01*
X12553171Y-17462590D01*
X12572219Y-17453067D01*
X12619838Y-17453067D01*
X12638886Y-17462590D01*
X12648409Y-17472114D01*
X12657933Y-17491162D01*
X12657933Y-17538781D01*
X12648409Y-17557829D01*
X12638886Y-17567352D01*
X12619838Y-17576876D01*
X12572219Y-17576876D01*
X12553171Y-17567352D01*
X12543648Y-17557829D01*
X12896028Y-17576876D02*
X12896028Y-17376876D01*
X12981743Y-17576876D02*
X12981743Y-17472114D01*
X12972219Y-17453067D01*
X12953171Y-17443543D01*
X12924600Y-17443543D01*
X12905552Y-17453067D01*
X12896028Y-17462590D01*
X13105552Y-17576876D02*
X13086505Y-17567352D01*
X13076981Y-17557829D01*
X13067457Y-17538781D01*
X13067457Y-17481638D01*
X13076981Y-17462590D01*
X13086505Y-17453067D01*
X13105552Y-17443543D01*
X13134124Y-17443543D01*
X13153171Y-17453067D01*
X13162695Y-17462590D01*
X13172219Y-17481638D01*
X13172219Y-17538781D01*
X13162695Y-17557829D01*
X13153171Y-17567352D01*
X13134124Y-17576876D01*
X13105552Y-17576876D01*
X13286505Y-17576876D02*
X13267457Y-17567352D01*
X13257933Y-17548305D01*
X13257933Y-17376876D01*
X13438886Y-17567352D02*
X13419838Y-17576876D01*
X13381743Y-17576876D01*
X13362695Y-17567352D01*
X13353171Y-17548305D01*
X13353171Y-17472114D01*
X13362695Y-17453067D01*
X13381743Y-17443543D01*
X13419838Y-17443543D01*
X13438886Y-17453067D01*
X13448409Y-17472114D01*
X13448409Y-17491162D01*
X13353171Y-17510210D01*
X13524600Y-17567352D02*
X13543648Y-17576876D01*
X13581743Y-17576876D01*
X13600790Y-17567352D01*
X13610314Y-17548305D01*
X13610314Y-17538781D01*
X13600790Y-17519733D01*
X13581743Y-17510210D01*
X13553171Y-17510210D01*
X13534124Y-17500686D01*
X13524600Y-17481638D01*
X13524600Y-17472114D01*
X13534124Y-17453067D01*
X13553171Y-17443543D01*
X13581743Y-17443543D01*
X13600790Y-17453067D01*
X13676981Y-17653067D02*
X13686505Y-17643543D01*
X13705552Y-17614971D01*
X13715076Y-17595924D01*
X13724600Y-17567352D01*
X13734124Y-17519733D01*
X13734124Y-17481638D01*
X13724600Y-17434019D01*
X13715076Y-17405448D01*
X13705552Y-17386400D01*
X13686505Y-17357829D01*
X13676981Y-17348305D01*
M02*
