G04 #@! TF.GenerationSoftware,KiCad,Pcbnew,(6.0.10)*
G04 #@! TF.CreationDate,2023-06-25T11:42:12-04:00*
G04 #@! TF.ProjectId,sd2_node_board,7364325f-6e6f-4646-955f-626f6172642e,rev?*
G04 #@! TF.SameCoordinates,Original*
G04 #@! TF.FileFunction,Legend,Bot*
G04 #@! TF.FilePolarity,Positive*
%FSLAX46Y46*%
G04 Gerber Fmt 4.6, Leading zero omitted, Abs format (unit mm)*
G04 Created by KiCad (PCBNEW (6.0.10)) date 2023-06-25 11:42:12*
%MOMM*%
%LPD*%
G01*
G04 APERTURE LIST*
%ADD10C,0.200000*%
%ADD11O,1.900000X1.050000*%
%ADD12O,2.000000X4.000000*%
%ADD13O,4.000000X2.000000*%
%ADD14R,1.700000X1.700000*%
%ADD15O,1.700000X1.700000*%
%ADD16R,2.600000X2.600000*%
%ADD17C,2.600000*%
G04 APERTURE END LIST*
D10*
X156684761Y-114409523D02*
X158303809Y-114409523D01*
X158494285Y-114504761D01*
X158589523Y-114600000D01*
X158684761Y-114790476D01*
X158684761Y-115171428D01*
X158589523Y-115361904D01*
X158494285Y-115457142D01*
X158303809Y-115552380D01*
X156684761Y-115552380D01*
X158494285Y-117647619D02*
X158589523Y-117552380D01*
X158684761Y-117266666D01*
X158684761Y-117076190D01*
X158589523Y-116790476D01*
X158399047Y-116600000D01*
X158208571Y-116504761D01*
X157827619Y-116409523D01*
X157541904Y-116409523D01*
X157160952Y-116504761D01*
X156970476Y-116600000D01*
X156780000Y-116790476D01*
X156684761Y-117076190D01*
X156684761Y-117266666D01*
X156780000Y-117552380D01*
X156875238Y-117647619D01*
X157637142Y-119171428D02*
X157637142Y-118504761D01*
X158684761Y-118504761D02*
X156684761Y-118504761D01*
X156684761Y-119457142D01*
X157637142Y-121742857D02*
X157637142Y-122409523D01*
X158684761Y-122695238D02*
X158684761Y-121742857D01*
X156684761Y-121742857D01*
X156684761Y-122695238D01*
X158494285Y-124695238D02*
X158589523Y-124599999D01*
X158684761Y-124314285D01*
X158684761Y-124123809D01*
X158589523Y-123838095D01*
X158399047Y-123647619D01*
X158208571Y-123552380D01*
X157827619Y-123457142D01*
X157541904Y-123457142D01*
X157160952Y-123552380D01*
X156970476Y-123647619D01*
X156780000Y-123838095D01*
X156684761Y-124123809D01*
X156684761Y-124314285D01*
X156780000Y-124599999D01*
X156875238Y-124695238D01*
X157637142Y-125552380D02*
X157637142Y-126219047D01*
X158684761Y-126504761D02*
X158684761Y-125552380D01*
X156684761Y-125552380D01*
X156684761Y-126504761D01*
X158589523Y-128790476D02*
X158684761Y-129076190D01*
X158684761Y-129552380D01*
X158589523Y-129742857D01*
X158494285Y-129838095D01*
X158303809Y-129933333D01*
X158113333Y-129933333D01*
X157922857Y-129838095D01*
X157827619Y-129742857D01*
X157732380Y-129552380D01*
X157637142Y-129171428D01*
X157541904Y-128980952D01*
X157446666Y-128885714D01*
X157256190Y-128790476D01*
X157065714Y-128790476D01*
X156875238Y-128885714D01*
X156780000Y-128980952D01*
X156684761Y-129171428D01*
X156684761Y-129647619D01*
X156780000Y-129933333D01*
X158589523Y-131552380D02*
X158684761Y-131361904D01*
X158684761Y-130980952D01*
X158589523Y-130790476D01*
X158399047Y-130695238D01*
X157637142Y-130695238D01*
X157446666Y-130790476D01*
X157351428Y-130980952D01*
X157351428Y-131361904D01*
X157446666Y-131552380D01*
X157637142Y-131647619D01*
X157827619Y-131647619D01*
X158018095Y-130695238D01*
X157351428Y-132504761D02*
X158684761Y-132504761D01*
X157541904Y-132504761D02*
X157446666Y-132599999D01*
X157351428Y-132790476D01*
X157351428Y-133076190D01*
X157446666Y-133266666D01*
X157637142Y-133361904D01*
X158684761Y-133361904D01*
X158684761Y-134314285D02*
X157351428Y-134314285D01*
X156684761Y-134314285D02*
X156780000Y-134219047D01*
X156875238Y-134314285D01*
X156780000Y-134409523D01*
X156684761Y-134314285D01*
X156875238Y-134314285D01*
X158684761Y-135552380D02*
X158589523Y-135361904D01*
X158494285Y-135266666D01*
X158303809Y-135171428D01*
X157732380Y-135171428D01*
X157541904Y-135266666D01*
X157446666Y-135361904D01*
X157351428Y-135552380D01*
X157351428Y-135838095D01*
X157446666Y-136028571D01*
X157541904Y-136123809D01*
X157732380Y-136219047D01*
X158303809Y-136219047D01*
X158494285Y-136123809D01*
X158589523Y-136028571D01*
X158684761Y-135838095D01*
X158684761Y-135552380D01*
X158684761Y-137076190D02*
X157351428Y-137076190D01*
X157732380Y-137076190D02*
X157541904Y-137171428D01*
X157446666Y-137266666D01*
X157351428Y-137457142D01*
X157351428Y-137647619D01*
X158684761Y-139838095D02*
X156684761Y-139838095D01*
X156684761Y-140314285D01*
X156780000Y-140599999D01*
X156970476Y-140790476D01*
X157160952Y-140885714D01*
X157541904Y-140980952D01*
X157827619Y-140980952D01*
X158208571Y-140885714D01*
X158399047Y-140790476D01*
X158589523Y-140599999D01*
X158684761Y-140314285D01*
X158684761Y-139838095D01*
X158589523Y-142599999D02*
X158684761Y-142409523D01*
X158684761Y-142028571D01*
X158589523Y-141838095D01*
X158399047Y-141742857D01*
X157637142Y-141742857D01*
X157446666Y-141838095D01*
X157351428Y-142028571D01*
X157351428Y-142409523D01*
X157446666Y-142599999D01*
X157637142Y-142695238D01*
X157827619Y-142695238D01*
X158018095Y-141742857D01*
X158589523Y-143457142D02*
X158684761Y-143647619D01*
X158684761Y-144028571D01*
X158589523Y-144219047D01*
X158399047Y-144314285D01*
X158303809Y-144314285D01*
X158113333Y-144219047D01*
X158018095Y-144028571D01*
X158018095Y-143742857D01*
X157922857Y-143552380D01*
X157732380Y-143457142D01*
X157637142Y-143457142D01*
X157446666Y-143552380D01*
X157351428Y-143742857D01*
X157351428Y-144028571D01*
X157446666Y-144219047D01*
X158684761Y-145171428D02*
X157351428Y-145171428D01*
X156684761Y-145171428D02*
X156780000Y-145076190D01*
X156875238Y-145171428D01*
X156780000Y-145266666D01*
X156684761Y-145171428D01*
X156875238Y-145171428D01*
X157351428Y-146980952D02*
X158970476Y-146980952D01*
X159160952Y-146885714D01*
X159256190Y-146790476D01*
X159351428Y-146599999D01*
X159351428Y-146314285D01*
X159256190Y-146123809D01*
X158589523Y-146980952D02*
X158684761Y-146790476D01*
X158684761Y-146409523D01*
X158589523Y-146219047D01*
X158494285Y-146123809D01*
X158303809Y-146028571D01*
X157732380Y-146028571D01*
X157541904Y-146123809D01*
X157446666Y-146219047D01*
X157351428Y-146409523D01*
X157351428Y-146790476D01*
X157446666Y-146980952D01*
X157351428Y-147933333D02*
X158684761Y-147933333D01*
X157541904Y-147933333D02*
X157446666Y-148028571D01*
X157351428Y-148219047D01*
X157351428Y-148504761D01*
X157446666Y-148695238D01*
X157637142Y-148790476D01*
X158684761Y-148790476D01*
X160000000Y-119409523D02*
X159904761Y-119219047D01*
X159904761Y-118933333D01*
X160000000Y-118647619D01*
X160190476Y-118457142D01*
X160380952Y-118361904D01*
X160761904Y-118266666D01*
X161047619Y-118266666D01*
X161428571Y-118361904D01*
X161619047Y-118457142D01*
X161809523Y-118647619D01*
X161904761Y-118933333D01*
X161904761Y-119123809D01*
X161809523Y-119409523D01*
X161714285Y-119504761D01*
X161047619Y-119504761D01*
X161047619Y-119123809D01*
X161904761Y-120361904D02*
X160571428Y-120361904D01*
X160952380Y-120361904D02*
X160761904Y-120457142D01*
X160666666Y-120552380D01*
X160571428Y-120742857D01*
X160571428Y-120933333D01*
X161904761Y-121885714D02*
X161809523Y-121695238D01*
X161714285Y-121600000D01*
X161523809Y-121504761D01*
X160952380Y-121504761D01*
X160761904Y-121600000D01*
X160666666Y-121695238D01*
X160571428Y-121885714D01*
X160571428Y-122171428D01*
X160666666Y-122361904D01*
X160761904Y-122457142D01*
X160952380Y-122552380D01*
X161523809Y-122552380D01*
X161714285Y-122457142D01*
X161809523Y-122361904D01*
X161904761Y-122171428D01*
X161904761Y-121885714D01*
X160571428Y-124266666D02*
X161904761Y-124266666D01*
X160571428Y-123409523D02*
X161619047Y-123409523D01*
X161809523Y-123504761D01*
X161904761Y-123695238D01*
X161904761Y-123980952D01*
X161809523Y-124171428D01*
X161714285Y-124266666D01*
X160571428Y-125219047D02*
X162571428Y-125219047D01*
X160666666Y-125219047D02*
X160571428Y-125409523D01*
X160571428Y-125790476D01*
X160666666Y-125980952D01*
X160761904Y-126076190D01*
X160952380Y-126171428D01*
X161523809Y-126171428D01*
X161714285Y-126076190D01*
X161809523Y-125980952D01*
X161904761Y-125790476D01*
X161904761Y-125409523D01*
X161809523Y-125219047D01*
X161904761Y-129600000D02*
X161904761Y-128457142D01*
X161904761Y-129028571D02*
X159904761Y-129028571D01*
X160190476Y-128838095D01*
X160380952Y-128647619D01*
X160476190Y-128457142D01*
X160571428Y-131314285D02*
X161904761Y-131314285D01*
X159809523Y-130838095D02*
X161238095Y-130361904D01*
X161238095Y-131600000D01*
X160857142Y-134552380D02*
X160857142Y-133885714D01*
X161904761Y-133885714D02*
X159904761Y-133885714D01*
X159904761Y-134838095D01*
X161904761Y-136457142D02*
X160857142Y-136457142D01*
X160666666Y-136361904D01*
X160571428Y-136171428D01*
X160571428Y-135790476D01*
X160666666Y-135600000D01*
X161809523Y-136457142D02*
X161904761Y-136266666D01*
X161904761Y-135790476D01*
X161809523Y-135600000D01*
X161619047Y-135504761D01*
X161428571Y-135504761D01*
X161238095Y-135600000D01*
X161142857Y-135790476D01*
X161142857Y-136266666D01*
X161047619Y-136457142D01*
X161809523Y-137314285D02*
X161904761Y-137504761D01*
X161904761Y-137885714D01*
X161809523Y-138076190D01*
X161619047Y-138171428D01*
X161523809Y-138171428D01*
X161333333Y-138076190D01*
X161238095Y-137885714D01*
X161238095Y-137600000D01*
X161142857Y-137409523D01*
X160952380Y-137314285D01*
X160857142Y-137314285D01*
X160666666Y-137409523D01*
X160571428Y-137600000D01*
X160571428Y-137885714D01*
X160666666Y-138076190D01*
X160571428Y-138742857D02*
X160571428Y-139504761D01*
X159904761Y-139028571D02*
X161619047Y-139028571D01*
X161809523Y-139123809D01*
X161904761Y-139314285D01*
X161904761Y-139504761D01*
X161714285Y-141314285D02*
X161809523Y-141219047D01*
X161904761Y-140933333D01*
X161904761Y-140742857D01*
X161809523Y-140457142D01*
X161619047Y-140266666D01*
X161428571Y-140171428D01*
X161047619Y-140076190D01*
X160761904Y-140076190D01*
X160380952Y-140171428D01*
X160190476Y-140266666D01*
X160000000Y-140457142D01*
X159904761Y-140742857D01*
X159904761Y-140933333D01*
X160000000Y-141219047D01*
X160095238Y-141314285D01*
X160571428Y-142171428D02*
X162571428Y-142171428D01*
X160666666Y-142171428D02*
X160571428Y-142361904D01*
X160571428Y-142742857D01*
X160666666Y-142933333D01*
X160761904Y-143028571D01*
X160952380Y-143123809D01*
X161523809Y-143123809D01*
X161714285Y-143028571D01*
X161809523Y-142933333D01*
X161904761Y-142742857D01*
X161904761Y-142361904D01*
X161809523Y-142171428D01*
X160857142Y-143980952D02*
X160857142Y-144647619D01*
X161904761Y-144933333D02*
X161904761Y-143980952D01*
X159904761Y-143980952D01*
X159904761Y-144933333D01*
X165124761Y-127457142D02*
X164172380Y-126790476D01*
X165124761Y-126314285D02*
X163124761Y-126314285D01*
X163124761Y-127076190D01*
X163220000Y-127266666D01*
X163315238Y-127361904D01*
X163505714Y-127457142D01*
X163791428Y-127457142D01*
X163981904Y-127361904D01*
X164077142Y-127266666D01*
X164172380Y-127076190D01*
X164172380Y-126314285D01*
X165029523Y-129076190D02*
X165124761Y-128885714D01*
X165124761Y-128504761D01*
X165029523Y-128314285D01*
X164839047Y-128219047D01*
X164077142Y-128219047D01*
X163886666Y-128314285D01*
X163791428Y-128504761D01*
X163791428Y-128885714D01*
X163886666Y-129076190D01*
X164077142Y-129171428D01*
X164267619Y-129171428D01*
X164458095Y-128219047D01*
X163791428Y-129838095D02*
X165124761Y-130314285D01*
X163791428Y-130790476D01*
X165124761Y-134123809D02*
X165124761Y-132980952D01*
X165124761Y-133552380D02*
X163124761Y-133552380D01*
X163410476Y-133361904D01*
X163600952Y-133171428D01*
X163696190Y-132980952D01*
X164934285Y-134980952D02*
X165029523Y-135076190D01*
X165124761Y-134980952D01*
X165029523Y-134885714D01*
X164934285Y-134980952D01*
X165124761Y-134980952D01*
X163124761Y-136314285D02*
X163124761Y-136504761D01*
X163220000Y-136695238D01*
X163315238Y-136790476D01*
X163505714Y-136885714D01*
X163886666Y-136980952D01*
X164362857Y-136980952D01*
X164743809Y-136885714D01*
X164934285Y-136790476D01*
X165029523Y-136695238D01*
X165124761Y-136504761D01*
X165124761Y-136314285D01*
X165029523Y-136123809D01*
X164934285Y-136028571D01*
X164743809Y-135933333D01*
X164362857Y-135838095D01*
X163886666Y-135838095D01*
X163505714Y-135933333D01*
X163315238Y-136028571D01*
X163220000Y-136123809D01*
X163124761Y-136314285D01*
%LPC*%
D11*
X88716000Y-84055000D03*
X88716000Y-91205000D03*
D12*
X101237500Y-73872000D03*
D13*
X98437500Y-78472000D03*
D12*
X95137500Y-73872000D03*
D14*
X142484000Y-121158000D03*
D15*
X139944000Y-121158000D03*
X137404000Y-121158000D03*
X134864000Y-121158000D03*
D16*
X172669000Y-127508000D03*
D17*
X172669000Y-132588000D03*
X172669000Y-137668000D03*
X172669000Y-142748000D03*
X172669000Y-147828000D03*
D16*
X172731000Y-100004000D03*
D17*
X172731000Y-105084000D03*
X172731000Y-110164000D03*
X172731000Y-115244000D03*
X172731000Y-120324000D03*
D16*
X172710000Y-72644000D03*
D17*
X172710000Y-77724000D03*
X172710000Y-82804000D03*
X172710000Y-87884000D03*
X172710000Y-92964000D03*
D16*
X94823500Y-147299000D03*
D17*
X94823500Y-142219000D03*
X94823500Y-137139000D03*
X94823500Y-132059000D03*
X94823500Y-126979000D03*
D16*
X94837500Y-120492000D03*
D17*
X94837500Y-115412000D03*
X94837500Y-110332000D03*
X94837500Y-105252000D03*
X94837500Y-100172000D03*
M02*
