%TF.GenerationSoftware,KiCad,Pcbnew,(6.0.10)*%
%TF.CreationDate,2023-06-25T11:42:36-04:00*%
%TF.ProjectId,sd2_node_board,7364325f-6e6f-4646-955f-626f6172642e,rev?*%
%TF.SameCoordinates,Original*%
%TF.FileFunction,Drillmap*%
%TF.FilePolarity,Positive*%
%FSLAX45Y45*%
G04 Gerber Fmt 4.5, Leading zero omitted, Abs format (unit mm)*
G04 Created by KiCad (PCBNEW (6.0.10)) date 2023-06-25 11:42:36*
%MOMM*%
%LPD*%
G01*
G04 APERTURE LIST*
%ADD10C,0.100000*%
%ADD11C,0.200000*%
G04 APERTURE END LIST*
D10*
X8719600Y-6870900D02*
X18045900Y-6870900D01*
X18045900Y-6870900D02*
X18045900Y-15257400D01*
X18045900Y-15257400D02*
X8719600Y-15257400D01*
X8719600Y-15257400D02*
X8719600Y-6870900D01*
D11*
X8972219Y-15572876D02*
X8972219Y-15372876D01*
X9019838Y-15372876D01*
X9048410Y-15382400D01*
X9067457Y-15401448D01*
X9076981Y-15420495D01*
X9086505Y-15458590D01*
X9086505Y-15487162D01*
X9076981Y-15525257D01*
X9067457Y-15544305D01*
X9048410Y-15563352D01*
X9019838Y-15572876D01*
X8972219Y-15572876D01*
X9172219Y-15572876D02*
X9172219Y-15439543D01*
X9172219Y-15477638D02*
X9181743Y-15458590D01*
X9191267Y-15449067D01*
X9210314Y-15439543D01*
X9229362Y-15439543D01*
X9296029Y-15572876D02*
X9296029Y-15439543D01*
X9296029Y-15372876D02*
X9286505Y-15382400D01*
X9296029Y-15391924D01*
X9305552Y-15382400D01*
X9296029Y-15372876D01*
X9296029Y-15391924D01*
X9419838Y-15572876D02*
X9400790Y-15563352D01*
X9391267Y-15544305D01*
X9391267Y-15372876D01*
X9524600Y-15572876D02*
X9505552Y-15563352D01*
X9496029Y-15544305D01*
X9496029Y-15372876D01*
X9753171Y-15572876D02*
X9753171Y-15372876D01*
X9819838Y-15515733D01*
X9886505Y-15372876D01*
X9886505Y-15572876D01*
X10067457Y-15572876D02*
X10067457Y-15468114D01*
X10057933Y-15449067D01*
X10038886Y-15439543D01*
X10000790Y-15439543D01*
X9981743Y-15449067D01*
X10067457Y-15563352D02*
X10048410Y-15572876D01*
X10000790Y-15572876D01*
X9981743Y-15563352D01*
X9972219Y-15544305D01*
X9972219Y-15525257D01*
X9981743Y-15506209D01*
X10000790Y-15496686D01*
X10048410Y-15496686D01*
X10067457Y-15487162D01*
X10162695Y-15439543D02*
X10162695Y-15639543D01*
X10162695Y-15449067D02*
X10181743Y-15439543D01*
X10219838Y-15439543D01*
X10238886Y-15449067D01*
X10248410Y-15458590D01*
X10257933Y-15477638D01*
X10257933Y-15534781D01*
X10248410Y-15553828D01*
X10238886Y-15563352D01*
X10219838Y-15572876D01*
X10181743Y-15572876D01*
X10162695Y-15563352D01*
X10343648Y-15553828D02*
X10353171Y-15563352D01*
X10343648Y-15572876D01*
X10334124Y-15563352D01*
X10343648Y-15553828D01*
X10343648Y-15572876D01*
X10343648Y-15449067D02*
X10353171Y-15458590D01*
X10343648Y-15468114D01*
X10334124Y-15458590D01*
X10343648Y-15449067D01*
X10343648Y-15468114D01*
M02*
